<svg width="800" height="800" viewBox="0 0 800 800" fill="none" xmlns="http://www.w3.org/2000/svg">
<path d="M693.5 49.8C693.5 39.45 685.1 31.05 674.75 31.05H179.75C179.05 31.025 178.225 31 177.4 31C138.875 31 107.475 61.5 106 99.65V99.775V709.5C108.825 742.775 136.525 768.675 170.3 768.675C171.875 768.675 173.425 768.625 174.975 768.5H174.775H674.775C685.125 768.5 693.525 760.1 693.525 749.75C693.525 739.4 685.125 731 674.775 731H179.775C179.2 731.025 178.525 731.05 177.85 731.05C159.925 731.05 145.2 717.375 143.525 699.875V699.725V669.15C143.525 657.675 158.125 647.625 174.725 647.625L674.775 649.05H674.8C679.975 649.05 684.65 646.95 688.025 643.55C688.45 643.125 688.65 642.525 689.025 642.05C690.2 640.775 691.2 639.3 691.975 637.725L692.025 637.625C692.425 636.4 692.75 635 692.875 633.525V633.45C693.15 632.575 693.375 631.525 693.5 630.425V630.35V630.3V49.8ZM656 611.575L268.5 610.475V68.55H656V611.575ZM143.5 616.95V99.8C145.175 82.175 159.925 68.5 177.85 68.5C178.525 68.5 179.2 68.525 179.85 68.55H179.75H231V610.35L174.75 610.2C163.425 610.25 152.675 612.725 143.025 617.15L143.5 616.95Z" fill="#004170"/>
<rect x="267" y="67" width="390" height="547" fill="#D9D9D9"/>
<ellipse cx="182" cy="103" rx="39" ry="36" fill="#D9D9D9"/>
<rect x="182" y="67" width="54" height="547" fill="#D9D9D9"/>
<rect x="143" y="107" width="43" height="90" fill="#D9D9D9"/>
<rect x="143" y="175" width="46" height="418" fill="#D9D9D9"/>
<path d="M194.5 610C153.7 616.8 143.5 621.167 143.5 622.5V589.5" stroke="#D9D9D9"/>
<rect x="144" y="591" width="48" height="23" fill="#D9D9D9"/>
<rect x="144" y="613" width="26" height="2" fill="#D9D9D9"/>
<rect x="144" y="614" width="21" height="2" fill="#D9D9D9"/>
<rect x="144" y="615" width="16" height="2" fill="#D9D9D9"/>
<rect x="144" y="617" width="13" height="1" fill="#D9D9D9"/>
<rect x="144" y="618" width="9" height="1" fill="#D9D9D9"/>
<rect x="144" y="619" width="5" height="1" fill="#D9D9D9"/>
<rect x="144" y="620" width="2" height="1" fill="#D9D9D9"/>
<rect x="146" y="618" width="1" height="3" fill="#D9D9D9"/>
<rect x="148" y="618" width="2" height="2" fill="#D9D9D9"/>
<rect x="159" y="616" width="2" height="1" fill="#D9D9D9"/>
<circle cx="144.5" cy="621.5" r="0.5" fill="#D9D9D9"/>
<circle cx="144" cy="621" r="1" fill="#D9D9D9"/>
<path d="M282.145 113L282.58 110.545C282.707 109.821 282.967 109.058 283.359 108.257C283.76 107.456 284.263 106.689 284.868 105.956C285.482 105.223 286.163 104.597 286.913 104.077L288.55 105.432C287.928 106.19 287.361 106.983 286.849 107.81C286.338 108.636 286.006 109.536 285.852 110.507L285.418 113H282.145ZM288.665 113L289.099 110.545C289.227 109.821 289.487 109.058 289.879 108.257C290.28 107.456 290.783 106.689 291.388 105.956C292.001 105.223 292.683 104.597 293.433 104.077L295.07 105.432C294.447 106.19 293.881 106.983 293.369 107.81C292.858 108.636 292.526 109.536 292.372 110.507L291.938 113H288.665ZM296.936 108.219L297.499 104.818H317.761L317.199 108.219H309.03L305.246 131H301.308L305.092 108.219H296.936ZM328.708 122.857L330.625 111.364H334.461L331.188 131H327.429L328.005 127.599H327.8C327.186 128.648 326.317 129.521 325.192 130.22C324.076 130.911 322.78 131.256 321.306 131.256C320.044 131.256 318.975 130.979 318.097 130.425C317.228 129.862 316.61 129.031 316.243 127.932C315.877 126.832 315.826 125.473 316.09 123.854L318.186 111.364H322.009L320.002 123.393C319.789 124.732 319.989 125.797 320.603 126.589C321.216 127.382 322.111 127.778 323.287 127.778C324.003 127.778 324.745 127.599 325.512 127.241C326.279 126.884 326.956 126.342 327.544 125.618C328.141 124.893 328.529 123.973 328.708 122.857ZM336.324 131L339.597 111.364H343.291L342.767 114.483H342.972C343.5 113.426 344.271 112.595 345.286 111.99C346.3 111.376 347.382 111.07 348.533 111.07C348.78 111.07 349.061 111.078 349.376 111.095C349.692 111.104 349.947 111.125 350.143 111.159L349.53 114.815C349.385 114.773 349.121 114.726 348.737 114.675C348.354 114.615 347.957 114.585 347.548 114.585C346.653 114.585 345.822 114.777 345.055 115.161C344.288 115.536 343.645 116.06 343.125 116.733C342.605 117.398 342.268 118.156 342.115 119.009L340.146 131H336.324ZM350.223 131L353.496 111.364H357.165L356.628 114.56H356.871C357.468 113.477 358.277 112.634 359.3 112.028C360.331 111.415 361.499 111.108 362.803 111.108C364.098 111.108 365.142 111.415 365.935 112.028C366.736 112.642 367.26 113.486 367.507 114.56H367.712C368.343 113.503 369.225 112.663 370.358 112.041C371.492 111.419 372.766 111.108 374.181 111.108C375.945 111.108 377.3 111.67 378.246 112.795C379.201 113.912 379.49 115.591 379.115 117.832L376.917 131H373.081L375.229 118.19C375.442 116.852 375.238 115.889 374.615 115.301C373.993 114.705 373.179 114.406 372.174 114.406C370.929 114.406 369.898 114.79 369.08 115.557C368.262 116.315 367.759 117.291 367.571 118.484L365.462 131H361.665L363.851 117.947C364.022 116.874 363.826 116.017 363.263 115.378C362.709 114.73 361.9 114.406 360.834 114.406C360.11 114.406 359.407 114.598 358.725 114.982C358.051 115.365 357.476 115.893 356.999 116.567C356.522 117.24 356.211 118.016 356.066 118.893L354.046 131H350.223ZM390.388 131.396C388.521 131.396 386.962 130.97 385.709 130.118C384.456 129.257 383.574 128.055 383.062 126.513C382.56 124.962 382.474 123.159 382.807 121.105C383.131 119.094 383.783 117.338 384.763 115.838C385.751 114.338 386.987 113.175 388.47 112.348C389.962 111.521 391.619 111.108 393.443 111.108C395.31 111.108 396.865 111.538 398.109 112.399C399.362 113.26 400.244 114.466 400.756 116.017C401.267 117.568 401.357 119.375 401.024 121.438C400.7 123.432 400.04 125.179 399.043 126.679C398.054 128.17 396.818 129.33 395.335 130.156C393.852 130.983 392.203 131.396 390.388 131.396ZM390.605 128.188C391.832 128.188 392.902 127.864 393.814 127.216C394.734 126.568 395.484 125.707 396.064 124.634C396.643 123.56 397.04 122.384 397.253 121.105C397.449 119.869 397.445 118.74 397.24 117.717C397.044 116.686 396.618 115.859 395.962 115.237C395.305 114.615 394.393 114.304 393.226 114.304C391.999 114.304 390.92 114.632 389.991 115.288C389.071 115.936 388.321 116.801 387.741 117.884C387.17 118.966 386.783 120.146 386.578 121.425C386.382 122.652 386.382 123.781 386.578 124.812C386.774 125.835 387.2 126.653 387.857 127.267C388.513 127.881 389.429 128.188 390.605 128.188ZM403.718 131L406.991 111.364H410.814L407.541 131H403.718ZM409.701 108.295C409.037 108.295 408.474 108.074 408.014 107.631C407.562 107.179 407.353 106.642 407.387 106.02C407.422 105.389 407.686 104.852 408.18 104.409C408.674 103.957 409.25 103.732 409.906 103.732C410.571 103.732 411.129 103.957 411.581 104.409C412.032 104.852 412.245 105.389 412.22 106.02C412.186 106.642 411.922 107.179 411.427 107.631C410.941 108.074 410.366 108.295 409.701 108.295ZM420.852 104.818L416.506 131H412.683L417.03 104.818H420.852ZM436.928 119.341L435.011 131H431.188L435.535 104.818H439.306L437.695 114.56H437.938C438.56 113.494 439.396 112.655 440.444 112.041C441.501 111.419 442.796 111.108 444.33 111.108C445.677 111.108 446.806 111.385 447.718 111.939C448.638 112.493 449.286 113.32 449.661 114.419C450.045 115.51 450.104 116.874 449.84 118.51L447.744 131H443.921L445.915 118.97C446.154 117.53 445.967 116.413 445.353 115.621C444.739 114.82 443.781 114.419 442.477 114.419C441.565 114.419 440.721 114.611 439.945 114.994C439.178 115.378 438.531 115.94 438.002 116.682C437.474 117.415 437.116 118.301 436.928 119.341ZM458.495 131.435C457.251 131.435 456.164 131.205 455.235 130.744C454.306 130.276 453.62 129.598 453.177 128.712C452.734 127.825 452.619 126.739 452.832 125.452C453.019 124.344 453.386 123.432 453.931 122.716C454.485 122 455.158 121.433 455.951 121.016C456.744 120.589 457.604 120.27 458.533 120.057C459.462 119.844 460.4 119.686 461.346 119.584C462.539 119.447 463.506 119.332 464.248 119.239C464.998 119.145 465.56 119 465.935 118.804C466.31 118.599 466.536 118.267 466.613 117.807V117.717C466.792 116.609 466.63 115.749 466.127 115.135C465.633 114.513 464.772 114.202 463.545 114.202C462.266 114.202 461.192 114.483 460.323 115.045C459.462 115.608 458.827 116.239 458.418 116.938L454.992 116.119C455.606 114.926 456.386 113.963 457.332 113.23C458.286 112.489 459.33 111.952 460.464 111.619C461.597 111.278 462.756 111.108 463.941 111.108C464.725 111.108 465.539 111.202 466.383 111.389C467.227 111.568 467.994 111.901 468.684 112.386C469.383 112.872 469.903 113.567 470.244 114.47C470.585 115.365 470.636 116.528 470.397 117.96L468.237 131H464.504L464.964 128.315H464.81C464.487 128.81 464.035 129.295 463.455 129.773C462.884 130.25 462.185 130.646 461.359 130.962C460.532 131.277 459.577 131.435 458.495 131.435ZM459.799 128.366C460.864 128.366 461.806 128.158 462.624 127.74C463.451 127.322 464.12 126.777 464.631 126.104C465.143 125.422 465.462 124.693 465.59 123.918L466.012 121.386C465.85 121.523 465.565 121.646 465.156 121.757C464.755 121.868 464.303 121.966 463.8 122.051C463.298 122.136 462.803 122.209 462.317 122.268C461.84 122.328 461.444 122.384 461.129 122.435C460.379 122.528 459.675 122.686 459.019 122.908C458.371 123.129 457.83 123.449 457.396 123.866C456.961 124.276 456.688 124.821 456.577 125.503C456.424 126.449 456.65 127.165 457.255 127.651C457.869 128.128 458.717 128.366 459.799 128.366ZM490.522 116.158L486.956 116.771C486.879 116.32 486.721 115.893 486.483 115.493C486.252 115.092 485.899 114.768 485.422 114.521C484.944 114.266 484.309 114.138 483.517 114.138C482.417 114.138 481.454 114.389 480.627 114.892C479.809 115.395 479.341 116.034 479.221 116.81C479.11 117.44 479.26 117.952 479.669 118.344C480.078 118.727 480.798 119.047 481.829 119.303L484.846 120.018C486.585 120.436 487.829 121.088 488.579 121.974C489.338 122.852 489.602 123.994 489.372 125.401C489.176 126.568 488.664 127.604 487.838 128.507C487.02 129.411 485.971 130.118 484.693 130.629C483.414 131.141 481.991 131.396 480.423 131.396C478.19 131.396 476.451 130.923 475.207 129.977C473.963 129.031 473.324 127.693 473.289 125.963L477.074 125.401C477.142 126.364 477.487 127.092 478.109 127.587C478.74 128.072 479.613 128.315 480.73 128.315C482.008 128.324 483.078 128.055 483.939 127.51C484.799 126.964 485.289 126.304 485.409 125.528C485.511 124.923 485.375 124.42 485 124.02C484.633 123.619 483.985 123.312 483.056 123.099L479.886 122.371C478.113 121.953 476.86 121.28 476.127 120.351C475.395 119.422 475.147 118.254 475.386 116.848C475.574 115.697 476.059 114.696 476.843 113.844C477.636 112.983 478.637 112.314 479.848 111.837C481.058 111.351 482.396 111.108 483.862 111.108C486.001 111.108 487.608 111.568 488.681 112.489C489.755 113.401 490.369 114.624 490.522 116.158ZM288.345 175.396C286.419 175.396 284.825 174.983 283.564 174.156C282.311 173.321 281.433 172.149 280.93 170.641C280.428 169.124 280.347 167.347 280.688 165.31C281.02 163.298 281.689 161.526 282.695 159.991C283.7 158.457 284.953 157.26 286.453 156.399C287.962 155.538 289.628 155.108 291.452 155.108C292.56 155.108 293.604 155.291 294.584 155.658C295.572 156.024 296.412 156.599 297.102 157.384C297.793 158.168 298.27 159.186 298.534 160.439C298.807 161.683 298.798 163.196 298.509 164.977L298.291 166.332H282.669L283.116 163.469H294.98C295.159 162.463 295.112 161.572 294.839 160.797C294.567 160.013 294.098 159.395 293.433 158.943C292.777 158.491 291.95 158.266 290.953 158.266C289.93 158.266 288.976 158.534 288.089 159.071C287.203 159.608 286.462 160.294 285.865 161.129C285.277 161.956 284.906 162.808 284.753 163.686L284.305 166.307C284.084 167.739 284.122 168.889 284.42 169.759C284.727 170.628 285.264 171.259 286.031 171.651C286.798 172.043 287.757 172.239 288.908 172.239C289.649 172.239 290.335 172.136 290.966 171.932C291.605 171.719 292.172 171.408 292.666 170.999C293.161 170.581 293.574 170.061 293.906 169.439L297.409 170.091C296.94 171.156 296.267 172.089 295.389 172.891C294.511 173.683 293.476 174.301 292.283 174.744C291.098 175.179 289.786 175.396 288.345 175.396ZM306.885 163.341L304.968 175H301.145L304.418 155.364H308.087L307.55 158.56H307.793C308.415 157.511 309.263 156.676 310.337 156.054C311.419 155.423 312.698 155.108 314.172 155.108C315.502 155.108 316.618 155.389 317.522 155.952C318.434 156.506 319.077 157.332 319.452 158.432C319.836 159.531 319.895 160.891 319.631 162.51L317.534 175H313.712L315.719 162.97C315.949 161.547 315.762 160.435 315.157 159.634C314.56 158.824 313.61 158.419 312.306 158.419C311.419 158.419 310.597 158.611 309.838 158.994C309.088 159.378 308.453 159.94 307.934 160.682C307.422 161.415 307.073 162.301 306.885 163.341ZM329.654 182.773C328.086 182.773 326.773 182.568 325.716 182.159C324.668 181.75 323.841 181.209 323.236 180.536C322.64 179.862 322.226 179.125 321.996 178.324L325.525 176.969C325.695 177.344 325.934 177.74 326.24 178.158C326.547 178.584 327.003 178.946 327.608 179.244C328.222 179.543 329.061 179.692 330.127 179.692C331.576 179.692 332.841 179.338 333.924 178.631C335.006 177.932 335.675 176.815 335.931 175.281L336.532 171.42H336.289C335.999 171.838 335.598 172.303 335.087 172.814C334.576 173.325 333.915 173.768 333.105 174.143C332.296 174.518 331.29 174.706 330.088 174.706C328.537 174.706 327.199 174.344 326.074 173.619C324.958 172.886 324.157 171.808 323.671 170.385C323.185 168.953 323.117 167.193 323.466 165.105C323.807 163.017 324.455 161.227 325.409 159.736C326.373 158.244 327.54 157.102 328.912 156.31C330.293 155.509 331.772 155.108 333.348 155.108C334.567 155.108 335.517 155.312 336.199 155.722C336.89 156.122 337.401 156.591 337.733 157.128C338.066 157.665 338.309 158.138 338.462 158.547H338.743L339.267 155.364H343.013L339.689 175.435C339.417 177.122 338.799 178.507 337.836 179.589C336.881 180.672 335.692 181.473 334.269 181.993C332.854 182.513 331.316 182.773 329.654 182.773ZM331.392 171.536C332.483 171.536 333.455 171.28 334.307 170.768C335.168 170.249 335.884 169.507 336.455 168.544C337.026 167.572 337.422 166.409 337.644 165.054C337.865 163.733 337.853 162.57 337.605 161.564C337.367 160.558 336.902 159.774 336.212 159.212C335.53 158.641 334.64 158.355 333.54 158.355C332.381 158.355 331.375 158.653 330.523 159.25C329.671 159.838 328.976 160.639 328.439 161.653C327.911 162.668 327.54 163.801 327.327 165.054C327.123 166.341 327.127 167.47 327.34 168.442C327.561 169.413 328.005 170.172 328.669 170.717C329.334 171.263 330.242 171.536 331.392 171.536ZM358.661 166.857L360.578 155.364H364.414L361.141 175H357.382L357.958 171.599H357.753C357.14 172.648 356.27 173.521 355.145 174.22C354.029 174.911 352.733 175.256 351.259 175.256C349.998 175.256 348.928 174.979 348.05 174.425C347.181 173.862 346.563 173.031 346.196 171.932C345.83 170.832 345.779 169.473 346.043 167.854L348.14 155.364H351.962L349.955 167.393C349.742 168.732 349.942 169.797 350.556 170.589C351.169 171.382 352.064 171.778 353.24 171.778C353.956 171.778 354.698 171.599 355.465 171.241C356.232 170.884 356.909 170.342 357.498 169.618C358.094 168.893 358.482 167.973 358.661 166.857ZM374.446 148.818L370.099 175H366.277L370.624 148.818H374.446ZM387.86 155.364L387.361 158.432H376.265L376.763 155.364H387.86ZM376.533 175L380.189 153.088C380.377 151.861 380.807 150.842 381.48 150.033C382.154 149.214 382.968 148.605 383.922 148.205C384.877 147.795 385.874 147.591 386.914 147.591C387.681 147.591 388.324 147.655 388.844 147.783C389.373 147.902 389.756 148.013 389.995 148.115L388.601 151.209C388.431 151.158 388.213 151.098 387.949 151.03C387.685 150.953 387.353 150.915 386.952 150.915C386.023 150.915 385.32 151.145 384.843 151.605C384.374 152.065 384.059 152.73 383.897 153.599L380.355 175H376.533ZM396.169 175.396C394.243 175.396 392.65 174.983 391.388 174.156C390.135 173.321 389.257 172.149 388.755 170.641C388.252 169.124 388.171 167.347 388.512 165.31C388.844 163.298 389.513 161.526 390.519 159.991C391.525 158.457 392.777 157.26 394.277 156.399C395.786 155.538 397.452 155.108 399.276 155.108C400.384 155.108 401.428 155.291 402.408 155.658C403.397 156.024 404.236 156.599 404.926 157.384C405.617 158.168 406.094 159.186 406.358 160.439C406.631 161.683 406.623 163.196 406.333 164.977L406.115 166.332H390.493L390.941 163.469H402.804C402.983 162.463 402.936 161.572 402.664 160.797C402.391 160.013 401.922 159.395 401.257 158.943C400.601 158.491 399.775 158.266 398.777 158.266C397.755 158.266 396.8 158.534 395.914 159.071C395.027 159.608 394.286 160.294 393.689 161.129C393.101 161.956 392.73 162.808 392.577 163.686L392.13 166.307C391.908 167.739 391.946 168.889 392.245 169.759C392.551 170.628 393.088 171.259 393.855 171.651C394.623 172.043 395.581 172.239 396.732 172.239C397.473 172.239 398.159 172.136 398.79 171.932C399.429 171.719 399.996 171.408 400.49 170.999C400.985 170.581 401.398 170.061 401.73 169.439L405.233 170.091C404.765 171.156 404.091 172.089 403.213 172.891C402.336 173.683 401.3 174.301 400.107 174.744C398.922 175.179 397.61 175.396 396.169 175.396ZM416.282 175.384C414.688 175.384 413.337 174.979 412.229 174.169C411.13 173.351 410.35 172.187 409.89 170.679C409.438 169.162 409.387 167.342 409.737 165.22C410.094 163.098 410.755 161.283 411.718 159.774C412.681 158.266 413.849 157.111 415.221 156.31C416.593 155.509 418.072 155.108 419.657 155.108C420.876 155.108 421.822 155.312 422.495 155.722C423.177 156.122 423.68 156.591 424.004 157.128C424.327 157.665 424.57 158.138 424.732 158.547H424.95L426.573 148.818H430.396L426.049 175H422.316L422.84 171.945H422.521C422.222 172.362 421.809 172.839 421.281 173.376C420.761 173.913 420.096 174.382 419.286 174.783C418.477 175.183 417.475 175.384 416.282 175.384ZM417.573 172.124C418.673 172.124 419.657 171.834 420.526 171.254C421.404 170.666 422.133 169.852 422.712 168.812C423.3 167.773 423.71 166.562 423.94 165.182C424.17 163.818 424.165 162.625 423.927 161.602C423.688 160.58 423.228 159.783 422.546 159.212C421.864 158.641 420.965 158.355 419.849 158.355C418.698 158.355 417.697 158.653 416.844 159.25C415.992 159.847 415.293 160.661 414.748 161.692C414.211 162.723 413.836 163.886 413.623 165.182C413.401 166.494 413.393 167.675 413.597 168.723C413.802 169.771 414.232 170.602 414.888 171.216C415.545 171.821 416.44 172.124 417.573 172.124ZM453.458 155.364L452.96 158.432H442.234L442.732 155.364H453.458ZM446.376 150.659H450.198L447.104 169.234C446.985 169.976 447.006 170.534 447.168 170.909C447.33 171.276 447.577 171.527 447.91 171.663C448.251 171.791 448.63 171.855 449.048 171.855C449.354 171.855 449.623 171.834 449.853 171.791C450.083 171.749 450.266 171.714 450.403 171.689L450.607 174.847C450.352 174.932 450.006 175.017 449.572 175.102C449.146 175.196 448.626 175.247 448.012 175.256C447.006 175.273 446.099 175.094 445.289 174.719C444.479 174.335 443.874 173.756 443.474 172.98C443.073 172.196 442.975 171.212 443.18 170.027L446.376 150.659ZM460.588 163.341L458.671 175H454.848L459.195 148.818H462.966L461.355 158.56H461.598C462.221 157.494 463.056 156.655 464.104 156.041C465.161 155.419 466.456 155.108 467.99 155.108C469.337 155.108 470.466 155.385 471.378 155.939C472.299 156.493 472.946 157.32 473.321 158.419C473.705 159.51 473.765 160.874 473.5 162.51L471.404 175H467.581L469.576 162.97C469.814 161.53 469.627 160.413 469.013 159.621C468.4 158.82 467.441 158.419 466.137 158.419C465.225 158.419 464.381 158.611 463.605 158.994C462.838 159.378 462.191 159.94 461.662 160.682C461.134 161.415 460.776 162.301 460.588 163.341ZM484.904 175.396C482.978 175.396 481.384 174.983 480.123 174.156C478.87 173.321 477.992 172.149 477.489 170.641C476.986 169.124 476.905 167.347 477.246 165.31C477.578 163.298 478.248 161.526 479.253 159.991C480.259 158.457 481.512 157.26 483.012 156.399C484.52 155.538 486.186 155.108 488.01 155.108C489.118 155.108 490.162 155.291 491.142 155.658C492.131 156.024 492.971 156.599 493.661 157.384C494.351 158.168 494.828 159.186 495.093 160.439C495.365 161.683 495.357 163.196 495.067 164.977L494.85 166.332H479.228L479.675 163.469H491.539C491.718 162.463 491.671 161.572 491.398 160.797C491.125 160.013 490.657 159.395 489.992 158.943C489.336 158.491 488.509 158.266 487.512 158.266C486.489 158.266 485.534 158.534 484.648 159.071C483.762 159.608 483.02 160.294 482.424 161.129C481.836 161.956 481.465 162.808 481.311 163.686L480.864 166.307C480.642 167.739 480.681 168.889 480.979 169.759C481.286 170.628 481.823 171.259 482.59 171.651C483.357 172.043 484.316 172.239 485.466 172.239C486.208 172.239 486.894 172.136 487.525 171.932C488.164 171.719 488.73 171.408 489.225 170.999C489.719 170.581 490.132 170.061 490.465 169.439L493.968 170.091C493.499 171.156 492.826 172.089 491.948 172.891C491.07 173.683 490.034 174.301 488.841 174.744C487.657 175.179 486.344 175.396 484.904 175.396ZM300.912 201.089C300.801 200.314 300.605 199.619 300.324 199.006C300.051 198.384 299.68 197.855 299.212 197.42C298.743 196.986 298.18 196.653 297.524 196.423C296.868 196.185 296.105 196.065 295.236 196.065C293.753 196.065 292.334 196.445 290.979 197.203C289.632 197.962 288.473 199.074 287.501 200.54C286.53 201.997 285.869 203.783 285.52 205.896C285.162 208.018 285.188 209.812 285.597 211.278C286.006 212.744 286.73 213.857 287.77 214.615C288.81 215.374 290.097 215.753 291.631 215.753C293.054 215.753 294.362 215.463 295.555 214.884C296.749 214.304 297.741 213.486 298.534 212.429C299.335 211.364 299.851 210.111 300.081 208.67L301.065 208.862H293.574L294.136 205.602H304.44L303.916 208.581C303.567 210.788 302.791 212.702 301.589 214.321C300.388 215.932 298.892 217.176 297.102 218.054C295.321 218.923 293.369 219.358 291.247 219.358C288.878 219.358 286.892 218.812 285.29 217.722C283.688 216.631 282.554 215.084 281.889 213.081C281.233 211.07 281.135 208.683 281.595 205.922C281.928 203.834 282.52 201.959 283.372 200.297C284.233 198.635 285.286 197.224 286.53 196.065C287.774 194.898 289.159 194.007 290.685 193.393C292.219 192.771 293.83 192.46 295.517 192.46C296.932 192.46 298.214 192.669 299.365 193.087C300.524 193.504 301.521 194.097 302.357 194.864C303.192 195.631 303.835 196.543 304.287 197.599C304.739 198.648 304.964 199.811 304.964 201.089H300.912ZM312.561 219.435C311.317 219.435 310.23 219.205 309.301 218.744C308.373 218.276 307.686 217.598 307.243 216.712C306.8 215.825 306.685 214.739 306.898 213.452C307.086 212.344 307.452 211.432 307.998 210.716C308.551 210 309.225 209.433 310.017 209.016C310.81 208.589 311.671 208.27 312.6 208.057C313.529 207.844 314.466 207.686 315.412 207.584C316.605 207.447 317.573 207.332 318.314 207.239C319.064 207.145 319.627 207 320.002 206.804C320.377 206.599 320.603 206.267 320.679 205.807V205.717C320.858 204.609 320.696 203.749 320.194 203.135C319.699 202.513 318.838 202.202 317.611 202.202C316.333 202.202 315.259 202.483 314.39 203.045C313.529 203.608 312.894 204.239 312.485 204.938L309.059 204.119C309.672 202.926 310.452 201.963 311.398 201.23C312.353 200.489 313.397 199.952 314.53 199.619C315.664 199.278 316.823 199.108 318.007 199.108C318.792 199.108 319.605 199.202 320.449 199.389C321.293 199.568 322.06 199.901 322.75 200.386C323.449 200.872 323.969 201.567 324.31 202.47C324.651 203.365 324.702 204.528 324.463 205.96L322.303 219H318.57L319.03 216.315H318.877C318.553 216.81 318.101 217.295 317.522 217.773C316.951 218.25 316.252 218.646 315.425 218.962C314.598 219.277 313.644 219.435 312.561 219.435ZM313.865 216.366C314.931 216.366 315.873 216.158 316.691 215.74C317.517 215.322 318.186 214.777 318.698 214.104C319.209 213.422 319.529 212.693 319.657 211.918L320.078 209.386C319.917 209.523 319.631 209.646 319.222 209.757C318.821 209.868 318.37 209.966 317.867 210.051C317.364 210.136 316.87 210.209 316.384 210.268C315.907 210.328 315.51 210.384 315.195 210.435C314.445 210.528 313.742 210.686 313.086 210.908C312.438 211.129 311.897 211.449 311.462 211.866C311.027 212.276 310.755 212.821 310.644 213.503C310.49 214.449 310.716 215.165 311.321 215.651C311.935 216.128 312.783 216.366 313.865 216.366ZM335.563 192.818L331.217 219H327.394L331.741 192.818H335.563ZM342.022 219.435C340.778 219.435 339.691 219.205 338.762 218.744C337.833 218.276 337.147 217.598 336.704 216.712C336.261 215.825 336.146 214.739 336.359 213.452C336.547 212.344 336.913 211.432 337.458 210.716C338.012 210 338.686 209.433 339.478 209.016C340.271 208.589 341.132 208.27 342.061 208.057C342.99 207.844 343.927 207.686 344.873 207.584C346.066 207.447 347.034 207.332 347.775 207.239C348.525 207.145 349.088 207 349.463 206.804C349.838 206.599 350.064 206.267 350.14 205.807V205.717C350.319 204.609 350.157 203.749 349.654 203.135C349.16 202.513 348.299 202.202 347.072 202.202C345.794 202.202 344.72 202.483 343.85 203.045C342.99 203.608 342.355 204.239 341.946 204.938L338.52 204.119C339.133 202.926 339.913 201.963 340.859 201.23C341.814 200.489 342.858 199.952 343.991 199.619C345.125 199.278 346.284 199.108 347.468 199.108C348.252 199.108 349.066 199.202 349.91 199.389C350.754 199.568 351.521 199.901 352.211 200.386C352.91 200.872 353.43 201.567 353.771 202.47C354.112 203.365 354.163 204.528 353.924 205.96L351.764 219H348.031L348.491 216.315H348.338C348.014 216.81 347.562 217.295 346.983 217.773C346.412 218.25 345.713 218.646 344.886 218.962C344.059 219.277 343.105 219.435 342.022 219.435ZM343.326 216.366C344.392 216.366 345.333 216.158 346.152 215.74C346.978 215.322 347.647 214.777 348.159 214.104C348.67 213.422 348.99 212.693 349.118 211.918L349.539 209.386C349.377 209.523 349.092 209.646 348.683 209.757C348.282 209.868 347.831 209.966 347.328 210.051C346.825 210.136 346.331 210.209 345.845 210.268C345.368 210.328 344.971 210.384 344.656 210.435C343.906 210.528 343.203 210.686 342.547 210.908C341.899 211.129 341.358 211.449 340.923 211.866C340.488 212.276 340.216 212.821 340.105 213.503C339.951 214.449 340.177 215.165 340.782 215.651C341.396 216.128 342.244 216.366 343.326 216.366ZM365.075 219.396C363.166 219.396 361.602 218.966 360.384 218.105C359.165 217.236 358.317 216.038 357.839 214.513C357.362 212.987 357.286 211.24 357.609 209.271C357.933 207.277 358.594 205.517 359.591 203.991C360.597 202.457 361.854 201.26 363.362 200.399C364.879 199.538 366.563 199.108 368.412 199.108C369.903 199.108 371.186 199.385 372.26 199.939C373.334 200.484 374.148 201.251 374.702 202.24C375.256 203.229 375.494 204.384 375.418 205.705H371.697C371.638 204.784 371.297 203.991 370.675 203.327C370.053 202.662 369.136 202.33 367.926 202.33C366.861 202.33 365.881 202.611 364.986 203.173C364.091 203.727 363.337 204.52 362.723 205.551C362.109 206.574 361.692 207.784 361.47 209.182C361.232 210.614 361.244 211.849 361.509 212.889C361.773 213.929 362.259 214.734 362.966 215.305C363.673 215.876 364.564 216.162 365.638 216.162C366.371 216.162 367.053 216.03 367.683 215.766C368.322 215.493 368.885 215.105 369.371 214.602C369.865 214.099 370.249 213.494 370.521 212.787H374.254C373.888 214.057 373.274 215.19 372.413 216.188C371.561 217.185 370.513 217.969 369.268 218.54C368.024 219.111 366.626 219.396 365.075 219.396ZM389.72 199.364L389.221 202.432H378.495L378.994 199.364H389.72ZM382.637 194.659H386.46L383.366 213.234C383.247 213.976 383.268 214.534 383.43 214.909C383.592 215.276 383.839 215.527 384.172 215.663C384.512 215.791 384.892 215.855 385.309 215.855C385.616 215.855 385.885 215.834 386.115 215.791C386.345 215.749 386.528 215.714 386.664 215.689L386.869 218.847C386.613 218.932 386.268 219.017 385.833 219.102C385.407 219.196 384.887 219.247 384.274 219.256C383.268 219.273 382.36 219.094 381.551 218.719C380.741 218.335 380.136 217.756 379.735 216.98C379.335 216.196 379.237 215.212 379.441 214.027L382.637 194.659ZM390.675 219L393.948 199.364H397.771L394.498 219H390.675ZM396.658 196.295C395.994 196.295 395.431 196.074 394.971 195.631C394.519 195.179 394.31 194.642 394.344 194.02C394.379 193.389 394.643 192.852 395.137 192.409C395.631 191.957 396.207 191.732 396.863 191.732C397.528 191.732 398.086 191.957 398.538 192.409C398.989 192.852 399.202 193.389 399.177 194.02C399.143 194.642 398.879 195.179 398.384 195.631C397.898 196.074 397.323 196.295 396.658 196.295ZM407.86 219.396C405.951 219.396 404.387 218.966 403.169 218.105C401.95 217.236 401.102 216.038 400.625 214.513C400.147 212.987 400.071 211.24 400.395 209.271C400.718 207.277 401.379 205.517 402.376 203.991C403.382 202.457 404.639 201.26 406.147 200.399C407.664 199.538 409.348 199.108 411.197 199.108C412.689 199.108 413.971 199.385 415.045 199.939C416.119 200.484 416.933 201.251 417.487 202.24C418.041 203.229 418.279 204.384 418.203 205.705H414.483C414.423 204.784 414.082 203.991 413.46 203.327C412.838 202.662 411.922 202.33 410.711 202.33C409.646 202.33 408.666 202.611 407.771 203.173C406.876 203.727 406.122 204.52 405.508 205.551C404.895 206.574 404.477 207.784 404.255 209.182C404.017 210.614 404.029 211.849 404.294 212.889C404.558 213.929 405.044 214.734 405.751 215.305C406.458 215.876 407.349 216.162 408.423 216.162C409.156 216.162 409.838 216.03 410.468 215.766C411.108 215.493 411.67 215.105 412.156 214.602C412.65 214.099 413.034 213.494 413.306 212.787H417.039C416.673 214.057 416.059 215.19 415.199 216.188C414.346 217.185 413.298 217.969 412.054 218.54C410.809 219.111 409.412 219.396 407.86 219.396ZM429.9 219L434.247 192.818H443.579C445.608 192.818 447.231 193.168 448.45 193.866C449.677 194.557 450.521 195.52 450.981 196.756C451.45 197.983 451.552 199.406 451.288 201.026C451.015 202.628 450.44 204.034 449.562 205.244C448.693 206.455 447.529 207.401 446.072 208.082C444.623 208.756 442.885 209.092 440.856 209.092H433.787L434.375 205.692H441.086C442.373 205.692 443.447 205.509 444.308 205.142C445.169 204.776 445.842 204.243 446.328 203.544C446.822 202.845 447.146 202.006 447.299 201.026C447.461 200.028 447.414 199.172 447.159 198.456C446.903 197.732 446.404 197.178 445.663 196.794C444.922 196.402 443.903 196.206 442.608 196.206H437.647L433.85 219H429.9ZM444.781 207.188L449.294 219H444.794L440.396 207.188H444.781ZM461.068 219.396C459.142 219.396 457.548 218.983 456.287 218.156C455.034 217.321 454.156 216.149 453.653 214.641C453.15 213.124 453.069 211.347 453.41 209.31C453.743 207.298 454.412 205.526 455.417 203.991C456.423 202.457 457.676 201.26 459.176 200.399C460.684 199.538 462.35 199.108 464.174 199.108C465.282 199.108 466.326 199.291 467.306 199.658C468.295 200.024 469.135 200.599 469.825 201.384C470.515 202.168 470.993 203.186 471.257 204.439C471.529 205.683 471.521 207.196 471.231 208.977L471.014 210.332H455.392L455.839 207.469H467.703C467.882 206.463 467.835 205.572 467.562 204.797C467.289 204.013 466.821 203.395 466.156 202.943C465.5 202.491 464.673 202.266 463.676 202.266C462.653 202.266 461.699 202.534 460.812 203.071C459.926 203.608 459.184 204.294 458.588 205.129C458 205.956 457.629 206.808 457.475 207.686L457.028 210.307C456.806 211.739 456.845 212.889 457.143 213.759C457.45 214.628 457.987 215.259 458.754 215.651C459.521 216.043 460.48 216.239 461.63 216.239C462.372 216.239 463.058 216.136 463.689 215.932C464.328 215.719 464.895 215.408 465.389 214.999C465.883 214.581 466.297 214.061 466.629 213.439L470.132 214.091C469.663 215.156 468.99 216.089 468.112 216.891C467.234 217.683 466.199 218.301 465.005 218.744C463.821 219.179 462.508 219.396 461.068 219.396ZM472.641 226.364L477.166 199.364H480.899L480.375 202.547H480.695C480.984 202.138 481.376 201.665 481.871 201.128C482.374 200.591 483.034 200.122 483.852 199.722C484.67 199.312 485.689 199.108 486.908 199.108C488.493 199.108 489.835 199.509 490.935 200.31C492.034 201.111 492.818 202.266 493.287 203.774C493.756 205.283 493.815 207.098 493.466 209.22C493.116 211.342 492.46 213.162 491.497 214.679C490.534 216.187 489.366 217.351 487.994 218.169C486.631 218.979 485.152 219.384 483.558 219.384C482.365 219.384 481.423 219.183 480.733 218.783C480.051 218.382 479.544 217.913 479.212 217.376C478.879 216.839 478.628 216.362 478.457 215.945H478.227L476.489 226.364H472.641ZM479.276 209.182C479.054 210.562 479.054 211.773 479.276 212.812C479.497 213.852 479.94 214.666 480.605 215.254C481.278 215.834 482.165 216.124 483.264 216.124C484.406 216.124 485.408 215.821 486.268 215.216C487.129 214.602 487.841 213.771 488.403 212.723C488.974 211.675 489.371 210.494 489.592 209.182C489.805 207.886 489.801 206.723 489.58 205.692C489.366 204.661 488.928 203.847 488.263 203.25C487.598 202.653 486.69 202.355 485.54 202.355C484.423 202.355 483.435 202.641 482.574 203.212C481.722 203.783 481.014 204.58 480.452 205.602C479.889 206.625 479.497 207.818 479.276 209.182ZM509.903 210.857L511.821 199.364H515.656L512.383 219H508.625L509.2 215.599H508.995C508.382 216.648 507.512 217.521 506.387 218.22C505.271 218.911 503.975 219.256 502.501 219.256C501.24 219.256 500.17 218.979 499.292 218.425C498.423 217.862 497.805 217.031 497.439 215.932C497.072 214.832 497.021 213.473 497.285 211.854L499.382 199.364H503.204L501.197 211.393C500.984 212.732 501.184 213.797 501.798 214.589C502.412 215.382 503.306 215.778 504.483 215.778C505.199 215.778 505.94 215.599 506.707 215.241C507.474 214.884 508.152 214.342 508.74 213.618C509.336 212.893 509.724 211.973 509.903 210.857ZM517.826 219L522.173 192.818H525.995L524.397 202.547H524.627C524.917 202.138 525.313 201.665 525.816 201.128C526.327 200.591 526.988 200.122 527.798 199.722C528.607 199.312 529.621 199.108 530.84 199.108C532.425 199.108 533.772 199.509 534.88 200.31C535.988 201.111 536.772 202.266 537.232 203.774C537.692 205.283 537.748 207.098 537.398 209.22C537.049 211.342 536.393 213.162 535.43 214.679C534.475 216.187 533.312 217.351 531.94 218.169C530.567 218.979 529.089 219.384 527.504 219.384C526.31 219.384 525.369 219.183 524.678 218.783C523.996 218.382 523.485 217.913 523.144 217.376C522.812 216.839 522.56 216.362 522.39 215.945H522.07L521.559 219H517.826ZM523.208 209.182C522.987 210.562 522.987 211.773 523.208 212.812C523.438 213.852 523.886 214.666 524.55 215.254C525.224 215.834 526.106 216.124 527.197 216.124C528.339 216.124 529.344 215.821 530.214 215.216C531.083 214.602 531.799 213.771 532.362 212.723C532.924 211.675 533.316 210.494 533.538 209.182C533.742 207.886 533.738 206.723 533.525 205.692C533.312 204.661 532.869 203.847 532.195 203.25C531.531 202.653 530.623 202.355 529.472 202.355C528.364 202.355 527.38 202.641 526.519 203.212C525.658 203.783 524.947 204.58 524.384 205.602C523.822 206.625 523.43 207.818 523.208 209.182ZM548.223 192.818L543.877 219H540.054L544.401 192.818H548.223ZM549.019 219L552.292 199.364H556.114L552.842 219H549.019ZM555.002 196.295C554.337 196.295 553.775 196.074 553.315 195.631C552.863 195.179 552.654 194.642 552.688 194.02C552.722 193.389 552.987 192.852 553.481 192.409C553.975 191.957 554.55 191.732 555.207 191.732C555.871 191.732 556.43 191.957 556.881 192.409C557.333 192.852 557.546 193.389 557.521 194.02C557.487 194.642 557.222 195.179 556.728 195.631C556.242 196.074 555.667 196.295 555.002 196.295ZM566.204 219.396C564.295 219.396 562.731 218.966 561.512 218.105C560.294 217.236 559.446 216.038 558.968 214.513C558.491 212.987 558.414 211.24 558.738 209.271C559.062 207.277 559.723 205.517 560.72 203.991C561.725 202.457 562.983 201.26 564.491 200.399C566.008 199.538 567.691 199.108 569.541 199.108C571.032 199.108 572.315 199.385 573.389 199.939C574.463 200.484 575.277 201.251 575.831 202.24C576.385 203.229 576.623 204.384 576.547 205.705H572.826C572.767 204.784 572.426 203.991 571.804 203.327C571.181 202.662 570.265 202.33 569.055 202.33C567.99 202.33 567.01 202.611 566.115 203.173C565.22 203.727 564.466 204.52 563.852 205.551C563.238 206.574 562.821 207.784 562.599 209.182C562.36 210.614 562.373 211.849 562.637 212.889C562.902 213.929 563.387 214.734 564.095 215.305C564.802 215.876 565.693 216.162 566.767 216.162C567.5 216.162 568.181 216.03 568.812 215.766C569.451 215.493 570.014 215.105 570.5 214.602C570.994 214.099 571.377 213.494 571.65 212.787H575.383C575.017 214.057 574.403 215.19 573.542 216.188C572.69 217.185 571.642 217.969 570.397 218.54C569.153 219.111 567.755 219.396 566.204 219.396ZM581.248 219.243C580.532 219.243 579.935 218.996 579.458 218.501C578.989 218.007 578.759 217.402 578.768 216.686C578.776 215.979 579.04 215.386 579.56 214.909C580.089 214.423 580.702 214.18 581.401 214.18C582.1 214.18 582.697 214.428 583.191 214.922C583.685 215.416 583.915 216.004 583.881 216.686C583.856 217.163 583.719 217.598 583.472 217.99C583.234 218.374 582.918 218.68 582.526 218.911C582.134 219.132 581.708 219.243 581.248 219.243ZM282.733 240.219L283.295 236.818H303.558L302.996 240.219H294.827L291.043 263H287.105L290.889 240.219H282.733ZM309.135 251.341L307.218 263H303.395L307.742 236.818H311.513L309.902 246.56H310.145C310.767 245.494 311.603 244.655 312.651 244.041C313.708 243.419 315.003 243.108 316.537 243.108C317.884 243.108 319.013 243.385 319.925 243.939C320.846 244.493 321.493 245.32 321.868 246.419C322.252 247.51 322.311 248.874 322.047 250.51L319.951 263H316.128L318.123 250.97C318.361 249.53 318.174 248.413 317.56 247.621C316.946 246.82 315.988 246.419 314.684 246.419C313.772 246.419 312.928 246.611 312.152 246.994C311.385 247.378 310.738 247.94 310.209 248.682C309.681 249.415 309.323 250.301 309.135 251.341ZM333.451 263.396C331.525 263.396 329.931 262.983 328.669 262.156C327.417 261.321 326.539 260.149 326.036 258.641C325.533 257.124 325.452 255.347 325.793 253.31C326.125 251.298 326.794 249.526 327.8 247.991C328.806 246.457 330.059 245.26 331.559 244.399C333.067 243.538 334.733 243.108 336.557 243.108C337.665 243.108 338.709 243.291 339.689 243.658C340.678 244.024 341.517 244.599 342.208 245.384C342.898 246.168 343.375 247.186 343.64 248.439C343.912 249.683 343.904 251.196 343.614 252.977L343.397 254.332H327.775L328.222 251.469H340.086C340.265 250.463 340.218 249.572 339.945 248.797C339.672 248.013 339.203 247.395 338.539 246.943C337.882 246.491 337.056 246.266 336.059 246.266C335.036 246.266 334.081 246.534 333.195 247.071C332.309 247.608 331.567 248.294 330.971 249.129C330.382 249.956 330.012 250.808 329.858 251.686L329.411 254.307C329.189 255.739 329.228 256.889 329.526 257.759C329.833 258.628 330.37 259.259 331.137 259.651C331.904 260.043 332.863 260.239 334.013 260.239C334.755 260.239 335.441 260.136 336.071 259.932C336.711 259.719 337.277 259.408 337.772 258.999C338.266 258.581 338.679 258.061 339.012 257.439L342.515 258.091C342.046 259.156 341.373 260.089 340.495 260.891C339.617 261.683 338.581 262.301 337.388 262.744C336.203 263.179 334.891 263.396 333.451 263.396ZM368.204 243.364L367.706 246.432H356.98L357.478 243.364H368.204ZM361.122 238.659H364.944L361.85 257.234C361.731 257.976 361.752 258.534 361.914 258.909C362.076 259.276 362.324 259.527 362.656 259.663C362.997 259.791 363.376 259.855 363.794 259.855C364.1 259.855 364.369 259.834 364.599 259.791C364.829 259.749 365.012 259.714 365.149 259.689L365.353 262.847C365.098 262.932 364.752 263.017 364.318 263.102C363.892 263.196 363.372 263.247 362.758 263.256C361.752 263.273 360.845 263.094 360.035 262.719C359.225 262.335 358.62 261.756 358.22 260.98C357.819 260.196 357.721 259.212 357.926 258.027L361.122 238.659ZM374.823 263.435C373.579 263.435 372.492 263.205 371.563 262.744C370.634 262.276 369.948 261.598 369.505 260.712C369.062 259.825 368.947 258.739 369.16 257.452C369.347 256.344 369.714 255.432 370.259 254.716C370.813 254 371.487 253.433 372.279 253.016C373.072 252.589 373.933 252.27 374.862 252.057C375.79 251.844 376.728 251.686 377.674 251.584C378.867 251.447 379.835 251.332 380.576 251.239C381.326 251.145 381.888 251 382.263 250.804C382.638 250.599 382.864 250.267 382.941 249.807V249.717C383.12 248.609 382.958 247.749 382.455 247.135C381.961 246.513 381.1 246.202 379.873 246.202C378.594 246.202 377.521 246.483 376.651 247.045C375.79 247.608 375.156 248.239 374.746 248.938L371.32 248.119C371.934 246.926 372.714 245.963 373.66 245.23C374.614 244.489 375.658 243.952 376.792 243.619C377.925 243.278 379.085 243.108 380.269 243.108C381.053 243.108 381.867 243.202 382.711 243.389C383.555 243.568 384.322 243.901 385.012 244.386C385.711 244.872 386.231 245.567 386.572 246.47C386.913 247.365 386.964 248.528 386.725 249.96L384.565 263H380.832L381.292 260.315H381.138C380.815 260.81 380.363 261.295 379.783 261.773C379.212 262.25 378.513 262.646 377.687 262.962C376.86 263.277 375.906 263.435 374.823 263.435ZM376.127 260.366C377.192 260.366 378.134 260.158 378.952 259.74C379.779 259.322 380.448 258.777 380.96 258.104C381.471 257.422 381.79 256.693 381.918 255.918L382.34 253.386C382.178 253.523 381.893 253.646 381.484 253.757C381.083 253.868 380.631 253.966 380.129 254.051C379.626 254.136 379.131 254.209 378.646 254.268C378.168 254.328 377.772 254.384 377.457 254.435C376.707 254.528 376.004 254.686 375.347 254.908C374.7 255.129 374.158 255.449 373.724 255.866C373.289 256.276 373.016 256.821 372.906 257.503C372.752 258.449 372.978 259.165 373.583 259.651C374.197 260.128 375.045 260.366 376.127 260.366ZM395.946 243.364L399.014 251.009L404.652 243.364H408.832L401.072 253.182L405.61 263H401.43L398.234 255.662L392.596 263H388.403L396.15 253.182L391.752 243.364H395.946ZM415.112 263.435C413.868 263.435 412.781 263.205 411.852 262.744C410.923 262.276 410.237 261.598 409.794 260.712C409.351 259.825 409.236 258.739 409.449 257.452C409.636 256.344 410.003 255.432 410.548 254.716C411.102 254 411.776 253.433 412.568 253.016C413.361 252.589 414.222 252.27 415.151 252.057C416.08 251.844 417.017 251.686 417.963 251.584C419.156 251.447 420.124 251.332 420.865 251.239C421.615 251.145 422.178 251 422.553 250.804C422.928 250.599 423.153 250.267 423.23 249.807V249.717C423.409 248.609 423.247 247.749 422.744 247.135C422.25 246.513 421.389 246.202 420.162 246.202C418.884 246.202 417.81 246.483 416.94 247.045C416.08 247.608 415.445 248.239 415.036 248.938L411.609 248.119C412.223 246.926 413.003 245.963 413.949 245.23C414.903 244.489 415.947 243.952 417.081 243.619C418.214 243.278 419.374 243.108 420.558 243.108C421.342 243.108 422.156 243.202 423 243.389C423.844 243.568 424.611 243.901 425.301 244.386C426 244.872 426.52 245.567 426.861 246.47C427.202 247.365 427.253 248.528 427.014 249.96L424.854 263H421.121L421.581 260.315H421.428C421.104 260.81 420.652 261.295 420.072 261.773C419.501 262.25 418.803 262.646 417.976 262.962C417.149 263.277 416.195 263.435 415.112 263.435ZM416.416 260.366C417.482 260.366 418.423 260.158 419.241 259.74C420.068 259.322 420.737 258.777 421.249 258.104C421.76 257.422 422.08 256.693 422.207 255.918L422.629 253.386C422.467 253.523 422.182 253.646 421.773 253.757C421.372 253.868 420.92 253.966 420.418 254.051C419.915 254.136 419.42 254.209 418.935 254.268C418.457 254.328 418.061 254.384 417.746 254.435C416.996 254.528 416.293 254.686 415.636 254.908C414.989 255.129 414.447 255.449 414.013 255.866C413.578 256.276 413.305 256.821 413.195 257.503C413.041 258.449 413.267 259.165 413.872 259.651C414.486 260.128 415.334 260.366 416.416 260.366ZM442.384 243.364L441.885 246.432H431.159L431.658 243.364H442.384ZM435.301 238.659H439.124L436.03 257.234C435.911 257.976 435.932 258.534 436.094 258.909C436.256 259.276 436.503 259.527 436.836 259.663C437.176 259.791 437.556 259.855 437.973 259.855C438.28 259.855 438.549 259.834 438.779 259.791C439.009 259.749 439.192 259.714 439.328 259.689L439.533 262.847C439.277 262.932 438.932 263.017 438.498 263.102C438.071 263.196 437.551 263.247 436.938 263.256C435.932 263.273 435.025 263.094 434.215 262.719C433.405 262.335 432.8 261.756 432.4 260.98C431.999 260.196 431.901 259.212 432.105 258.027L435.301 238.659ZM443.339 263L446.612 243.364H450.435L447.162 263H443.339ZM449.322 240.295C448.658 240.295 448.095 240.074 447.635 239.631C447.183 239.179 446.974 238.642 447.009 238.02C447.043 237.389 447.307 236.852 447.801 236.409C448.295 235.957 448.871 235.732 449.527 235.732C450.192 235.732 450.75 235.957 451.202 236.409C451.653 236.852 451.866 237.389 451.841 238.02C451.807 238.642 451.543 239.179 451.048 239.631C450.563 240.074 449.987 240.295 449.322 240.295ZM460.665 263.396C458.799 263.396 457.239 262.97 455.986 262.118C454.733 261.257 453.851 260.055 453.34 258.513C452.837 256.962 452.752 255.159 453.084 253.105C453.408 251.094 454.06 249.338 455.04 247.838C456.029 246.338 457.265 245.175 458.748 244.348C460.239 243.521 461.897 243.108 463.721 243.108C465.587 243.108 467.142 243.538 468.387 244.399C469.64 245.26 470.522 246.466 471.033 248.017C471.544 249.568 471.634 251.375 471.301 253.438C470.978 255.432 470.317 257.179 469.32 258.679C468.331 260.17 467.096 261.33 465.613 262.156C464.13 262.983 462.48 263.396 460.665 263.396ZM460.882 260.188C462.11 260.188 463.179 259.864 464.091 259.216C465.012 258.568 465.762 257.707 466.341 256.634C466.921 255.56 467.317 254.384 467.53 253.105C467.726 251.869 467.722 250.74 467.517 249.717C467.321 248.686 466.895 247.859 466.239 247.237C465.583 246.615 464.671 246.304 463.503 246.304C462.276 246.304 461.198 246.632 460.269 247.288C459.348 247.936 458.598 248.801 458.019 249.884C457.448 250.966 457.06 252.146 456.855 253.425C456.659 254.652 456.659 255.781 456.855 256.812C457.051 257.835 457.478 258.653 458.134 259.267C458.79 259.881 459.706 260.188 460.882 260.188ZM479.749 251.341L477.831 263H474.009L477.281 243.364H480.95L480.413 246.56H480.656C481.278 245.511 482.126 244.676 483.2 244.054C484.283 243.423 485.561 243.108 487.036 243.108C488.365 243.108 489.482 243.389 490.385 243.952C491.297 244.506 491.94 245.332 492.315 246.432C492.699 247.531 492.759 248.891 492.494 250.51L490.398 263H486.575L488.582 250.97C488.813 249.547 488.625 248.435 488.02 247.634C487.423 246.824 486.473 246.419 485.169 246.419C484.283 246.419 483.46 246.611 482.702 246.994C481.952 247.378 481.317 247.94 480.797 248.682C480.286 249.415 479.936 250.301 479.749 251.341ZM288.294 307.396C286.428 307.396 284.868 306.97 283.615 306.118C282.362 305.257 281.48 304.055 280.969 302.513C280.466 300.962 280.381 299.159 280.713 297.105C281.037 295.094 281.689 293.338 282.669 291.838C283.658 290.338 284.893 289.175 286.376 288.348C287.868 287.521 289.526 287.108 291.349 287.108C293.216 287.108 294.771 287.538 296.016 288.399C297.268 289.26 298.151 290.466 298.662 292.017C299.173 293.568 299.263 295.375 298.93 297.438C298.607 299.432 297.946 301.179 296.949 302.679C295.96 304.17 294.724 305.33 293.241 306.156C291.759 306.983 290.109 307.396 288.294 307.396ZM288.511 304.188C289.739 304.188 290.808 303.864 291.72 303.216C292.641 302.568 293.391 301.707 293.97 300.634C294.55 299.56 294.946 298.384 295.159 297.105C295.355 295.869 295.351 294.74 295.146 293.717C294.95 292.686 294.524 291.859 293.868 291.237C293.212 290.615 292.3 290.304 291.132 290.304C289.905 290.304 288.827 290.632 287.898 291.288C286.977 291.936 286.227 292.801 285.648 293.884C285.077 294.966 284.689 296.146 284.484 297.425C284.288 298.652 284.288 299.781 284.484 300.812C284.68 301.835 285.107 302.653 285.763 303.267C286.419 303.881 287.335 304.188 288.511 304.188ZM314.243 287.364L313.744 290.432H302.647L303.146 287.364H314.243ZM302.916 307L306.572 285.088C306.76 283.861 307.19 282.842 307.863 282.033C308.537 281.214 309.35 280.605 310.305 280.205C311.26 279.795 312.257 279.591 313.297 279.591C314.064 279.591 314.707 279.655 315.227 279.783C315.755 279.902 316.139 280.013 316.377 280.115L314.984 283.209C314.814 283.158 314.596 283.098 314.332 283.03C314.068 282.953 313.735 282.915 313.335 282.915C312.406 282.915 311.703 283.145 311.225 283.605C310.757 284.065 310.441 284.73 310.279 285.599L306.738 307H302.916ZM336.88 287.364L336.381 290.432H325.656L326.154 287.364H336.88ZM329.798 282.659H333.62L330.526 301.234C330.407 301.976 330.428 302.534 330.59 302.909C330.752 303.276 330.999 303.527 331.332 303.663C331.673 303.791 332.052 303.855 332.469 303.855C332.776 303.855 333.045 303.834 333.275 303.791C333.505 303.749 333.688 303.714 333.825 303.689L334.029 306.847C333.773 306.932 333.428 307.017 332.994 307.102C332.567 307.196 332.048 307.247 331.434 307.256C330.428 307.273 329.521 307.094 328.711 306.719C327.901 306.335 327.296 305.756 326.896 304.98C326.495 304.196 326.397 303.212 326.602 302.027L329.798 282.659ZM337.836 307L341.108 287.364H344.803L344.279 290.483H344.483C345.012 289.426 345.783 288.595 346.797 287.99C347.811 287.376 348.894 287.07 350.044 287.07C350.292 287.07 350.573 287.078 350.888 287.095C351.203 287.104 351.459 287.125 351.655 287.159L351.042 290.815C350.897 290.773 350.632 290.726 350.249 290.675C349.865 290.615 349.469 290.585 349.06 290.585C348.165 290.585 347.334 290.777 346.567 291.161C345.8 291.536 345.157 292.06 344.637 292.733C344.117 293.398 343.78 294.156 343.627 295.009L341.658 307H337.836ZM357.21 307.435C355.966 307.435 354.879 307.205 353.95 306.744C353.021 306.276 352.335 305.598 351.892 304.712C351.449 303.825 351.333 302.739 351.547 301.452C351.734 300.344 352.1 299.432 352.646 298.716C353.2 298 353.873 297.433 354.666 297.016C355.458 296.589 356.319 296.27 357.248 296.057C358.177 295.844 359.115 295.686 360.061 295.584C361.254 295.447 362.221 295.332 362.963 295.239C363.713 295.145 364.275 295 364.65 294.804C365.025 294.599 365.251 294.267 365.328 293.807V293.717C365.507 292.609 365.345 291.749 364.842 291.135C364.348 290.513 363.487 290.202 362.26 290.202C360.981 290.202 359.907 290.483 359.038 291.045C358.177 291.608 357.542 292.239 357.133 292.938L353.707 292.119C354.321 290.926 355.1 289.963 356.047 289.23C357.001 288.489 358.045 287.952 359.179 287.619C360.312 287.278 361.471 287.108 362.656 287.108C363.44 287.108 364.254 287.202 365.098 287.389C365.941 287.568 366.708 287.901 367.399 288.386C368.098 288.872 368.618 289.567 368.958 290.47C369.299 291.365 369.35 292.528 369.112 293.96L366.951 307H363.218L363.679 304.315H363.525C363.201 304.81 362.75 305.295 362.17 305.773C361.599 306.25 360.9 306.646 360.074 306.962C359.247 307.277 358.292 307.435 357.21 307.435ZM358.514 304.366C359.579 304.366 360.521 304.158 361.339 303.74C362.166 303.322 362.835 302.777 363.346 302.104C363.858 301.422 364.177 300.693 364.305 299.918L364.727 297.386C364.565 297.523 364.279 297.646 363.87 297.757C363.47 297.868 363.018 297.966 362.515 298.051C362.012 298.136 361.518 298.209 361.032 298.268C360.555 298.328 360.159 298.384 359.843 298.435C359.093 298.528 358.39 298.686 357.734 298.908C357.086 299.129 356.545 299.449 356.11 299.866C355.676 300.276 355.403 300.821 355.292 301.503C355.139 302.449 355.365 303.165 355.97 303.651C356.583 304.128 357.431 304.366 358.514 304.366ZM379.368 307.384C377.774 307.384 376.423 306.979 375.315 306.169C374.216 305.351 373.436 304.187 372.976 302.679C372.524 301.162 372.473 299.342 372.822 297.22C373.18 295.098 373.841 293.283 374.804 291.774C375.767 290.266 376.935 289.111 378.307 288.31C379.679 287.509 381.158 287.108 382.743 287.108C383.962 287.108 384.908 287.312 385.581 287.722C386.263 288.122 386.766 288.591 387.089 289.128C387.413 289.665 387.656 290.138 387.818 290.547H388.036L389.659 280.818H393.482L389.135 307H385.402L385.926 303.945H385.607C385.308 304.362 384.895 304.839 384.366 305.376C383.847 305.913 383.182 306.382 382.372 306.783C381.562 307.183 380.561 307.384 379.368 307.384ZM380.659 304.124C381.759 304.124 382.743 303.834 383.612 303.254C384.49 302.666 385.219 301.852 385.798 300.812C386.386 299.773 386.795 298.562 387.026 297.182C387.256 295.818 387.251 294.625 387.013 293.602C386.774 292.58 386.314 291.783 385.632 291.212C384.95 290.641 384.051 290.355 382.935 290.355C381.784 290.355 380.783 290.653 379.93 291.25C379.078 291.847 378.379 292.661 377.834 293.692C377.297 294.723 376.922 295.886 376.709 297.182C376.487 298.494 376.479 299.675 376.683 300.723C376.888 301.771 377.318 302.602 377.974 303.216C378.631 303.821 379.526 304.124 380.659 304.124ZM402.99 307.396C401.064 307.396 399.47 306.983 398.208 306.156C396.956 305.321 396.078 304.149 395.575 302.641C395.072 301.124 394.991 299.347 395.332 297.31C395.664 295.298 396.333 293.526 397.339 291.991C398.345 290.457 399.598 289.26 401.098 288.399C402.606 287.538 404.272 287.108 406.096 287.108C407.204 287.108 408.248 287.291 409.228 287.658C410.217 288.024 411.056 288.599 411.747 289.384C412.437 290.168 412.914 291.186 413.179 292.439C413.451 293.683 413.443 295.196 413.153 296.977L412.936 298.332H397.314L397.761 295.469H409.625C409.804 294.463 409.757 293.572 409.484 292.797C409.211 292.013 408.743 291.395 408.078 290.943C407.422 290.491 406.595 290.266 405.598 290.266C404.575 290.266 403.62 290.534 402.734 291.071C401.848 291.608 401.106 292.294 400.51 293.129C399.922 293.956 399.551 294.808 399.397 295.686L398.95 298.307C398.728 299.739 398.767 300.889 399.065 301.759C399.372 302.628 399.909 303.259 400.676 303.651C401.443 304.043 402.402 304.239 403.552 304.239C404.294 304.239 404.98 304.136 405.61 303.932C406.25 303.719 406.816 303.408 407.311 302.999C407.805 302.581 408.218 302.061 408.551 301.439L412.054 302.091C411.585 303.156 410.912 304.089 410.034 304.891C409.156 305.683 408.12 306.301 406.927 306.744C405.743 307.179 404.43 307.396 402.99 307.396ZM425.304 307L428.577 287.364H432.272L431.748 290.483H431.952C432.48 289.426 433.252 288.595 434.266 287.99C435.28 287.376 436.363 287.07 437.513 287.07C437.76 287.07 438.042 287.078 438.357 287.095C438.672 287.104 438.928 287.125 439.124 287.159L438.51 290.815C438.365 290.773 438.101 290.726 437.718 290.675C437.334 290.615 436.938 290.585 436.529 290.585C435.634 290.585 434.803 290.777 434.036 291.161C433.269 291.536 432.625 292.06 432.105 292.733C431.586 293.398 431.249 294.156 431.096 295.009L429.127 307H425.304ZM446.849 307.396C444.982 307.396 443.423 306.97 442.17 306.118C440.917 305.257 440.035 304.055 439.523 302.513C439.021 300.962 438.935 299.159 439.268 297.105C439.592 295.094 440.244 293.338 441.224 291.838C442.212 290.338 443.448 289.175 444.931 288.348C446.423 287.521 448.08 287.108 449.904 287.108C451.771 287.108 453.326 287.538 454.57 288.399C455.823 289.26 456.705 290.466 457.217 292.017C457.728 293.568 457.817 295.375 457.485 297.438C457.161 299.432 456.501 301.179 455.504 302.679C454.515 304.17 453.279 305.33 451.796 306.156C450.313 306.983 448.664 307.396 446.849 307.396ZM447.066 304.188C448.293 304.188 449.363 303.864 450.275 303.216C451.195 302.568 451.945 301.707 452.525 300.634C453.104 299.56 453.501 298.384 453.714 297.105C453.91 295.869 453.906 294.74 453.701 293.717C453.505 292.686 453.079 291.859 452.423 291.237C451.766 290.615 450.854 290.304 449.687 290.304C448.46 290.304 447.381 290.632 446.452 291.288C445.532 291.936 444.782 292.801 444.202 293.884C443.631 294.966 443.244 296.146 443.039 297.425C442.843 298.652 442.843 299.781 443.039 300.812C443.235 301.835 443.661 302.653 444.317 303.267C444.974 303.881 445.89 304.188 447.066 304.188ZM473.973 298.857L475.891 287.364H479.726L476.453 307H472.695L473.27 303.599H473.066C472.452 304.648 471.583 305.521 470.458 306.22C469.341 306.911 468.046 307.256 466.571 307.256C465.31 307.256 464.24 306.979 463.363 306.425C462.493 305.862 461.875 305.031 461.509 303.932C461.142 302.832 461.091 301.473 461.355 299.854L463.452 287.364H467.275L465.267 299.393C465.054 300.732 465.255 301.797 465.868 302.589C466.482 303.382 467.377 303.778 468.553 303.778C469.269 303.778 470.01 303.599 470.777 303.241C471.544 302.884 472.222 302.342 472.81 301.618C473.407 300.893 473.794 299.973 473.973 298.857ZM494.028 287.364L493.53 290.432H482.804L483.303 287.364H494.028ZM486.946 282.659H490.768L487.675 301.234C487.555 301.976 487.577 302.534 487.739 302.909C487.901 303.276 488.148 303.527 488.48 303.663C488.821 303.791 489.2 303.855 489.618 303.855C489.925 303.855 490.193 303.834 490.423 303.791C490.653 303.749 490.837 303.714 490.973 303.689L491.178 306.847C490.922 306.932 490.577 307.017 490.142 307.102C489.716 307.196 489.196 307.247 488.582 307.256C487.577 307.273 486.669 307.094 485.859 306.719C485.05 306.335 484.445 305.756 484.044 304.98C483.643 304.196 483.545 303.212 483.75 302.027L486.946 282.659ZM503.185 307.396C501.259 307.396 499.665 306.983 498.404 306.156C497.151 305.321 496.273 304.149 495.77 302.641C495.267 301.124 495.186 299.347 495.527 297.31C495.86 295.298 496.529 293.526 497.534 291.991C498.54 290.457 499.793 289.26 501.293 288.399C502.801 287.538 504.468 287.108 506.292 287.108C507.4 287.108 508.444 287.291 509.424 287.658C510.412 288.024 511.252 288.599 511.942 289.384C512.632 290.168 513.11 291.186 513.374 292.439C513.647 293.683 513.638 295.196 513.348 296.977L513.131 298.332H497.509L497.956 295.469H509.82C509.999 294.463 509.952 293.572 509.679 292.797C509.407 292.013 508.938 291.395 508.273 290.943C507.617 290.491 506.79 290.266 505.793 290.266C504.77 290.266 503.816 290.534 502.929 291.071C502.043 291.608 501.301 292.294 500.705 293.129C500.117 293.956 499.746 294.808 499.593 295.686L499.145 298.307C498.924 299.739 498.962 300.889 499.26 301.759C499.567 302.628 500.104 303.259 500.871 303.651C501.638 304.043 502.597 304.239 503.748 304.239C504.489 304.239 505.175 304.136 505.806 303.932C506.445 303.719 507.012 303.408 507.506 302.999C508 302.581 508.414 302.061 508.746 301.439L512.249 302.091C511.78 303.156 511.107 304.089 510.229 304.891C509.351 305.683 508.316 306.301 507.123 306.744C505.938 307.179 504.625 307.396 503.185 307.396ZM533.167 292.158L529.6 292.771C529.523 292.32 529.366 291.893 529.127 291.493C528.897 291.092 528.543 290.768 528.066 290.521C527.589 290.266 526.954 290.138 526.161 290.138C525.062 290.138 524.099 290.389 523.272 290.892C522.454 291.395 521.985 292.034 521.866 292.81C521.755 293.44 521.904 293.952 522.313 294.344C522.722 294.727 523.442 295.047 524.474 295.303L527.491 296.018C529.229 296.436 530.474 297.088 531.224 297.974C531.982 298.852 532.246 299.994 532.016 301.401C531.82 302.568 531.309 303.604 530.482 304.507C529.664 305.411 528.616 306.118 527.337 306.629C526.059 307.141 524.636 307.396 523.067 307.396C520.835 307.396 519.096 306.923 517.852 305.977C516.607 305.031 515.968 303.693 515.934 301.963L519.718 301.401C519.786 302.364 520.131 303.092 520.754 303.587C521.384 304.072 522.258 304.315 523.374 304.315C524.653 304.324 525.722 304.055 526.583 303.51C527.444 302.964 527.934 302.304 528.053 301.528C528.156 300.923 528.019 300.42 527.644 300.02C527.278 299.619 526.63 299.312 525.701 299.099L522.531 298.371C520.758 297.953 519.505 297.28 518.772 296.351C518.039 295.422 517.792 294.254 518.031 292.848C518.218 291.697 518.704 290.696 519.488 289.844C520.281 288.983 521.282 288.314 522.492 287.837C523.702 287.351 525.04 287.108 526.506 287.108C528.646 287.108 530.252 287.568 531.326 288.489C532.4 289.401 533.013 290.624 533.167 292.158ZM557.239 287.364L556.741 290.432H546.015L546.513 287.364H557.239ZM550.157 282.659H553.979L550.886 301.234C550.766 301.976 550.788 302.534 550.95 302.909C551.112 303.276 551.359 303.527 551.691 303.663C552.032 303.791 552.411 303.855 552.829 303.855C553.136 303.855 553.404 303.834 553.634 303.791C553.864 303.749 554.048 303.714 554.184 303.689L554.388 306.847C554.133 306.932 553.788 307.017 553.353 307.102C552.927 307.196 552.407 307.247 551.793 307.256C550.788 307.273 549.88 307.094 549.07 306.719C548.261 306.335 547.656 305.756 547.255 304.98C546.854 304.196 546.756 303.212 546.961 302.027L550.157 282.659ZM566.345 307.396C564.478 307.396 562.919 306.97 561.666 306.118C560.413 305.257 559.531 304.055 559.02 302.513C558.517 300.962 558.431 299.159 558.764 297.105C559.088 295.094 559.74 293.338 560.72 291.838C561.708 290.338 562.944 289.175 564.427 288.348C565.919 287.521 567.576 287.108 569.4 287.108C571.267 287.108 572.822 287.538 574.066 288.399C575.319 289.26 576.201 290.466 576.713 292.017C577.224 293.568 577.314 295.375 576.981 297.438C576.657 299.432 575.997 301.179 575 302.679C574.011 304.17 572.775 305.33 571.292 306.156C569.809 306.983 568.16 307.396 566.345 307.396ZM566.562 304.188C567.789 304.188 568.859 303.864 569.771 303.216C570.691 302.568 571.441 301.707 572.021 300.634C572.6 299.56 572.997 298.384 573.21 297.105C573.406 295.869 573.402 294.74 573.197 293.717C573.001 292.686 572.575 291.859 571.919 291.237C571.262 290.615 570.35 290.304 569.183 290.304C567.956 290.304 566.877 290.632 565.949 291.288C565.028 291.936 564.278 292.801 563.699 293.884C563.127 294.966 562.74 296.146 562.535 297.425C562.339 298.652 562.339 299.781 562.535 300.812C562.731 301.835 563.157 302.653 563.814 303.267C564.47 303.881 565.386 304.188 566.562 304.188ZM288.294 351.396C286.428 351.396 284.868 350.97 283.615 350.118C282.362 349.257 281.48 348.055 280.969 346.513C280.466 344.962 280.381 343.159 280.713 341.105C281.037 339.094 281.689 337.338 282.669 335.838C283.658 334.338 284.893 333.175 286.376 332.348C287.868 331.521 289.526 331.108 291.349 331.108C293.216 331.108 294.771 331.538 296.016 332.399C297.268 333.26 298.151 334.466 298.662 336.017C299.173 337.568 299.263 339.375 298.93 341.438C298.607 343.432 297.946 345.179 296.949 346.679C295.96 348.17 294.724 349.33 293.241 350.156C291.759 350.983 290.109 351.396 288.294 351.396ZM288.511 348.188C289.739 348.188 290.808 347.864 291.72 347.216C292.641 346.568 293.391 345.707 293.97 344.634C294.55 343.56 294.946 342.384 295.159 341.105C295.355 339.869 295.351 338.74 295.146 337.717C294.95 336.686 294.524 335.859 293.868 335.237C293.212 334.615 292.3 334.304 291.132 334.304C289.905 334.304 288.827 334.632 287.898 335.288C286.977 335.936 286.227 336.801 285.648 337.884C285.077 338.966 284.689 340.146 284.484 341.425C284.288 342.652 284.288 343.781 284.484 344.812C284.68 345.835 285.107 346.653 285.763 347.267C286.419 347.881 287.335 348.188 288.511 348.188ZM315.419 342.857L317.336 331.364H321.172L317.899 351H314.14L314.716 347.599H314.511C313.897 348.648 313.028 349.521 311.903 350.22C310.787 350.911 309.491 351.256 308.017 351.256C306.755 351.256 305.686 350.979 304.808 350.425C303.939 349.862 303.321 349.031 302.954 347.932C302.588 346.832 302.537 345.473 302.801 343.854L304.897 331.364H308.72L306.713 343.393C306.5 344.732 306.7 345.797 307.314 346.589C307.927 347.382 308.822 347.778 309.998 347.778C310.714 347.778 311.456 347.599 312.223 347.241C312.99 346.884 313.667 346.342 314.255 345.618C314.852 344.893 315.24 343.973 315.419 342.857ZM335.474 331.364L334.975 334.432H324.249L324.748 331.364H335.474ZM328.391 326.659H332.214L329.12 345.234C329.001 345.976 329.022 346.534 329.184 346.909C329.346 347.276 329.593 347.527 329.925 347.663C330.266 347.791 330.646 347.855 331.063 347.855C331.37 347.855 331.638 347.834 331.869 347.791C332.099 347.749 332.282 347.714 332.418 347.689L332.623 350.847C332.367 350.932 332.022 351.017 331.587 351.102C331.161 351.196 330.641 351.247 330.028 351.256C329.022 351.273 328.114 351.094 327.305 350.719C326.495 350.335 325.89 349.756 325.489 348.98C325.089 348.196 324.991 347.212 325.195 346.027L328.391 326.659ZM345.02 324.818L340.674 351H336.851L341.198 324.818H345.02ZM347.031 358.364C346.451 358.364 345.935 358.317 345.484 358.223C345.032 358.138 344.695 358.044 344.474 357.942L345.931 354.81C346.604 354.997 347.205 355.07 347.734 355.027C348.271 354.984 348.773 354.763 349.242 354.362C349.711 353.962 350.188 353.331 350.674 352.47L351.39 351.179L347.542 331.364H351.479L353.908 346.641H354.113L361.63 331.364H365.887L354.113 353.595C353.559 354.652 352.928 355.53 352.221 356.229C351.522 356.936 350.738 357.469 349.869 357.827C349.008 358.185 348.062 358.364 347.031 358.364ZM366.207 351L369.479 331.364H373.302L370.029 351H366.207ZM372.19 328.295C371.525 328.295 370.962 328.074 370.502 327.631C370.05 327.179 369.842 326.642 369.876 326.02C369.91 325.389 370.174 324.852 370.668 324.409C371.163 323.957 371.738 323.732 372.394 323.732C373.059 323.732 373.617 323.957 374.069 324.409C374.521 324.852 374.734 325.389 374.708 326.02C374.674 326.642 374.41 327.179 373.915 327.631C373.43 328.074 372.854 328.295 372.19 328.295ZM380.924 339.341L379.007 351H375.184L378.457 331.364H382.126L381.589 334.56H381.832C382.454 333.511 383.302 332.676 384.376 332.054C385.458 331.423 386.737 331.108 388.211 331.108C389.541 331.108 390.657 331.389 391.561 331.952C392.473 332.506 393.116 333.332 393.491 334.432C393.875 335.531 393.934 336.891 393.67 338.51L391.574 351H387.751L389.758 338.97C389.988 337.547 389.801 336.435 389.196 335.634C388.599 334.824 387.649 334.419 386.345 334.419C385.458 334.419 384.636 334.611 383.877 334.994C383.127 335.378 382.493 335.94 381.973 336.682C381.461 337.415 381.112 338.301 380.924 339.341ZM403.693 358.773C402.125 358.773 400.812 358.568 399.755 358.159C398.707 357.75 397.88 357.209 397.275 356.536C396.679 355.862 396.265 355.125 396.035 354.324L399.564 352.969C399.734 353.344 399.973 353.74 400.279 354.158C400.586 354.584 401.042 354.946 401.647 355.244C402.261 355.543 403.1 355.692 404.166 355.692C405.615 355.692 406.88 355.338 407.963 354.631C409.045 353.932 409.714 352.815 409.97 351.281L410.571 347.42H410.328C410.038 347.838 409.637 348.303 409.126 348.814C408.615 349.325 407.954 349.768 407.145 350.143C406.335 350.518 405.329 350.706 404.127 350.706C402.576 350.706 401.238 350.344 400.113 349.619C398.997 348.886 398.196 347.808 397.71 346.385C397.224 344.953 397.156 343.193 397.505 341.105C397.846 339.017 398.494 337.227 399.449 335.736C400.412 334.244 401.579 333.102 402.951 332.31C404.332 331.509 405.811 331.108 407.387 331.108C408.606 331.108 409.556 331.312 410.238 331.722C410.929 332.122 411.44 332.591 411.772 333.128C412.105 333.665 412.348 334.138 412.501 334.547H412.782L413.306 331.364H417.052L413.728 351.435C413.456 353.122 412.838 354.507 411.875 355.589C410.92 356.672 409.731 357.473 408.308 357.993C406.893 358.513 405.355 358.773 403.693 358.773ZM405.431 347.536C406.522 347.536 407.494 347.28 408.346 346.768C409.207 346.249 409.923 345.507 410.494 344.544C411.065 343.572 411.461 342.409 411.683 341.054C411.904 339.733 411.892 338.57 411.645 337.564C411.406 336.558 410.941 335.774 410.251 335.212C409.569 334.641 408.679 334.355 407.579 334.355C406.42 334.355 405.414 334.653 404.562 335.25C403.71 335.838 403.015 336.639 402.478 337.653C401.95 338.668 401.579 339.801 401.366 341.054C401.162 342.341 401.166 343.47 401.379 344.442C401.6 345.413 402.044 346.172 402.708 346.717C403.373 347.263 404.281 347.536 405.431 347.536ZM445.628 336.158L442.061 336.771C441.984 336.32 441.827 335.893 441.588 335.493C441.358 335.092 441.004 334.768 440.527 334.521C440.05 334.266 439.415 334.138 438.622 334.138C437.523 334.138 436.56 334.389 435.733 334.892C434.915 335.395 434.446 336.034 434.327 336.81C434.216 337.44 434.365 337.952 434.774 338.344C435.183 338.727 435.903 339.047 436.935 339.303L439.952 340.018C441.69 340.436 442.935 341.088 443.685 341.974C444.443 342.852 444.707 343.994 444.477 345.401C444.281 346.568 443.77 347.604 442.943 348.507C442.125 349.411 441.077 350.118 439.798 350.629C438.52 351.141 437.097 351.396 435.528 351.396C433.295 351.396 431.557 350.923 430.312 349.977C429.068 349.031 428.429 347.693 428.395 345.963L432.179 345.401C432.247 346.364 432.592 347.092 433.214 347.587C433.845 348.072 434.719 348.315 435.835 348.315C437.114 348.324 438.183 348.055 439.044 347.51C439.905 346.964 440.395 346.304 440.514 345.528C440.616 344.923 440.48 344.42 440.105 344.02C439.739 343.619 439.091 343.312 438.162 343.099L434.991 342.371C433.219 341.953 431.966 341.28 431.233 340.351C430.5 339.422 430.253 338.254 430.491 336.848C430.679 335.697 431.165 334.696 431.949 333.844C432.741 332.983 433.743 332.314 434.953 331.837C436.163 331.351 437.501 331.108 438.967 331.108C441.107 331.108 442.713 331.568 443.787 332.489C444.861 333.401 445.474 334.624 445.628 336.158ZM460.173 331.364L459.674 334.432H448.949L449.447 331.364H460.173ZM453.091 326.659H456.913L453.819 345.234C453.7 345.976 453.721 346.534 453.883 346.909C454.045 347.276 454.292 347.527 454.625 347.663C454.966 347.791 455.345 347.855 455.762 347.855C456.069 347.855 456.338 347.834 456.568 347.791C456.798 347.749 456.981 347.714 457.118 347.689L457.322 350.847C457.066 350.932 456.721 351.017 456.287 351.102C455.86 351.196 455.341 351.247 454.727 351.256C453.721 351.273 452.814 351.094 452.004 350.719C451.194 350.335 450.589 349.756 450.189 348.98C449.788 348.196 449.69 347.212 449.895 346.027L453.091 326.659ZM466.792 351.435C465.548 351.435 464.461 351.205 463.532 350.744C462.603 350.276 461.917 349.598 461.474 348.712C461.031 347.825 460.915 346.739 461.129 345.452C461.316 344.344 461.683 343.432 462.228 342.716C462.782 342 463.455 341.433 464.248 341.016C465.04 340.589 465.901 340.27 466.83 340.057C467.759 339.844 468.697 339.686 469.643 339.584C470.836 339.447 471.803 339.332 472.545 339.239C473.295 339.145 473.857 339 474.232 338.804C474.607 338.599 474.833 338.267 474.91 337.807V337.717C475.089 336.609 474.927 335.749 474.424 335.135C473.93 334.513 473.069 334.202 471.842 334.202C470.563 334.202 469.489 334.483 468.62 335.045C467.759 335.608 467.124 336.239 466.715 336.938L463.289 336.119C463.903 334.926 464.683 333.963 465.629 333.23C466.583 332.489 467.627 331.952 468.761 331.619C469.894 331.278 471.053 331.108 472.238 331.108C473.022 331.108 473.836 331.202 474.68 331.389C475.523 331.568 476.29 331.901 476.981 332.386C477.68 332.872 478.2 333.567 478.54 334.47C478.881 335.365 478.933 336.528 478.694 337.96L476.533 351H472.8L473.261 348.315H473.107C472.783 348.81 472.332 349.295 471.752 349.773C471.181 350.25 470.482 350.646 469.656 350.962C468.829 351.277 467.874 351.435 466.792 351.435ZM468.096 348.366C469.161 348.366 470.103 348.158 470.921 347.74C471.748 347.322 472.417 346.777 472.928 346.104C473.44 345.422 473.759 344.693 473.887 343.918L474.309 341.386C474.147 341.523 473.862 341.646 473.452 341.757C473.052 341.868 472.6 341.966 472.097 342.051C471.594 342.136 471.1 342.209 470.614 342.268C470.137 342.328 469.741 342.384 469.425 342.435C468.675 342.528 467.972 342.686 467.316 342.908C466.668 343.129 466.127 343.449 465.692 343.866C465.258 344.276 464.985 344.821 464.874 345.503C464.721 346.449 464.947 347.165 465.552 347.651C466.165 348.128 467.013 348.366 468.096 348.366ZM481.625 351L484.897 331.364H488.592L488.068 334.483H488.272C488.801 333.426 489.572 332.595 490.586 331.99C491.6 331.376 492.683 331.07 493.833 331.07C494.081 331.07 494.362 331.078 494.677 331.095C494.993 331.104 495.248 331.125 495.444 331.159L494.831 334.815C494.686 334.773 494.422 334.726 494.038 334.675C493.654 334.615 493.258 334.585 492.849 334.585C491.954 334.585 491.123 334.777 490.356 335.161C489.589 335.536 488.946 336.06 488.426 336.733C487.906 337.398 487.569 338.156 487.416 339.009L485.447 351H481.625ZM297.128 380.158L293.561 380.771C293.484 380.32 293.327 379.893 293.088 379.493C292.858 379.092 292.504 378.768 292.027 378.521C291.55 378.266 290.915 378.138 290.122 378.138C289.023 378.138 288.06 378.389 287.233 378.892C286.415 379.395 285.946 380.034 285.827 380.81C285.716 381.44 285.865 381.952 286.274 382.344C286.683 382.727 287.403 383.047 288.435 383.303L291.452 384.018C293.19 384.436 294.435 385.088 295.185 385.974C295.943 386.852 296.207 387.994 295.977 389.401C295.781 390.568 295.27 391.604 294.443 392.507C293.625 393.411 292.577 394.118 291.298 394.629C290.02 395.141 288.597 395.396 287.028 395.396C284.795 395.396 283.057 394.923 281.812 393.977C280.568 393.031 279.929 391.693 279.895 389.963L283.679 389.401C283.747 390.364 284.092 391.092 284.714 391.587C285.345 392.072 286.219 392.315 287.335 392.315C288.614 392.324 289.683 392.055 290.544 391.51C291.405 390.964 291.895 390.304 292.014 389.528C292.116 388.923 291.98 388.42 291.605 388.02C291.239 387.619 290.591 387.312 289.662 387.099L286.491 386.371C284.719 385.953 283.466 385.28 282.733 384.351C282 383.422 281.753 382.254 281.991 380.848C282.179 379.697 282.665 378.696 283.449 377.844C284.241 376.983 285.243 376.314 286.453 375.837C287.663 375.351 289.001 375.108 290.467 375.108C292.607 375.108 294.213 375.568 295.287 376.489C296.361 377.401 296.974 378.624 297.128 380.158ZM300.449 402.364C299.869 402.364 299.353 402.317 298.902 402.223C298.45 402.138 298.113 402.044 297.892 401.942L299.349 398.81C300.022 398.997 300.623 399.07 301.152 399.027C301.689 398.984 302.191 398.763 302.66 398.362C303.129 397.962 303.606 397.331 304.092 396.47L304.808 395.179L300.96 375.364H304.897L307.326 390.641H307.531L315.048 375.364H319.305L307.531 397.595C306.977 398.652 306.346 399.53 305.639 400.229C304.94 400.936 304.156 401.469 303.287 401.827C302.426 402.185 301.48 402.364 300.449 402.364ZM336.819 380.158L333.252 380.771C333.176 380.32 333.018 379.893 332.779 379.493C332.549 379.092 332.196 378.768 331.718 378.521C331.241 378.266 330.606 378.138 329.814 378.138C328.714 378.138 327.751 378.389 326.924 378.892C326.106 379.395 325.637 380.034 325.518 380.81C325.407 381.44 325.556 381.952 325.966 382.344C326.375 382.727 327.095 383.047 328.126 383.303L331.143 384.018C332.882 384.436 334.126 385.088 334.876 385.974C335.635 386.852 335.899 387.994 335.669 389.401C335.473 390.568 334.961 391.604 334.135 392.507C333.316 393.411 332.268 394.118 330.99 394.629C329.711 395.141 328.288 395.396 326.72 395.396C324.487 395.396 322.748 394.923 321.504 393.977C320.26 393.031 319.62 391.693 319.586 389.963L323.37 389.401C323.439 390.364 323.784 391.092 324.406 391.587C325.037 392.072 325.91 392.315 327.027 392.315C328.305 392.324 329.375 392.055 330.235 391.51C331.096 390.964 331.586 390.304 331.706 389.528C331.808 388.923 331.672 388.42 331.297 388.02C330.93 387.619 330.282 387.312 329.353 387.099L326.183 386.371C324.41 385.953 323.157 385.28 322.424 384.351C321.691 383.422 321.444 382.254 321.683 380.848C321.87 379.697 322.356 378.696 323.14 377.844C323.933 376.983 324.934 376.314 326.145 375.837C327.355 375.351 328.693 375.108 330.159 375.108C332.298 375.108 333.904 375.568 334.978 376.489C336.052 377.401 336.666 378.624 336.819 380.158ZM351.364 375.364L350.866 378.432H340.14L340.638 375.364H351.364ZM344.282 370.659H348.104L345.011 389.234C344.891 389.976 344.913 390.534 345.075 390.909C345.237 391.276 345.484 391.527 345.816 391.663C346.157 391.791 346.536 391.855 346.954 391.855C347.261 391.855 347.529 391.834 347.759 391.791C347.989 391.749 348.173 391.714 348.309 391.689L348.513 394.847C348.258 394.932 347.913 395.017 347.478 395.102C347.052 395.196 346.532 395.247 345.918 395.256C344.913 395.273 344.005 395.094 343.195 394.719C342.386 394.335 341.781 393.756 341.38 392.98C340.979 392.196 340.881 391.212 341.086 390.027L344.282 370.659ZM360.521 395.396C358.595 395.396 357.001 394.983 355.74 394.156C354.487 393.321 353.609 392.149 353.106 390.641C352.603 389.124 352.522 387.347 352.863 385.31C353.196 383.298 353.865 381.526 354.87 379.991C355.876 378.457 357.129 377.26 358.629 376.399C360.137 375.538 361.804 375.108 363.627 375.108C364.735 375.108 365.779 375.291 366.76 375.658C367.748 376.024 368.588 376.599 369.278 377.384C369.968 378.168 370.446 379.186 370.71 380.439C370.983 381.683 370.974 383.196 370.684 384.977L370.467 386.332H354.845L355.292 383.469H367.156C367.335 382.463 367.288 381.572 367.015 380.797C366.743 380.013 366.274 379.395 365.609 378.943C364.953 378.491 364.126 378.266 363.129 378.266C362.106 378.266 361.152 378.534 360.265 379.071C359.379 379.608 358.637 380.294 358.041 381.129C357.453 381.956 357.082 382.808 356.929 383.686L356.481 386.307C356.26 387.739 356.298 388.889 356.596 389.759C356.903 390.628 357.44 391.259 358.207 391.651C358.974 392.043 359.933 392.239 361.083 392.239C361.825 392.239 362.511 392.136 363.142 391.932C363.781 391.719 364.348 391.408 364.842 390.999C365.336 390.581 365.75 390.061 366.082 389.439L369.585 390.091C369.116 391.156 368.443 392.089 367.565 392.891C366.687 393.683 365.652 394.301 364.458 394.744C363.274 395.179 361.961 395.396 360.521 395.396ZM373.321 395L376.594 375.364H380.263L379.726 378.56H379.969C380.565 377.477 381.375 376.634 382.398 376.028C383.429 375.415 384.597 375.108 385.901 375.108C387.196 375.108 388.24 375.415 389.033 376.028C389.834 376.642 390.358 377.486 390.605 378.56H390.81C391.44 377.503 392.322 376.663 393.456 376.041C394.589 375.419 395.864 375.108 397.278 375.108C399.043 375.108 400.398 375.67 401.344 376.795C402.298 377.912 402.588 379.591 402.213 381.832L400.014 395H396.179L398.327 382.19C398.54 380.852 398.335 379.889 397.713 379.301C397.091 378.705 396.277 378.406 395.271 378.406C394.027 378.406 392.996 378.79 392.178 379.557C391.359 380.315 390.857 381.291 390.669 382.484L388.56 395H384.763L386.949 381.947C387.119 380.874 386.923 380.017 386.361 379.378C385.807 378.73 384.997 378.406 383.932 378.406C383.207 378.406 382.504 378.598 381.822 378.982C381.149 379.365 380.574 379.893 380.097 380.567C379.619 381.24 379.308 382.016 379.163 382.893L377.143 395H373.321ZM422.319 380.158L418.752 380.771C418.676 380.32 418.518 379.893 418.279 379.493C418.049 379.092 417.696 378.768 417.218 378.521C416.741 378.266 416.106 378.138 415.314 378.138C414.214 378.138 413.251 378.389 412.424 378.892C411.606 379.395 411.137 380.034 411.018 380.81C410.907 381.44 411.056 381.952 411.466 382.344C411.875 382.727 412.595 383.047 413.626 383.303L416.643 384.018C418.382 384.436 419.626 385.088 420.376 385.974C421.135 386.852 421.399 387.994 421.169 389.401C420.973 390.568 420.461 391.604 419.635 392.507C418.816 393.411 417.768 394.118 416.49 394.629C415.211 395.141 413.788 395.396 412.22 395.396C409.987 395.396 408.248 394.923 407.004 393.977C405.76 393.031 405.12 391.693 405.086 389.963L408.87 389.401C408.939 390.364 409.284 391.092 409.906 391.587C410.537 392.072 411.41 392.315 412.527 392.315C413.805 392.324 414.875 392.055 415.735 391.51C416.596 390.964 417.086 390.304 417.206 389.528C417.308 388.923 417.172 388.42 416.797 388.02C416.43 387.619 415.782 387.312 414.853 387.099L411.683 386.371C409.91 385.953 408.657 385.28 407.924 384.351C407.191 383.422 406.944 382.254 407.183 380.848C407.37 379.697 407.856 378.696 408.64 377.844C409.433 376.983 410.434 376.314 411.645 375.837C412.855 375.351 414.193 375.108 415.659 375.108C417.798 375.108 419.404 375.568 420.478 376.489C421.552 377.401 422.166 378.624 422.319 380.158ZM433.953 395L437.225 375.364H441.048L437.775 395H433.953ZM439.936 372.295C439.271 372.295 438.708 372.074 438.248 371.631C437.797 371.179 437.588 370.642 437.622 370.02C437.656 369.389 437.92 368.852 438.414 368.409C438.909 367.957 439.484 367.732 440.14 367.732C440.805 367.732 441.363 367.957 441.815 368.409C442.267 368.852 442.48 369.389 442.454 370.02C442.42 370.642 442.156 371.179 441.662 371.631C441.176 372.074 440.6 372.295 439.936 372.295ZM460.112 380.158L456.545 380.771C456.469 380.32 456.311 379.893 456.072 379.493C455.842 379.092 455.489 378.768 455.011 378.521C454.534 378.266 453.899 378.138 453.107 378.138C452.007 378.138 451.044 378.389 450.217 378.892C449.399 379.395 448.93 380.034 448.811 380.81C448.7 381.44 448.849 381.952 449.259 382.344C449.668 382.727 450.388 383.047 451.419 383.303L454.436 384.018C456.175 384.436 457.419 385.088 458.169 385.974C458.928 386.852 459.192 387.994 458.962 389.401C458.766 390.568 458.254 391.604 457.428 392.507C456.609 393.411 455.561 394.118 454.283 394.629C453.004 395.141 451.581 395.396 450.013 395.396C447.78 395.396 446.041 394.923 444.797 393.977C443.553 393.031 442.913 391.693 442.879 389.963L446.663 389.401C446.732 390.364 447.077 391.092 447.699 391.587C448.33 392.072 449.203 392.315 450.32 392.315C451.598 392.324 452.668 392.055 453.528 391.51C454.389 390.964 454.879 390.304 454.999 389.528C455.101 388.923 454.964 388.42 454.589 388.02C454.223 387.619 453.575 387.312 452.646 387.099L449.476 386.371C447.703 385.953 446.45 385.28 445.717 384.351C444.984 383.422 444.737 382.254 444.976 380.848C445.163 379.697 445.649 378.696 446.433 377.844C447.226 376.983 448.227 376.314 449.438 375.837C450.648 375.351 451.986 375.108 453.452 375.108C455.591 375.108 457.197 375.568 458.271 376.489C459.345 377.401 459.959 378.624 460.112 380.158ZM471.746 395L475.018 375.364H478.841L475.568 395H471.746ZM477.729 372.295C477.064 372.295 476.501 372.074 476.041 371.631C475.589 371.179 475.381 370.642 475.415 370.02C475.449 369.389 475.713 368.852 476.207 368.409C476.702 367.957 477.277 367.732 477.933 367.732C478.598 367.732 479.156 367.957 479.608 368.409C480.06 368.852 480.273 369.389 480.247 370.02C480.213 370.642 479.949 371.179 479.455 371.631C478.969 372.074 478.393 372.295 477.729 372.295ZM486.463 383.341L484.546 395H480.723L483.996 375.364H487.665L487.128 378.56H487.371C487.993 377.511 488.841 376.676 489.915 376.054C490.998 375.423 492.276 375.108 493.75 375.108C495.08 375.108 496.196 375.389 497.1 375.952C498.012 376.506 498.655 377.332 499.03 378.432C499.414 379.531 499.473 380.891 499.209 382.51L497.113 395H493.29L495.297 382.97C495.527 381.547 495.34 380.435 494.735 379.634C494.138 378.824 493.188 378.419 491.884 378.419C490.998 378.419 490.175 378.611 489.417 378.994C488.667 379.378 488.032 379.94 487.512 380.682C487 381.415 486.651 382.301 486.463 383.341ZM287.259 439.384C285.665 439.384 284.314 438.979 283.206 438.169C282.107 437.351 281.327 436.187 280.866 434.679C280.415 433.162 280.364 431.342 280.713 429.22C281.071 427.098 281.732 425.283 282.695 423.774C283.658 422.266 284.825 421.111 286.197 420.31C287.57 419.509 289.048 419.108 290.634 419.108C291.852 419.108 292.798 419.312 293.472 419.722C294.153 420.122 294.656 420.591 294.98 421.128C295.304 421.665 295.547 422.138 295.709 422.547H295.926L297.55 412.818H301.372L297.026 439H293.293L293.817 435.945H293.497C293.199 436.362 292.786 436.839 292.257 437.376C291.737 437.913 291.072 438.382 290.263 438.783C289.453 439.183 288.452 439.384 287.259 439.384ZM288.55 436.124C289.649 436.124 290.634 435.834 291.503 435.254C292.381 434.666 293.109 433.852 293.689 432.812C294.277 431.773 294.686 430.562 294.916 429.182C295.146 427.818 295.142 426.625 294.903 425.602C294.665 424.58 294.205 423.783 293.523 423.212C292.841 422.641 291.942 422.355 290.825 422.355C289.675 422.355 288.673 422.653 287.821 423.25C286.969 423.847 286.27 424.661 285.724 425.692C285.188 426.723 284.813 427.886 284.599 429.182C284.378 430.494 284.369 431.675 284.574 432.723C284.778 433.771 285.209 434.602 285.865 435.216C286.521 435.821 287.416 436.124 288.55 436.124ZM302.468 439L305.741 419.364H309.564L306.291 439H302.468ZM308.451 416.295C307.787 416.295 307.224 416.074 306.764 415.631C306.312 415.179 306.103 414.642 306.137 414.02C306.172 413.389 306.436 412.852 306.93 412.409C307.424 411.957 308 411.732 308.656 411.732C309.321 411.732 309.879 411.957 310.331 412.409C310.782 412.852 310.995 413.389 310.97 414.02C310.936 414.642 310.672 415.179 310.177 415.631C309.691 416.074 309.116 416.295 308.451 416.295ZM328.628 424.158L325.061 424.771C324.984 424.32 324.827 423.893 324.588 423.493C324.358 423.092 324.004 422.768 323.527 422.521C323.05 422.266 322.415 422.138 321.622 422.138C320.523 422.138 319.56 422.389 318.733 422.892C317.915 423.395 317.446 424.034 317.327 424.81C317.216 425.44 317.365 425.952 317.774 426.344C318.183 426.727 318.903 427.047 319.935 427.303L322.952 428.018C324.69 428.436 325.935 429.088 326.685 429.974C327.443 430.852 327.707 431.994 327.477 433.401C327.281 434.568 326.77 435.604 325.943 436.507C325.125 437.411 324.077 438.118 322.798 438.629C321.52 439.141 320.097 439.396 318.528 439.396C316.295 439.396 314.557 438.923 313.312 437.977C312.068 437.031 311.429 435.693 311.395 433.963L315.179 433.401C315.247 434.364 315.592 435.092 316.214 435.587C316.845 436.072 317.719 436.315 318.835 436.315C320.114 436.324 321.183 436.055 322.044 435.51C322.905 434.964 323.395 434.304 323.514 433.528C323.616 432.923 323.48 432.42 323.105 432.02C322.739 431.619 322.091 431.312 321.162 431.099L317.991 430.371C316.219 429.953 314.966 429.28 314.233 428.351C313.5 427.422 313.253 426.254 313.491 424.848C313.679 423.697 314.165 422.696 314.949 421.844C315.741 420.983 316.743 420.314 317.953 419.837C319.163 419.351 320.501 419.108 321.967 419.108C324.107 419.108 325.713 419.568 326.787 420.489C327.861 421.401 328.474 422.624 328.628 424.158ZM329.52 446.364L334.045 419.364H337.778L337.254 422.547H337.574C337.863 422.138 338.255 421.665 338.75 421.128C339.252 420.591 339.913 420.122 340.731 419.722C341.549 419.312 342.568 419.108 343.787 419.108C345.372 419.108 346.714 419.509 347.814 420.31C348.913 421.111 349.697 422.266 350.166 423.774C350.635 425.283 350.694 427.098 350.345 429.22C349.995 431.342 349.339 433.162 348.376 434.679C347.413 436.187 346.245 437.351 344.873 438.169C343.51 438.979 342.031 439.384 340.437 439.384C339.244 439.384 338.302 439.183 337.612 438.783C336.93 438.382 336.423 437.913 336.091 437.376C335.758 436.839 335.507 436.362 335.336 435.945H335.106L333.368 446.364H329.52ZM336.154 429.182C335.933 430.562 335.933 431.773 336.154 432.812C336.376 433.852 336.819 434.666 337.484 435.254C338.157 435.834 339.044 436.124 340.143 436.124C341.285 436.124 342.287 435.821 343.147 435.216C344.008 434.602 344.72 433.771 345.282 432.723C345.853 431.675 346.25 430.494 346.471 429.182C346.684 427.886 346.68 426.723 346.458 425.692C346.245 424.661 345.806 423.847 345.142 423.25C344.477 422.653 343.569 422.355 342.419 422.355C341.302 422.355 340.314 422.641 339.453 423.212C338.6 423.783 337.893 424.58 337.331 425.602C336.768 426.625 336.376 427.818 336.154 429.182ZM366.782 430.857L368.7 419.364H372.535L369.262 439H365.504L366.079 435.599H365.874C365.261 436.648 364.391 437.521 363.266 438.22C362.15 438.911 360.854 439.256 359.38 439.256C358.119 439.256 357.049 438.979 356.171 438.425C355.302 437.862 354.684 437.031 354.317 435.932C353.951 434.832 353.9 433.473 354.164 431.854L356.261 419.364H360.083L358.076 431.393C357.863 432.732 358.063 433.797 358.677 434.589C359.29 435.382 360.185 435.778 361.362 435.778C362.077 435.778 362.819 435.599 363.586 435.241C364.353 434.884 365.031 434.342 365.619 433.618C366.215 432.893 366.603 431.973 366.782 430.857ZM386.837 419.364L386.338 422.432H375.613L376.111 419.364H386.837ZM379.755 414.659H383.577L380.483 433.234C380.364 433.976 380.385 434.534 380.547 434.909C380.709 435.276 380.956 435.527 381.289 435.663C381.63 435.791 382.009 435.855 382.426 435.855C382.733 435.855 383.002 435.834 383.232 435.791C383.462 435.749 383.645 435.714 383.782 435.689L383.986 438.847C383.73 438.932 383.385 439.017 382.951 439.102C382.525 439.196 382.005 439.247 381.391 439.256C380.385 439.273 379.478 439.094 378.668 438.719C377.858 438.335 377.253 437.756 376.853 436.98C376.452 436.196 376.354 435.212 376.559 434.027L379.755 414.659ZM395.994 439.396C394.067 439.396 392.474 438.983 391.212 438.156C389.96 437.321 389.082 436.149 388.579 434.641C388.076 433.124 387.995 431.347 388.336 429.31C388.668 427.298 389.337 425.526 390.343 423.991C391.349 422.457 392.602 421.26 394.102 420.399C395.61 419.538 397.276 419.108 399.1 419.108C400.208 419.108 401.252 419.291 402.232 419.658C403.221 420.024 404.06 420.599 404.751 421.384C405.441 422.168 405.918 423.186 406.183 424.439C406.455 425.683 406.447 427.196 406.157 428.977L405.94 430.332H390.317L390.765 427.469H402.629C402.808 426.463 402.761 425.572 402.488 424.797C402.215 424.013 401.746 423.395 401.082 422.943C400.425 422.491 399.599 422.266 398.602 422.266C397.579 422.266 396.624 422.534 395.738 423.071C394.852 423.608 394.11 424.294 393.513 425.129C392.925 425.956 392.555 426.808 392.401 427.686L391.954 430.307C391.732 431.739 391.771 432.889 392.069 433.759C392.376 434.628 392.913 435.259 393.68 435.651C394.447 436.043 395.406 436.239 396.556 436.239C397.298 436.239 397.984 436.136 398.614 435.932C399.254 435.719 399.82 435.408 400.315 434.999C400.809 434.581 401.222 434.061 401.555 433.439L405.058 434.091C404.589 435.156 403.915 436.089 403.038 436.891C402.16 437.683 401.124 438.301 399.931 438.744C398.746 439.179 397.434 439.396 395.994 439.396ZM411.619 439.243C410.903 439.243 410.306 438.996 409.829 438.501C409.36 438.007 409.13 437.402 409.139 436.686C409.147 435.979 409.412 435.386 409.931 434.909C410.46 434.423 411.074 434.18 411.772 434.18C412.471 434.18 413.068 434.428 413.562 434.922C414.056 435.416 414.287 436.004 414.252 436.686C414.227 437.163 414.091 437.598 413.843 437.99C413.605 438.374 413.289 438.68 412.897 438.911C412.505 439.132 412.079 439.243 411.619 439.243ZM293.957 556.247L293.408 559.571H281.787L282.337 556.247H293.957ZM317.576 553.089C317.465 552.314 317.269 551.619 316.988 551.006C316.715 550.384 316.344 549.855 315.876 549.42C315.407 548.986 314.844 548.653 314.188 548.423C313.532 548.185 312.769 548.065 311.9 548.065C310.417 548.065 308.998 548.445 307.643 549.203C306.296 549.962 305.137 551.074 304.165 552.54C303.194 553.997 302.533 555.783 302.184 557.896C301.826 560.018 301.852 561.812 302.261 563.278C302.67 564.744 303.394 565.857 304.434 566.615C305.474 567.374 306.761 567.753 308.295 567.753C309.718 567.753 311.026 567.463 312.219 566.884C313.413 566.304 314.406 565.486 315.198 564.429C315.999 563.364 316.515 562.111 316.745 560.67L317.729 560.862H310.238L310.8 557.602H321.104L320.58 560.581C320.231 562.788 319.455 564.702 318.254 566.321C317.052 567.932 315.556 569.176 313.766 570.054C311.985 570.923 310.033 571.358 307.911 571.358C305.542 571.358 303.556 570.812 301.954 569.722C300.352 568.631 299.218 567.084 298.553 565.081C297.897 563.07 297.799 560.683 298.259 557.922C298.592 555.834 299.184 553.959 300.036 552.297C300.897 550.635 301.95 549.224 303.194 548.065C304.438 546.898 305.823 546.007 307.349 545.393C308.883 544.771 310.494 544.46 312.181 544.46C313.596 544.46 314.879 544.669 316.029 545.087C317.188 545.504 318.185 546.097 319.021 546.864C319.856 547.631 320.499 548.543 320.951 549.599C321.403 550.648 321.629 551.811 321.629 553.089H317.576ZM331.974 571.396C330.048 571.396 328.454 570.983 327.193 570.156C325.94 569.321 325.062 568.149 324.559 566.641C324.056 565.124 323.975 563.347 324.316 561.31C324.649 559.298 325.318 557.526 326.324 555.991C327.329 554.457 328.582 553.26 330.082 552.399C331.591 551.538 333.257 551.108 335.081 551.108C336.189 551.108 337.233 551.291 338.213 551.658C339.201 552.024 340.041 552.599 340.731 553.384C341.422 554.168 341.899 555.186 342.163 556.439C342.436 557.683 342.427 559.196 342.137 560.977L341.92 562.332H326.298L326.745 559.469H338.609C338.788 558.463 338.741 557.572 338.468 556.797C338.196 556.013 337.727 555.395 337.062 554.943C336.406 554.491 335.579 554.266 334.582 554.266C333.559 554.266 332.605 554.534 331.718 555.071C330.832 555.608 330.091 556.294 329.494 557.129C328.906 557.956 328.535 558.808 328.382 559.686L327.934 562.307C327.713 563.739 327.751 564.889 328.049 565.759C328.356 566.628 328.893 567.259 329.66 567.651C330.427 568.043 331.386 568.239 332.537 568.239C333.278 568.239 333.964 568.136 334.595 567.932C335.234 567.719 335.801 567.408 336.295 566.999C336.789 566.581 337.203 566.061 337.535 565.439L341.038 566.091C340.569 567.156 339.896 568.089 339.018 568.891C338.14 569.683 337.105 570.301 335.912 570.744C334.727 571.179 333.414 571.396 331.974 571.396ZM353.122 571.396C351.256 571.396 349.696 570.97 348.443 570.118C347.19 569.257 346.308 568.055 345.797 566.513C345.294 564.962 345.209 563.159 345.541 561.105C345.865 559.094 346.517 557.338 347.497 555.838C348.486 554.338 349.722 553.175 351.205 552.348C352.696 551.521 354.354 551.108 356.178 551.108C358.044 551.108 359.599 551.538 360.844 552.399C362.097 553.26 362.979 554.466 363.49 556.017C364.001 557.568 364.091 559.375 363.759 561.438C363.435 563.432 362.774 565.179 361.777 566.679C360.788 568.17 359.553 569.33 358.07 570.156C356.587 570.983 354.938 571.396 353.122 571.396ZM353.339 568.188C354.567 568.188 355.636 567.864 356.548 567.216C357.469 566.568 358.219 565.707 358.798 564.634C359.378 563.56 359.774 562.384 359.987 561.105C360.183 559.869 360.179 558.74 359.974 557.717C359.778 556.686 359.352 555.859 358.696 555.237C358.04 554.615 357.128 554.304 355.96 554.304C354.733 554.304 353.655 554.632 352.726 555.288C351.805 555.936 351.055 556.801 350.476 557.884C349.905 558.966 349.517 560.146 349.312 561.425C349.116 562.652 349.116 563.781 349.312 564.812C349.509 565.835 349.935 566.653 350.591 567.267C351.247 567.881 352.163 568.188 353.339 568.188ZM366.453 571L369.725 551.364H373.42L372.896 554.483H373.1C373.629 553.426 374.4 552.595 375.414 551.99C376.429 551.376 377.511 551.07 378.662 551.07C378.909 551.07 379.19 551.078 379.505 551.095C379.821 551.104 380.076 551.125 380.272 551.159L379.659 554.815C379.514 554.773 379.25 554.726 378.866 554.675C378.483 554.615 378.086 554.585 377.677 554.585C376.782 554.585 375.951 554.777 375.184 555.161C374.417 555.536 373.774 556.06 373.254 556.733C372.734 557.398 372.397 558.156 372.244 559.009L370.275 571H366.453ZM386.642 578.773C385.074 578.773 383.761 578.568 382.705 578.159C381.656 577.75 380.83 577.209 380.224 576.536C379.628 575.862 379.214 575.125 378.984 574.324L382.513 572.969C382.683 573.344 382.922 573.74 383.229 574.158C383.536 574.584 383.991 574.946 384.597 575.244C385.21 575.543 386.05 575.692 387.115 575.692C388.564 575.692 389.83 575.338 390.912 574.631C391.994 573.932 392.663 572.815 392.919 571.281L393.52 567.42H393.277C392.987 567.838 392.587 568.303 392.075 568.814C391.564 569.325 390.903 569.768 390.094 570.143C389.284 570.518 388.278 570.706 387.077 570.706C385.526 570.706 384.188 570.344 383.062 569.619C381.946 568.886 381.145 567.808 380.659 566.385C380.173 564.953 380.105 563.193 380.455 561.105C380.795 559.017 381.443 557.227 382.398 555.736C383.361 554.244 384.528 553.102 385.901 552.31C387.281 551.509 388.76 551.108 390.337 551.108C391.555 551.108 392.506 551.312 393.188 551.722C393.878 552.122 394.389 552.591 394.722 553.128C395.054 553.665 395.297 554.138 395.45 554.547H395.732L396.256 551.364H400.001L396.678 571.435C396.405 573.122 395.787 574.507 394.824 575.589C393.869 576.672 392.68 577.473 391.257 577.993C389.842 578.513 388.304 578.773 386.642 578.773ZM388.381 567.536C389.472 567.536 390.443 567.28 391.295 566.768C392.156 566.249 392.872 565.507 393.443 564.544C394.014 563.572 394.411 562.409 394.632 561.054C394.854 559.733 394.841 558.57 394.594 557.564C394.355 556.558 393.891 555.774 393.2 555.212C392.518 554.641 391.628 554.355 390.528 554.355C389.369 554.355 388.364 554.653 387.511 555.25C386.659 555.838 385.964 556.639 385.428 557.653C384.899 558.668 384.528 559.801 384.315 561.054C384.111 562.341 384.115 563.47 384.328 564.442C384.55 565.413 384.993 566.172 385.658 566.717C386.322 567.263 387.23 567.536 388.381 567.536ZM410.267 571.396C408.341 571.396 406.747 570.983 405.486 570.156C404.233 569.321 403.355 568.149 402.852 566.641C402.349 565.124 402.268 563.347 402.609 561.31C402.942 559.298 403.611 557.526 404.616 555.991C405.622 554.457 406.875 553.26 408.375 552.399C409.884 551.538 411.55 551.108 413.374 551.108C414.482 551.108 415.526 551.291 416.506 551.658C417.494 552.024 418.334 552.599 419.024 553.384C419.714 554.168 420.192 555.186 420.456 556.439C420.729 557.683 420.72 559.196 420.43 560.977L420.213 562.332H404.591L405.038 559.469H416.902C417.081 558.463 417.034 557.572 416.761 556.797C416.489 556.013 416.02 555.395 415.355 554.943C414.699 554.491 413.872 554.266 412.875 554.266C411.852 554.266 410.898 554.534 410.011 555.071C409.125 555.608 408.384 556.294 407.787 557.129C407.199 557.956 406.828 558.808 406.675 559.686L406.227 562.307C406.006 563.739 406.044 564.889 406.342 565.759C406.649 566.628 407.186 567.259 407.953 567.651C408.72 568.043 409.679 568.239 410.83 568.239C411.571 568.239 412.257 568.136 412.888 567.932C413.527 567.719 414.094 567.408 414.588 566.999C415.082 566.581 415.496 566.061 415.828 565.439L419.331 566.091C418.862 567.156 418.189 568.089 417.311 568.891C416.433 569.683 415.398 570.301 414.205 570.744C413.02 571.179 411.707 571.396 410.267 571.396ZM432.888 571L437.235 544.818H441.185L437.401 567.599H449.265L448.702 571H432.888ZM466.696 562.857L468.614 551.364H472.449L469.176 571H465.418L465.993 567.599H465.788C465.175 568.648 464.305 569.521 463.18 570.22C462.064 570.911 460.768 571.256 459.294 571.256C458.033 571.256 456.963 570.979 456.085 570.425C455.216 569.862 454.598 569.031 454.232 567.932C453.865 566.832 453.814 565.473 454.078 563.854L456.175 551.364H459.997L457.99 563.393C457.777 564.732 457.977 565.797 458.591 566.589C459.205 567.382 460.099 567.778 461.276 567.778C461.991 567.778 462.733 567.599 463.5 567.241C464.267 566.884 464.945 566.342 465.533 565.618C466.129 564.893 466.517 563.973 466.696 562.857ZM482.532 571.396C480.623 571.396 479.059 570.966 477.841 570.105C476.622 569.236 475.774 568.038 475.297 566.513C474.819 564.987 474.743 563.24 475.066 561.271C475.39 559.277 476.051 557.517 477.048 555.991C478.054 554.457 479.311 553.26 480.819 552.399C482.336 551.538 484.02 551.108 485.869 551.108C487.36 551.108 488.643 551.385 489.717 551.939C490.791 552.484 491.605 553.251 492.159 554.24C492.713 555.229 492.951 556.384 492.875 557.705H489.154C489.095 556.784 488.754 555.991 488.132 555.327C487.51 554.662 486.593 554.33 485.383 554.33C484.318 554.33 483.338 554.611 482.443 555.173C481.548 555.727 480.794 556.52 480.18 557.551C479.566 558.574 479.149 559.784 478.927 561.182C478.689 562.614 478.701 563.849 478.966 564.889C479.23 565.929 479.716 566.734 480.423 567.305C481.13 567.876 482.021 568.162 483.095 568.162C483.828 568.162 484.51 568.03 485.14 567.766C485.779 567.493 486.342 567.105 486.828 566.602C487.322 566.099 487.706 565.494 487.978 564.787H491.711C491.345 566.057 490.731 567.19 489.87 568.188C489.018 569.185 487.97 569.969 486.725 570.54C485.481 571.111 484.083 571.396 482.532 571.396ZM500.401 571.435C499.157 571.435 498.07 571.205 497.141 570.744C496.212 570.276 495.526 569.598 495.083 568.712C494.64 567.825 494.525 566.739 494.738 565.452C494.925 564.344 495.292 563.432 495.837 562.716C496.391 562 497.065 561.433 497.857 561.016C498.65 560.589 499.511 560.27 500.44 560.057C501.369 559.844 502.306 559.686 503.252 559.584C504.445 559.447 505.413 559.332 506.154 559.239C506.904 559.145 507.467 559 507.842 558.804C508.217 558.599 508.442 558.267 508.519 557.807V557.717C508.698 556.609 508.536 555.749 508.033 555.135C507.539 554.513 506.678 554.202 505.451 554.202C504.173 554.202 503.099 554.483 502.229 555.045C501.369 555.608 500.734 556.239 500.325 556.938L496.898 556.119C497.512 554.926 498.292 553.963 499.238 553.23C500.192 552.489 501.237 551.952 502.37 551.619C503.504 551.278 504.663 551.108 505.847 551.108C506.631 551.108 507.445 551.202 508.289 551.389C509.133 551.568 509.9 551.901 510.59 552.386C511.289 552.872 511.809 553.567 512.15 554.47C512.491 555.365 512.542 556.528 512.303 557.96L510.143 571H506.41L506.87 568.315H506.717C506.393 568.81 505.941 569.295 505.362 569.773C504.79 570.25 504.092 570.646 503.265 570.962C502.438 571.277 501.484 571.435 500.401 571.435ZM501.705 568.366C502.771 568.366 503.712 568.158 504.531 567.74C505.357 567.322 506.026 566.777 506.538 566.104C507.049 565.422 507.369 564.693 507.496 563.918L507.918 561.386C507.756 561.523 507.471 561.646 507.062 561.757C506.661 561.868 506.21 561.966 505.707 562.051C505.204 562.136 504.71 562.209 504.224 562.268C503.746 562.328 503.35 562.384 503.035 562.435C502.285 562.528 501.582 562.686 500.925 562.908C500.278 563.129 499.737 563.449 499.302 563.866C498.867 564.276 498.594 564.821 498.484 565.503C498.33 566.449 498.556 567.165 499.161 567.651C499.775 568.128 500.623 568.366 501.705 568.366ZM532.429 556.158L528.862 556.771C528.785 556.32 528.627 555.893 528.389 555.493C528.159 555.092 527.805 554.768 527.328 554.521C526.85 554.266 526.216 554.138 525.423 554.138C524.324 554.138 523.36 554.389 522.534 554.892C521.716 555.395 521.247 556.034 521.127 556.81C521.017 557.44 521.166 557.952 521.575 558.344C521.984 558.727 522.704 559.047 523.735 559.303L526.752 560.018C528.491 560.436 529.735 561.088 530.485 561.974C531.244 562.852 531.508 563.994 531.278 565.401C531.082 566.568 530.571 567.604 529.744 568.507C528.926 569.411 527.877 570.118 526.599 570.629C525.321 571.141 523.897 571.396 522.329 571.396C520.096 571.396 518.358 570.923 517.113 569.977C515.869 569.031 515.23 567.693 515.196 565.963L518.98 565.401C519.048 566.364 519.393 567.092 520.015 567.587C520.646 568.072 521.52 568.315 522.636 568.315C523.914 568.324 524.984 568.055 525.845 567.51C526.706 566.964 527.196 566.304 527.315 565.528C527.417 564.923 527.281 564.42 526.906 564.02C526.539 563.619 525.892 563.312 524.963 563.099L521.792 562.371C520.02 561.953 518.767 561.28 518.034 560.351C517.301 559.422 517.054 558.254 517.292 556.848C517.48 555.697 517.966 554.696 518.75 553.844C519.542 552.983 520.544 552.314 521.754 551.837C522.964 551.351 524.302 551.108 525.768 551.108C527.907 551.108 529.514 551.568 530.588 552.489C531.662 553.401 532.275 554.624 532.429 556.158Z" fill="black"/>
</svg>
