<svg width="777" height="723" viewBox="0 0 777 723" fill="none" xmlns="http://www.w3.org/2000/svg">
<path d="M690.289 370.705C690.338 335.123 675.382 300.22 647.064 269.824C618.745 239.429 578.159 214.716 529.756 198.396C481.352 182.076 427.003 174.781 372.67 177.309C318.337 179.838 266.12 192.093 221.747 212.73C177.374 233.368 142.56 261.59 121.124 294.301C99.6887 327.012 92.4599 362.947 100.23 398.164C108 433.382 130.47 466.522 165.173 493.948C199.877 521.373 245.474 542.025 296.962 553.637V698.617H490.542V553.637C548.826 540.502 599.39 515.822 635.192 483.033C670.994 450.245 690.254 410.98 690.289 370.705Z" fill="white" stroke="#004170" stroke-width="52.4289" stroke-linecap="round" stroke-linejoin="round"/>
<path d="M524.164 608.247H266.352V673.979H524.164V608.247Z" fill="#D1D3D4" stroke="#004170" stroke-width="52.4289" stroke-linecap="round" stroke-linejoin="round"/>
<path d="M393.761 23V68.1675" stroke="#004170" stroke-width="52.4289" stroke-linecap="round" stroke-linejoin="round"/>
<path d="M749.95 112.317L706.084 147.238" stroke="#004170" stroke-width="52.4289" stroke-linecap="round" stroke-linejoin="round"/>
<path d="M27 112.317L70.8662 147.238" stroke="#004170" stroke-width="52.4289" stroke-linecap="round" stroke-linejoin="round"/>
</svg>
