<svg width="1048" height="723" viewBox="0 0 1048 723" fill="none" xmlns="http://www.w3.org/2000/svg">
<g clip-path="url(#clip0_1_2)">
<path d="M826.289 370.705C826.338 335.123 811.382 300.22 783.064 269.824C754.745 239.429 714.159 214.716 665.756 198.396C617.352 182.076 563.003 174.781 508.67 177.309C454.337 179.838 402.12 192.093 357.747 212.73C313.374 233.368 278.56 261.59 257.124 294.301C235.689 327.012 228.46 362.947 236.23 398.164C244 433.382 266.47 466.522 301.173 493.948C335.877 521.373 381.474 542.025 432.962 553.637V698.617H626.542V553.637C684.826 540.502 735.39 515.822 771.192 483.033C806.994 450.245 826.254 410.98 826.289 370.705Z" fill="white" stroke="#004170" stroke-width="52.4289" stroke-linecap="round" stroke-linejoin="round"/>
<path d="M660.164 608.247H402.352V673.979H660.164V608.247Z" stroke="#004170" stroke-width="52.4289" stroke-linecap="round" stroke-linejoin="round"/>
<path d="M529.761 23V68.1675" stroke="#004170" stroke-width="52.4289" stroke-linecap="round" stroke-linejoin="round"/>
<path d="M885.95 112.317L842.084 147.238" stroke="#004170" stroke-width="52.4289" stroke-linecap="round" stroke-linejoin="round"/>
<path d="M163 112.317L206.866 147.238" stroke="#004170" stroke-width="52.4289" stroke-linecap="round" stroke-linejoin="round"/>
<ellipse cx="526.5" cy="365" rx="277.5" ry="172" fill="#D9D9D9"/>
<rect x="457" y="511" width="148" height="73" fill="#D9D9D9"/>
<path d="M268.234 331L268.682 328.392C268.818 327.642 269.095 326.862 269.513 326.053C269.93 325.234 270.446 324.463 271.06 323.739C271.673 323.006 272.338 322.388 273.054 321.885L274.946 323.278C274.341 324.037 273.8 324.83 273.322 325.656C272.845 326.474 272.526 327.378 272.364 328.366L271.916 331H268.234ZM274.716 331L275.163 328.392C275.3 327.642 275.577 326.862 275.994 326.053C276.412 325.234 276.928 324.463 277.541 323.739C278.155 323.006 278.82 322.388 279.536 321.885L281.428 323.278C280.822 324.037 280.281 324.83 279.804 325.656C279.327 326.474 279.007 327.378 278.845 328.366L278.398 331H274.716ZM280.523 349H275.461L289.025 322.818H294.88L299.763 349H294.701L291.185 328.188H290.98L280.523 349ZM282.39 338.734H296.196L295.557 342.544H281.75L282.39 338.734ZM320.911 322.818L316.565 349H311.937L316.283 322.818H320.911ZM329.94 349.384C328.005 349.384 326.395 348.957 325.108 348.105C323.829 347.253 322.93 346.055 322.41 344.513C321.89 342.97 321.797 341.18 322.129 339.143C322.461 337.132 323.126 335.372 324.123 333.864C325.129 332.355 326.395 331.187 327.92 330.361C329.454 329.526 331.172 329.108 333.072 329.108C335.007 329.108 336.613 329.538 337.892 330.399C339.17 331.251 340.069 332.449 340.589 333.991C341.118 335.534 341.216 337.332 340.883 339.386C340.559 341.389 339.89 343.141 338.876 344.641C337.87 346.141 336.605 347.308 335.079 348.143C333.554 348.97 331.841 349.384 329.94 349.384ZM330.324 345.676C331.397 345.676 332.339 345.386 333.149 344.807C333.967 344.219 334.636 343.43 335.156 342.442C335.684 341.445 336.051 340.337 336.255 339.118C336.443 337.942 336.447 336.876 336.268 335.922C336.089 334.959 335.706 334.196 335.118 333.634C334.538 333.062 333.733 332.777 332.701 332.777C331.627 332.777 330.677 333.075 329.85 333.672C329.032 334.26 328.363 335.053 327.843 336.05C327.324 337.038 326.966 338.142 326.77 339.361C326.574 340.537 326.565 341.602 326.744 342.557C326.923 343.511 327.306 344.27 327.895 344.832C328.483 345.395 329.292 345.676 330.324 345.676ZM349.771 337.494L347.879 349H343.239L346.511 329.364H350.947L350.385 332.7H350.628C351.241 331.601 352.102 330.727 353.21 330.08C354.318 329.432 355.609 329.108 357.084 329.108C358.422 329.108 359.547 329.398 360.459 329.977C361.371 330.548 362.018 331.388 362.402 332.496C362.786 333.595 362.845 334.929 362.581 336.497L360.484 349H355.857L357.812 337.213C358.034 335.909 357.868 334.886 357.314 334.145C356.768 333.395 355.891 333.02 354.68 333.02C353.871 333.02 353.125 333.199 352.443 333.557C351.761 333.906 351.186 334.413 350.717 335.078C350.257 335.743 349.942 336.548 349.771 337.494ZM372.476 356.773C370.805 356.773 369.412 356.547 368.295 356.095C367.179 355.652 366.318 355.055 365.713 354.305C365.108 353.555 364.733 352.724 364.588 351.812L368.935 350.803C369.063 351.186 369.267 351.565 369.548 351.94C369.838 352.324 370.264 352.639 370.827 352.886C371.389 353.142 372.139 353.27 373.077 353.27C374.389 353.27 375.536 352.95 376.516 352.311C377.496 351.672 378.101 350.632 378.331 349.192L378.919 345.472H378.689C378.382 345.949 377.96 346.439 377.423 346.942C376.895 347.445 376.226 347.866 375.416 348.207C374.615 348.548 373.652 348.719 372.527 348.719C371.018 348.719 369.71 348.365 368.602 347.658C367.494 346.942 366.697 345.876 366.212 344.462C365.734 343.038 365.675 341.257 366.033 339.118C366.382 336.962 367.038 335.142 368.001 333.659C368.973 332.168 370.136 331.038 371.491 330.271C372.847 329.496 374.278 329.108 375.787 329.108C376.938 329.108 377.854 329.304 378.536 329.696C379.217 330.08 379.733 330.544 380.082 331.089C380.432 331.626 380.688 332.134 380.849 332.611H381.092L381.629 329.364H386.193L382.895 349.32C382.622 350.999 381.996 352.388 381.016 353.487C380.036 354.595 378.804 355.418 377.321 355.955C375.847 356.5 374.232 356.773 372.476 356.773ZM374.368 345.088C375.348 345.088 376.226 344.849 377.001 344.372C377.777 343.895 378.425 343.209 378.945 342.314C379.464 341.419 379.827 340.345 380.031 339.092C380.236 337.857 380.227 336.774 380.006 335.845C379.793 334.916 379.379 334.196 378.766 333.685C378.152 333.165 377.351 332.905 376.362 332.905C375.331 332.905 374.428 333.173 373.652 333.71C372.885 334.247 372.254 334.984 371.76 335.922C371.274 336.851 370.933 337.908 370.737 339.092C370.55 340.294 370.55 341.347 370.737 342.25C370.933 343.145 371.33 343.844 371.926 344.347C372.531 344.841 373.345 345.088 374.368 345.088ZM409.671 329.364L409.07 332.943H397.795L398.383 329.364H409.671ZM401.937 324.659H406.565L403.496 343.094C403.403 343.716 403.42 344.193 403.548 344.526C403.684 344.849 403.901 345.071 404.2 345.19C404.506 345.31 404.852 345.369 405.235 345.369C405.516 345.369 405.781 345.348 406.028 345.305C406.275 345.254 406.471 345.216 406.616 345.19L406.82 348.808C406.539 348.893 406.16 348.987 405.683 349.089C405.214 349.192 404.651 349.251 403.995 349.268C402.819 349.294 401.796 349.115 400.927 348.732C400.066 348.339 399.435 347.739 399.035 346.929C398.643 346.111 398.553 345.088 398.766 343.861L401.937 324.659ZM410.269 349L413.542 329.364H418.169L414.897 349H410.269ZM416.533 326.551C415.792 326.551 415.178 326.304 414.692 325.81C414.206 325.315 413.993 324.723 414.053 324.033C414.113 323.342 414.424 322.75 414.986 322.256C415.557 321.761 416.209 321.514 416.942 321.514C417.684 321.514 418.293 321.761 418.77 322.256C419.256 322.75 419.469 323.342 419.409 324.033C419.358 324.723 419.047 325.315 418.476 325.81C417.914 326.304 417.266 326.551 416.533 326.551ZM419.668 349L422.941 329.364H427.377L426.815 332.7H427.058C427.654 331.575 428.477 330.697 429.525 330.067C430.573 329.428 431.754 329.108 433.066 329.108C434.387 329.108 435.452 329.432 436.262 330.08C437.08 330.719 437.583 331.592 437.771 332.7H437.975C438.589 331.601 439.467 330.727 440.609 330.08C441.759 329.432 443.05 329.108 444.482 329.108C446.272 329.108 447.644 329.679 448.599 330.821C449.553 331.963 449.847 333.629 449.481 335.82L447.282 349H442.654L444.751 336.536C444.938 335.317 444.751 334.426 444.188 333.864C443.634 333.293 442.888 333.007 441.951 333.007C440.835 333.007 439.906 333.352 439.164 334.043C438.431 334.733 437.979 335.636 437.809 336.753L435.751 349H431.212L433.335 336.344C433.488 335.33 433.309 334.52 432.798 333.915C432.295 333.31 431.553 333.007 430.573 333.007C429.908 333.007 429.273 333.178 428.668 333.518C428.063 333.859 427.548 334.337 427.121 334.95C426.704 335.555 426.431 336.259 426.303 337.06L424.309 349H419.668ZM460.606 349.384C458.637 349.384 457.01 348.974 455.723 348.156C454.436 347.33 453.532 346.162 453.012 344.653C452.501 343.136 452.416 341.351 452.757 339.297C453.089 337.277 453.767 335.504 454.789 333.979C455.812 332.445 457.091 331.251 458.625 330.399C460.167 329.538 461.872 329.108 463.738 329.108C464.949 329.108 466.061 329.304 467.075 329.696C468.089 330.08 468.946 330.676 469.645 331.486C470.343 332.295 470.825 333.327 471.089 334.58C471.353 335.824 471.341 337.307 471.051 339.028L470.833 340.447H454.725L455.224 337.328H466.883C467.037 336.442 466.985 335.653 466.73 334.963C466.474 334.264 466.048 333.714 465.451 333.314C464.855 332.913 464.109 332.713 463.214 332.713C462.302 332.713 461.45 332.947 460.657 333.416C459.873 333.876 459.213 334.473 458.676 335.206C458.139 335.939 457.798 336.71 457.653 337.52L457.129 340.511C456.941 341.739 456.984 342.74 457.257 343.516C457.529 344.291 458.007 344.862 458.689 345.229C459.37 345.595 460.231 345.778 461.271 345.778C461.953 345.778 462.583 345.685 463.163 345.497C463.743 345.31 464.258 345.028 464.71 344.653C465.17 344.27 465.554 343.801 465.86 343.247L470.092 343.733C469.623 344.875 468.937 345.872 468.034 346.724C467.13 347.568 466.048 348.224 464.787 348.693C463.534 349.153 462.14 349.384 460.606 349.384ZM487.868 349.396C486.624 349.396 485.542 349.175 484.621 348.732C483.701 348.28 483.023 347.615 482.588 346.737C482.162 345.859 482.056 344.777 482.269 343.49C482.456 342.382 482.814 341.466 483.343 340.741C483.88 340.017 484.536 339.438 485.311 339.003C486.096 338.56 486.948 338.227 487.868 338.006C488.797 337.784 489.743 337.622 490.706 337.52C491.882 337.401 492.833 337.29 493.557 337.188C494.29 337.085 494.84 336.932 495.206 336.727C495.573 336.514 495.794 336.19 495.871 335.756V335.679C496.025 334.716 495.871 333.97 495.411 333.442C494.951 332.913 494.184 332.649 493.11 332.649C491.985 332.649 491.039 332.896 490.272 333.391C489.505 333.885 488.946 334.469 488.597 335.142L484.404 334.528C484.932 333.335 485.657 332.338 486.577 331.537C487.498 330.727 488.559 330.122 489.76 329.722C490.971 329.312 492.262 329.108 493.634 329.108C494.571 329.108 495.488 329.219 496.382 329.44C497.286 329.662 498.083 330.028 498.773 330.54C499.472 331.043 499.983 331.729 500.307 332.598C500.64 333.467 500.695 334.554 500.473 335.858L498.287 349H493.838L494.299 346.303H494.145C493.779 346.848 493.301 347.359 492.713 347.837C492.125 348.305 491.426 348.685 490.617 348.974C489.807 349.256 488.891 349.396 487.868 349.396ZM489.62 345.996C490.549 345.996 491.384 345.812 492.125 345.446C492.867 345.071 493.476 344.577 493.953 343.963C494.431 343.349 494.729 342.68 494.848 341.956L495.232 339.642C495.061 339.761 494.797 339.872 494.439 339.974C494.081 340.077 493.681 340.166 493.238 340.243C492.803 340.32 492.373 340.388 491.946 340.447C491.52 340.507 491.154 340.558 490.847 340.601C490.14 340.695 489.492 340.848 488.904 341.061C488.324 341.274 487.843 341.572 487.459 341.956C487.084 342.331 486.85 342.817 486.756 343.413C486.62 344.257 486.82 344.901 487.357 345.344C487.894 345.778 488.648 345.996 489.62 345.996ZM510.253 356.773C508.583 356.773 507.189 356.547 506.073 356.095C504.956 355.652 504.096 355.055 503.49 354.305C502.885 353.555 502.51 352.724 502.365 351.812L506.712 350.803C506.84 351.186 507.044 351.565 507.326 351.94C507.615 352.324 508.042 352.639 508.604 352.886C509.167 353.142 509.917 353.27 510.854 353.27C512.167 353.27 513.313 352.95 514.293 352.311C515.273 351.672 515.878 350.632 516.108 349.192L516.696 345.472H516.466C516.159 345.949 515.738 346.439 515.201 346.942C514.672 347.445 514.003 347.866 513.194 348.207C512.392 348.548 511.429 348.719 510.304 348.719C508.796 348.719 507.488 348.365 506.38 347.658C505.272 346.942 504.475 345.876 503.989 344.462C503.512 343.038 503.452 341.257 503.81 339.118C504.159 336.962 504.816 335.142 505.779 333.659C506.75 332.168 507.914 331.038 509.269 330.271C510.624 329.496 512.056 329.108 513.564 329.108C514.715 329.108 515.631 329.304 516.313 329.696C516.995 330.08 517.51 330.544 517.86 331.089C518.209 331.626 518.465 332.134 518.627 332.611H518.87L519.407 329.364H523.971L520.672 349.32C520.4 350.999 519.773 352.388 518.793 353.487C517.813 354.595 516.581 355.418 515.098 355.955C513.624 356.5 512.009 356.773 510.253 356.773ZM512.145 345.088C513.125 345.088 514.003 344.849 514.779 344.372C515.554 343.895 516.202 343.209 516.722 342.314C517.242 341.419 517.604 340.345 517.809 339.092C518.013 337.857 518.005 336.774 517.783 335.845C517.57 334.916 517.157 334.196 516.543 333.685C515.929 333.165 515.128 332.905 514.14 332.905C513.108 332.905 512.205 333.173 511.429 333.71C510.662 334.247 510.032 334.984 509.537 335.922C509.051 336.851 508.711 337.908 508.515 339.092C508.327 340.294 508.327 341.347 508.515 342.25C508.711 343.145 509.107 343.844 509.703 344.347C510.309 344.841 511.123 345.088 512.145 345.088ZM534.057 349.384C532.123 349.384 530.512 348.957 529.225 348.105C527.946 347.253 527.047 346.055 526.527 344.513C526.007 342.97 525.914 341.18 526.246 339.143C526.578 337.132 527.243 335.372 528.24 333.864C529.246 332.355 530.512 331.187 532.037 330.361C533.571 329.526 535.289 329.108 537.189 329.108C539.124 329.108 540.73 329.538 542.009 330.399C543.287 331.251 544.186 332.449 544.706 333.991C545.235 335.534 545.333 337.332 545 339.386C544.676 341.389 544.007 343.141 542.993 344.641C541.988 346.141 540.722 347.308 539.196 348.143C537.671 348.97 535.958 349.384 534.057 349.384ZM534.441 345.676C535.515 345.676 536.456 345.386 537.266 344.807C538.084 344.219 538.753 343.43 539.273 342.442C539.801 341.445 540.168 340.337 540.373 339.118C540.56 337.942 540.564 336.876 540.385 335.922C540.206 334.959 539.823 334.196 539.235 333.634C538.655 333.062 537.85 332.777 536.819 332.777C535.745 332.777 534.794 333.075 533.968 333.672C533.15 334.26 532.48 335.053 531.961 336.05C531.441 337.038 531.083 338.142 530.887 339.361C530.691 340.537 530.682 341.602 530.861 342.557C531.04 343.511 531.424 344.27 532.012 344.832C532.6 345.395 533.409 345.676 534.441 345.676ZM346.109 393L349.381 373.364H354.009L350.737 393H346.109ZM352.373 370.551C351.631 370.551 351.018 370.304 350.532 369.81C350.046 369.315 349.833 368.723 349.893 368.033C349.952 367.342 350.263 366.75 350.826 366.256C351.397 365.761 352.049 365.514 352.782 365.514C353.523 365.514 354.133 365.761 354.61 366.256C355.096 366.75 355.309 367.342 355.249 368.033C355.198 368.723 354.887 369.315 354.316 369.81C353.754 370.304 353.106 370.551 352.373 370.551ZM362.041 381.494L360.149 393H355.508L358.781 373.364H363.217L362.654 376.7H362.897C363.511 375.601 364.372 374.727 365.48 374.08C366.588 373.432 367.879 373.108 369.353 373.108C370.691 373.108 371.816 373.398 372.728 373.977C373.64 374.548 374.288 375.388 374.672 376.496C375.055 377.595 375.115 378.929 374.85 380.497L372.754 393H368.126L370.082 381.213C370.304 379.909 370.137 378.886 369.583 378.145C369.038 377.395 368.16 377.02 366.95 377.02C366.14 377.02 365.395 377.199 364.713 377.557C364.031 377.906 363.456 378.413 362.987 379.078C362.527 379.743 362.211 380.548 362.041 381.494ZM391.962 393.396C390.718 393.396 389.635 393.175 388.715 392.732C387.794 392.28 387.117 391.615 386.682 390.737C386.256 389.859 386.15 388.777 386.363 387.49C386.55 386.382 386.908 385.466 387.436 384.741C387.973 384.017 388.63 383.438 389.405 383.003C390.189 382.56 391.042 382.227 391.962 382.006C392.891 381.784 393.837 381.622 394.8 381.52C395.976 381.401 396.926 381.29 397.651 381.188C398.384 381.085 398.934 380.932 399.3 380.727C399.667 380.514 399.888 380.19 399.965 379.756V379.679C400.118 378.716 399.965 377.97 399.505 377.442C399.044 376.913 398.277 376.649 397.203 376.649C396.078 376.649 395.132 376.896 394.365 377.391C393.598 377.885 393.04 378.469 392.691 379.142L388.498 378.528C389.026 377.335 389.75 376.338 390.671 375.537C391.591 374.727 392.652 374.122 393.854 373.722C395.064 373.312 396.355 373.108 397.728 373.108C398.665 373.108 399.581 373.219 400.476 373.44C401.38 373.662 402.176 374.028 402.867 374.54C403.566 375.043 404.077 375.729 404.401 376.598C404.733 377.467 404.789 378.554 404.567 379.858L402.381 393H397.932L398.392 390.303H398.239C397.873 390.848 397.395 391.359 396.807 391.837C396.219 392.305 395.52 392.685 394.711 392.974C393.901 393.256 392.985 393.396 391.962 393.396ZM393.713 389.996C394.642 389.996 395.478 389.812 396.219 389.446C396.961 389.071 397.57 388.577 398.047 387.963C398.525 387.349 398.823 386.68 398.942 385.956L399.326 383.642C399.155 383.761 398.891 383.872 398.533 383.974C398.175 384.077 397.775 384.166 397.331 384.243C396.897 384.32 396.466 384.388 396.04 384.447C395.614 384.507 395.248 384.558 394.941 384.601C394.233 384.695 393.586 384.848 392.998 385.061C392.418 385.274 391.936 385.572 391.553 385.956C391.178 386.331 390.944 386.817 390.85 387.413C390.713 388.257 390.914 388.901 391.451 389.344C391.988 389.778 392.742 389.996 393.713 389.996ZM423.277 400.773C421.606 400.773 420.213 400.547 419.096 400.095C417.98 399.652 417.119 399.055 416.514 398.305C415.909 397.555 415.534 396.724 415.389 395.812L419.735 394.803C419.863 395.186 420.068 395.565 420.349 395.94C420.639 396.324 421.065 396.639 421.627 396.886C422.19 397.142 422.94 397.27 423.877 397.27C425.19 397.27 426.336 396.95 427.316 396.311C428.297 395.672 428.902 394.632 429.132 393.192L429.72 389.472H429.49C429.183 389.949 428.761 390.439 428.224 390.942C427.696 391.445 427.027 391.866 426.217 392.207C425.416 392.548 424.453 392.719 423.328 392.719C421.819 392.719 420.511 392.365 419.403 391.658C418.295 390.942 417.498 389.876 417.012 388.462C416.535 387.038 416.475 385.257 416.833 383.118C417.183 380.962 417.839 379.142 418.802 377.659C419.774 376.168 420.937 375.038 422.292 374.271C423.647 373.496 425.079 373.108 426.588 373.108C427.738 373.108 428.654 373.304 429.336 373.696C430.018 374.08 430.534 374.544 430.883 375.089C431.233 375.626 431.488 376.134 431.65 376.611H431.893L432.43 373.364H436.994L433.696 393.32C433.423 394.999 432.797 396.388 431.816 397.487C430.836 398.595 429.605 399.418 428.122 399.955C426.647 400.5 425.032 400.773 423.277 400.773ZM425.169 389.088C426.149 389.088 427.027 388.849 427.802 388.372C428.578 387.895 429.225 387.209 429.745 386.314C430.265 385.419 430.627 384.345 430.832 383.092C431.037 381.857 431.028 380.774 430.806 379.845C430.593 378.916 430.18 378.196 429.566 377.685C428.953 377.165 428.152 376.905 427.163 376.905C426.132 376.905 425.228 377.173 424.453 377.71C423.686 378.247 423.055 378.984 422.561 379.922C422.075 380.851 421.734 381.908 421.538 383.092C421.35 384.294 421.35 385.347 421.538 386.25C421.734 387.145 422.13 387.844 422.727 388.347C423.332 388.841 424.146 389.088 425.169 389.088ZM444.064 393.396C442.819 393.396 441.737 393.175 440.816 392.732C439.896 392.28 439.218 391.615 438.784 390.737C438.358 389.859 438.251 388.777 438.464 387.49C438.652 386.382 439.01 385.466 439.538 384.741C440.075 384.017 440.731 383.438 441.507 383.003C442.291 382.56 443.143 382.227 444.064 382.006C444.993 381.784 445.939 381.622 446.902 381.52C448.078 381.401 449.028 381.29 449.752 381.188C450.485 381.085 451.035 380.932 451.402 380.727C451.768 380.514 451.99 380.19 452.066 379.756V379.679C452.22 378.716 452.066 377.97 451.606 377.442C451.146 376.913 450.379 376.649 449.305 376.649C448.18 376.649 447.234 376.896 446.467 377.391C445.7 377.885 445.142 378.469 444.792 379.142L440.599 378.528C441.127 377.335 441.852 376.338 442.772 375.537C443.693 374.727 444.754 374.122 445.956 373.722C447.166 373.312 448.457 373.108 449.829 373.108C450.767 373.108 451.683 373.219 452.578 373.44C453.481 373.662 454.278 374.028 454.968 374.54C455.667 375.043 456.179 375.729 456.502 376.598C456.835 377.467 456.89 378.554 456.669 379.858L454.483 393H450.034L450.494 390.303H450.341C449.974 390.848 449.497 391.359 448.909 391.837C448.321 392.305 447.622 392.685 446.812 392.974C446.002 393.256 445.086 393.396 444.064 393.396ZM445.815 389.996C446.744 389.996 447.579 389.812 448.321 389.446C449.062 389.071 449.672 388.577 450.149 387.963C450.626 387.349 450.924 386.68 451.044 385.956L451.427 383.642C451.257 383.761 450.993 383.872 450.635 383.974C450.277 384.077 449.876 384.166 449.433 384.243C448.998 384.32 448.568 384.388 448.142 384.447C447.716 384.507 447.349 384.558 447.042 384.601C446.335 384.695 445.687 384.848 445.099 385.061C444.52 385.274 444.038 385.572 443.654 385.956C443.279 386.331 443.045 386.817 442.951 387.413C442.815 388.257 443.015 388.901 443.552 389.344C444.089 389.778 444.843 389.996 445.815 389.996ZM468.11 366.818L463.764 393H459.136L463.483 366.818H468.11ZM474.122 393.396C472.878 393.396 471.795 393.175 470.875 392.732C469.955 392.28 469.277 391.615 468.842 390.737C468.416 389.859 468.31 388.777 468.523 387.49C468.71 386.382 469.068 385.466 469.597 384.741C470.134 384.017 470.79 383.438 471.565 383.003C472.349 382.56 473.202 382.227 474.122 382.006C475.051 381.784 475.997 381.622 476.96 381.52C478.136 381.401 479.087 381.29 479.811 381.188C480.544 381.085 481.094 380.932 481.46 380.727C481.827 380.514 482.048 380.19 482.125 379.756V379.679C482.278 378.716 482.125 377.97 481.665 377.442C481.205 376.913 480.438 376.649 479.364 376.649C478.239 376.649 477.293 376.896 476.526 377.391C475.759 377.885 475.2 378.469 474.851 379.142L470.658 378.528C471.186 377.335 471.911 376.338 472.831 375.537C473.751 374.727 474.813 374.122 476.014 373.722C477.224 373.312 478.516 373.108 479.888 373.108C480.825 373.108 481.741 373.219 482.636 373.44C483.54 373.662 484.337 374.028 485.027 374.54C485.726 375.043 486.237 375.729 486.561 376.598C486.893 377.467 486.949 378.554 486.727 379.858L484.541 393H480.092L480.553 390.303H480.399C480.033 390.848 479.555 391.359 478.967 391.837C478.379 392.305 477.68 392.685 476.871 392.974C476.061 393.256 475.145 393.396 474.122 393.396ZM475.874 389.996C476.803 389.996 477.638 389.812 478.379 389.446C479.121 389.071 479.73 388.577 480.207 387.963C480.685 387.349 480.983 386.68 481.102 385.956L481.486 383.642C481.315 383.761 481.051 383.872 480.693 383.974C480.335 384.077 479.935 384.166 479.491 384.243C479.057 384.32 478.626 384.388 478.2 384.447C477.774 384.507 477.408 384.558 477.101 384.601C476.393 384.695 475.746 384.848 475.158 385.061C474.578 385.274 474.097 385.572 473.713 385.956C473.338 386.331 473.104 386.817 473.01 387.413C472.874 388.257 473.074 388.901 473.611 389.344C474.148 389.778 474.902 389.996 475.874 389.996ZM496.251 373.364L499.013 380.612L504.241 373.364H509.138L501.582 383.182L505.967 393H501.097L498.118 385.93L492.825 393H487.916L495.536 383.182L491.342 373.364H496.251ZM511.119 400.364C510.489 400.364 509.913 400.313 509.393 400.21C508.882 400.116 508.477 400.006 508.179 399.878L509.866 396.273C510.506 396.469 511.081 396.554 511.592 396.528C512.112 396.511 512.589 396.337 513.024 396.004C513.467 395.68 513.902 395.148 514.328 394.406L514.916 393.345L511.158 373.364H515.888L517.933 388.219H518.138L525.156 373.364H530.257L518.764 395.352C518.21 396.418 517.567 397.321 516.834 398.062C516.101 398.812 515.261 399.384 514.315 399.776C513.378 400.168 512.313 400.364 511.119 400.364ZM552.348 373.364L551.747 376.943H540.139L540.74 373.364H552.348ZM540.357 393L543.949 371.51C544.153 370.189 544.601 369.089 545.291 368.212C545.99 367.334 546.838 366.678 547.835 366.243C548.841 365.808 549.911 365.591 551.044 365.591C551.854 365.591 552.557 365.655 553.153 365.783C553.75 365.911 554.185 366.026 554.457 366.128L552.962 369.707C552.766 369.648 552.527 369.588 552.246 369.528C551.973 369.46 551.653 369.426 551.287 369.426C550.426 369.426 549.783 369.635 549.357 370.053C548.93 370.462 548.649 371.05 548.513 371.817L544.997 393H540.357ZM557.653 393.396C556.409 393.396 555.327 393.175 554.406 392.732C553.486 392.28 552.808 391.615 552.374 390.737C551.947 389.859 551.841 388.777 552.054 387.49C552.241 386.382 552.599 385.466 553.128 384.741C553.665 384.017 554.321 383.438 555.097 383.003C555.881 382.56 556.733 382.227 557.653 382.006C558.582 381.784 559.528 381.622 560.491 381.52C561.668 381.401 562.618 381.29 563.342 381.188C564.075 381.085 564.625 380.932 564.991 380.727C565.358 380.514 565.58 380.19 565.656 379.756V379.679C565.81 378.716 565.656 377.97 565.196 377.442C564.736 376.913 563.969 376.649 562.895 376.649C561.77 376.649 560.824 376.896 560.057 377.391C559.29 377.885 558.732 378.469 558.382 379.142L554.189 378.528C554.717 377.335 555.442 376.338 556.362 375.537C557.283 374.727 558.344 374.122 559.545 373.722C560.756 373.312 562.047 373.108 563.419 373.108C564.357 373.108 565.273 373.219 566.168 373.44C567.071 373.662 567.868 374.028 568.558 374.54C569.257 375.043 569.768 375.729 570.092 376.598C570.425 377.467 570.48 378.554 570.259 379.858L568.072 393H563.624L564.084 390.303H563.93C563.564 390.848 563.087 391.359 562.499 391.837C561.911 392.305 561.212 392.685 560.402 392.974C559.592 393.256 558.676 393.396 557.653 393.396ZM559.405 389.996C560.334 389.996 561.169 389.812 561.911 389.446C562.652 389.071 563.261 388.577 563.739 387.963C564.216 387.349 564.514 386.68 564.634 385.956L565.017 383.642C564.847 383.761 564.582 383.872 564.224 383.974C563.866 384.077 563.466 384.166 563.023 384.243C562.588 384.32 562.158 384.388 561.732 384.447C561.305 384.507 560.939 384.558 560.632 384.601C559.925 384.695 559.277 384.848 558.689 385.061C558.109 385.274 557.628 385.572 557.244 385.956C556.869 386.331 556.635 386.817 556.541 387.413C556.405 388.257 556.605 388.901 557.142 389.344C557.679 389.778 558.433 389.996 559.405 389.996ZM572.726 393L575.999 373.364H580.486L579.936 376.636H580.141C580.678 375.503 581.436 374.629 582.416 374.016C583.405 373.393 584.462 373.082 585.587 373.082C585.851 373.082 586.136 373.095 586.443 373.121C586.75 373.138 587.014 373.168 587.236 373.21L586.52 377.467C586.324 377.399 586.017 377.339 585.599 377.288C585.19 377.229 584.786 377.199 584.385 377.199C583.541 377.199 582.757 377.382 582.033 377.749C581.317 378.107 580.712 378.605 580.217 379.244C579.723 379.884 579.403 380.621 579.259 381.456L577.354 393H572.726ZM590.831 389.42L590.409 390.827C590.12 391.901 589.728 392.991 589.233 394.099C588.748 395.216 588.266 396.243 587.789 397.18C587.311 398.118 586.928 398.855 586.638 399.392H583.519C583.715 398.889 583.988 398.186 584.337 397.283C584.695 396.388 585.061 395.382 585.436 394.266C585.82 393.149 586.14 392.011 586.395 390.852L586.74 389.42H590.831ZM617.563 373.364L616.962 376.943H605.354L605.955 373.364H617.563ZM605.571 393L609.164 371.51C609.368 370.189 609.816 369.089 610.506 368.212C611.205 367.334 612.053 366.678 613.05 366.243C614.056 365.808 615.125 365.591 616.259 365.591C617.069 365.591 617.772 365.655 618.368 365.783C618.965 365.911 619.4 366.026 619.672 366.128L618.176 369.707C617.98 369.648 617.742 369.588 617.461 369.528C617.188 369.46 616.868 369.426 616.502 369.426C615.641 369.426 614.998 369.635 614.571 370.053C614.145 370.462 613.864 371.05 613.728 371.817L610.212 393H605.571ZM622.868 393.396C621.624 393.396 620.542 393.175 619.621 392.732C618.701 392.28 618.023 391.615 617.588 390.737C617.162 389.859 617.056 388.777 617.269 387.49C617.456 386.382 617.814 385.466 618.343 384.741C618.88 384.017 619.536 383.438 620.311 383.003C621.096 382.56 621.948 382.227 622.868 382.006C623.797 381.784 624.743 381.622 625.706 381.52C626.882 381.401 627.833 381.29 628.557 381.188C629.29 381.085 629.84 380.932 630.206 380.727C630.573 380.514 630.794 380.19 630.871 379.756V379.679C631.025 378.716 630.871 377.97 630.411 377.442C629.951 376.913 629.184 376.649 628.11 376.649C626.985 376.649 626.039 376.896 625.272 377.391C624.505 377.885 623.946 378.469 623.597 379.142L619.404 378.528C619.932 377.335 620.657 376.338 621.577 375.537C622.498 374.727 623.559 374.122 624.76 373.722C625.971 373.312 627.262 373.108 628.634 373.108C629.571 373.108 630.488 373.219 631.382 373.44C632.286 373.662 633.083 374.028 633.773 374.54C634.472 375.043 634.983 375.729 635.307 376.598C635.64 377.467 635.695 378.554 635.473 379.858L633.287 393H628.838L629.299 390.303H629.145C628.779 390.848 628.301 391.359 627.713 391.837C627.125 392.305 626.426 392.685 625.617 392.974C624.807 393.256 623.891 393.396 622.868 393.396ZM624.62 389.996C625.549 389.996 626.384 389.812 627.125 389.446C627.867 389.071 628.476 388.577 628.953 387.963C629.431 387.349 629.729 386.68 629.848 385.956L630.232 383.642C630.061 383.761 629.797 383.872 629.439 383.974C629.081 384.077 628.681 384.166 628.238 384.243C627.803 384.32 627.373 384.388 626.946 384.447C626.52 384.507 626.154 384.558 625.847 384.601C625.14 384.695 624.492 384.848 623.904 385.061C623.324 385.274 622.843 385.572 622.459 385.956C622.084 386.331 621.85 386.817 621.756 387.413C621.62 388.257 621.82 388.901 622.357 389.344C622.894 389.778 623.648 389.996 624.62 389.996ZM637.941 393L641.213 373.364H645.701L645.151 376.636H645.355C645.892 375.503 646.651 374.629 647.631 374.016C648.62 373.393 649.676 373.082 650.801 373.082C651.066 373.082 651.351 373.095 651.658 373.121C651.965 373.138 652.229 373.168 652.451 373.21L651.735 377.467C651.539 377.399 651.232 377.339 650.814 377.288C650.405 377.229 650 377.199 649.6 377.199C648.756 377.199 647.972 377.382 647.248 377.749C646.532 378.107 645.926 378.605 645.432 379.244C644.938 379.884 644.618 380.621 644.473 381.456L642.569 393H637.941ZM666.778 393.396C665.534 393.396 664.452 393.175 663.531 392.732C662.611 392.28 661.933 391.615 661.499 390.737C661.072 389.859 660.966 388.777 661.179 387.49C661.366 386.382 661.724 385.466 662.253 384.741C662.79 384.017 663.446 383.438 664.222 383.003C665.006 382.56 665.858 382.227 666.778 382.006C667.707 381.784 668.653 381.622 669.616 381.52C670.793 381.401 671.743 381.29 672.467 381.188C673.2 381.085 673.75 380.932 674.116 380.727C674.483 380.514 674.705 380.19 674.781 379.756V379.679C674.935 378.716 674.781 377.97 674.321 377.442C673.861 376.913 673.094 376.649 672.02 376.649C670.895 376.649 669.949 376.896 669.182 377.391C668.415 377.885 667.857 378.469 667.507 379.142L663.314 378.528C663.842 377.335 664.567 376.338 665.487 375.537C666.408 374.727 667.469 374.122 668.67 373.722C669.881 373.312 671.172 373.108 672.544 373.108C673.482 373.108 674.398 373.219 675.293 373.44C676.196 373.662 676.993 374.028 677.683 374.54C678.382 375.043 678.893 375.729 679.217 376.598C679.55 377.467 679.605 378.554 679.384 379.858L677.197 393H672.749L673.209 390.303H673.055C672.689 390.848 672.212 391.359 671.624 391.837C671.036 392.305 670.337 392.685 669.527 392.974C668.717 393.256 667.801 393.396 666.778 393.396ZM668.53 389.996C669.459 389.996 670.294 389.812 671.036 389.446C671.777 389.071 672.386 388.577 672.864 387.963C673.341 387.349 673.639 386.68 673.759 385.956L674.142 383.642C673.972 383.761 673.707 383.872 673.349 383.974C672.991 384.077 672.591 384.166 672.148 384.243C671.713 384.32 671.283 384.388 670.857 384.447C670.43 384.507 670.064 384.558 669.757 384.601C669.05 384.695 668.402 384.848 667.814 385.061C667.234 385.274 666.753 385.572 666.369 385.956C665.994 386.331 665.76 386.817 665.666 387.413C665.53 388.257 665.73 388.901 666.267 389.344C666.804 389.778 667.558 389.996 668.53 389.996ZM685.903 393L683.628 373.364H688.345L689.496 387.17H689.675L695.504 373.364H700.17L701.398 387.094H701.589L707.291 373.364H712.021L703.188 393H698.368L696.885 379.73H696.616L690.736 393H685.903ZM717.579 393.396C716.335 393.396 715.252 393.175 714.332 392.732C713.412 392.28 712.734 391.615 712.299 390.737C711.873 389.859 711.767 388.777 711.98 387.49C712.167 386.382 712.525 385.466 713.054 384.741C713.591 384.017 714.247 383.438 715.022 383.003C715.806 382.56 716.659 382.227 717.579 382.006C718.508 381.784 719.454 381.622 720.417 381.52C721.593 381.401 722.544 381.29 723.268 381.188C724.001 381.085 724.551 380.932 724.917 380.727C725.284 380.514 725.505 380.19 725.582 379.756V379.679C725.735 378.716 725.582 377.97 725.122 377.442C724.662 376.913 723.895 376.649 722.821 376.649C721.696 376.649 720.75 376.896 719.983 377.391C719.216 377.885 718.657 378.469 718.308 379.142L714.115 378.528C714.643 377.335 715.368 376.338 716.288 375.537C717.208 374.727 718.27 374.122 719.471 373.722C720.681 373.312 721.973 373.108 723.345 373.108C724.282 373.108 725.199 373.219 726.093 373.44C726.997 373.662 727.794 374.028 728.484 374.54C729.183 375.043 729.694 375.729 730.018 376.598C730.35 377.467 730.406 378.554 730.184 379.858L727.998 393H723.549L724.01 390.303H723.856C723.49 390.848 723.012 391.359 722.424 391.837C721.836 392.305 721.137 392.685 720.328 392.974C719.518 393.256 718.602 393.396 717.579 393.396ZM719.331 389.996C720.26 389.996 721.095 389.812 721.836 389.446C722.578 389.071 723.187 388.577 723.664 387.963C724.142 387.349 724.44 386.68 724.559 385.956L724.943 383.642C724.772 383.761 724.508 383.872 724.15 383.974C723.792 384.077 723.392 384.166 722.949 384.243C722.514 384.32 722.083 384.388 721.657 384.447C721.231 384.507 720.865 384.558 720.558 384.601C719.85 384.695 719.203 384.848 718.615 385.061C718.035 385.274 717.554 385.572 717.17 385.956C716.795 386.331 716.561 386.817 716.467 387.413C716.331 388.257 716.531 388.901 717.068 389.344C717.605 389.778 718.359 389.996 719.331 389.996ZM733.623 400.364C732.993 400.364 732.417 400.313 731.897 400.21C731.386 400.116 730.981 400.006 730.683 399.878L732.37 396.273C733.01 396.469 733.585 396.554 734.096 396.528C734.616 396.511 735.093 396.337 735.528 396.004C735.971 395.68 736.406 395.148 736.832 394.406L737.42 393.345L733.662 373.364H738.392L740.437 388.219H740.642L747.66 373.364H752.761L741.268 395.352C740.714 396.418 740.071 397.321 739.338 398.062C738.605 398.812 737.765 399.384 736.819 399.776C735.882 400.168 734.816 400.364 733.623 400.364ZM753.215 393.281C752.431 393.281 751.783 393.009 751.272 392.463C750.76 391.918 750.522 391.253 750.556 390.469C750.59 389.702 750.901 389.05 751.489 388.513C752.077 387.976 752.755 387.707 753.522 387.707C754.28 387.707 754.924 387.98 755.452 388.526C755.989 389.071 756.232 389.719 756.181 390.469C756.147 390.997 755.985 391.474 755.695 391.901C755.414 392.327 755.056 392.663 754.621 392.911C754.186 393.158 753.718 393.281 753.215 393.281ZM762.509 393.281C761.725 393.281 761.077 393.009 760.566 392.463C760.054 391.918 759.816 391.253 759.85 390.469C759.884 389.702 760.195 389.05 760.783 388.513C761.371 387.976 762.049 387.707 762.816 387.707C763.574 387.707 764.218 387.98 764.746 388.526C765.283 389.071 765.526 389.719 765.475 390.469C765.441 390.997 765.279 391.474 764.989 391.901C764.708 392.327 764.35 392.663 763.915 392.911C763.48 393.158 763.012 393.281 762.509 393.281ZM771.79 393.281C771.006 393.281 770.358 393.009 769.847 392.463C769.336 391.918 769.097 391.253 769.131 390.469C769.165 389.702 769.476 389.05 770.064 388.513C770.652 387.976 771.33 387.707 772.097 387.707C772.855 387.707 773.499 387.98 774.027 388.526C774.564 389.071 774.807 389.719 774.756 390.469C774.722 390.997 774.56 391.474 774.27 391.901C773.989 392.327 773.631 392.663 773.196 392.911C772.762 393.158 772.293 393.281 771.79 393.281ZM784.235 366.818L783.814 369.426C783.694 370.176 783.422 370.956 782.995 371.766C782.569 372.567 782.049 373.334 781.436 374.067C780.822 374.791 780.162 375.413 779.454 375.933L777.511 374.54C778.091 373.832 778.623 373.07 779.109 372.251C779.595 371.425 779.927 370.491 780.106 369.452L780.554 366.818H784.235ZM790.691 366.818L790.282 369.426C790.154 370.176 789.877 370.956 789.451 371.766C789.034 372.567 788.518 373.334 787.904 374.067C787.291 374.791 786.63 375.413 785.923 375.933L783.98 374.54C784.559 373.832 785.092 373.07 785.578 372.251C786.064 371.425 786.392 370.491 786.562 369.452L787.01 366.818H790.691Z" fill="#04071A"/>
</g>
<defs>
<clipPath id="clip0_1_2">
<rect width="1048" height="723" fill="white"/>
</clipPath>
</defs>
</svg>
