<svg width="800" height="800" viewBox="0 0 800 800" fill="none" xmlns="http://www.w3.org/2000/svg">
<g clip-path="url(#clip0_1_2)">
<path d="M634.424 405.736C634.459 366.364 623.649 327.744 603.18 294.111C582.712 260.479 553.376 233.134 518.39 215.076C483.405 197.018 444.121 188.945 404.849 191.743C365.578 194.541 327.835 208.102 295.763 230.937C263.69 253.772 238.527 285 223.033 321.195C207.539 357.389 202.314 397.151 207.93 436.12C213.547 475.088 229.788 511.758 254.871 542.104C279.955 572.45 312.912 595.301 350.128 608.151V768.57H490.047V608.151C532.175 593.617 568.722 566.308 594.599 530.027C620.477 493.746 634.398 450.3 634.424 405.736Z" fill="white" stroke="#231F20" stroke-width="52.4289" stroke-linecap="round" stroke-linejoin="round"/>
<path d="M514.348 668.576H328.003V741.308H514.348V668.576Z" fill="#D1D3D4" stroke="#231F20" stroke-width="52.4289" stroke-linecap="round" stroke-linejoin="round"/>
<path d="M420.094 21V70.9779" stroke="#231F20" stroke-width="52.4289" stroke-linecap="round" stroke-linejoin="round"/>
<path d="M677.546 119.829L645.84 158.469" stroke="#231F20" stroke-width="52.4289" stroke-linecap="round" stroke-linejoin="round"/>
<path d="M155 119.829L186.706 158.469" stroke="#231F20" stroke-width="52.4289" stroke-linecap="round" stroke-linejoin="round"/>
<path d="M280.797 373L281.045 371.551C281.121 371.134 281.275 370.701 281.507 370.251C281.739 369.797 282.026 369.368 282.366 368.966C282.707 368.559 283.077 368.215 283.474 367.936L284.526 368.71C284.189 369.132 283.889 369.572 283.624 370.031C283.358 370.486 283.181 370.988 283.091 371.537L282.842 373H280.797ZM284.398 373L284.646 371.551C284.722 371.134 284.876 370.701 285.108 370.251C285.34 369.797 285.626 369.368 285.967 368.966C286.308 368.559 286.678 368.215 287.075 367.936L288.126 368.71C287.79 369.132 287.49 369.572 287.224 370.031C286.959 370.486 286.782 370.988 286.692 371.537L286.443 373H284.398ZM287.624 383H284.811L292.347 368.455H295.6L298.313 383H295.5L293.547 371.438H293.434L287.624 383ZM288.661 377.297H296.331L295.976 379.413H288.306L288.661 377.297ZM310.062 368.455L307.647 383H305.076L307.491 368.455H310.062ZM315.078 383.213C314.003 383.213 313.108 382.976 312.393 382.503C311.683 382.029 311.183 381.364 310.895 380.507C310.606 379.65 310.554 378.656 310.738 377.524C310.923 376.407 311.292 375.429 311.846 374.591C312.405 373.753 313.108 373.104 313.956 372.645C314.808 372.181 315.762 371.949 316.818 371.949C317.893 371.949 318.785 372.188 319.495 372.666C320.206 373.14 320.705 373.805 320.994 374.662C321.288 375.519 321.342 376.518 321.157 377.659C320.977 378.772 320.606 379.745 320.042 380.578C319.484 381.411 318.78 382.06 317.933 382.524C317.085 382.983 316.134 383.213 315.078 383.213ZM315.291 381.153C315.887 381.153 316.411 380.992 316.86 380.67C317.315 380.344 317.687 379.906 317.975 379.357C318.269 378.803 318.473 378.187 318.586 377.51C318.69 376.857 318.693 376.265 318.593 375.734C318.494 375.199 318.281 374.776 317.954 374.463C317.632 374.146 317.185 373.987 316.612 373.987C316.015 373.987 315.487 374.153 315.028 374.484C314.574 374.811 314.202 375.251 313.913 375.805C313.624 376.355 313.425 376.968 313.316 377.645C313.208 378.298 313.203 378.89 313.302 379.42C313.402 379.951 313.615 380.372 313.941 380.685C314.268 380.997 314.718 381.153 315.291 381.153ZM326.095 376.608L325.044 383H322.466L324.284 372.091H326.749L326.436 373.945H326.571C326.912 373.334 327.39 372.848 328.006 372.489C328.621 372.129 329.339 371.949 330.158 371.949C330.901 371.949 331.526 372.11 332.033 372.432C332.539 372.749 332.899 373.215 333.112 373.831C333.325 374.442 333.358 375.183 333.212 376.054L332.047 383H329.476L330.562 376.452C330.686 375.727 330.593 375.159 330.286 374.747C329.982 374.33 329.495 374.122 328.822 374.122C328.373 374.122 327.958 374.222 327.58 374.42C327.201 374.615 326.881 374.896 326.621 375.266C326.365 375.635 326.19 376.082 326.095 376.608ZM338.709 387.318C337.781 387.318 337.007 387.193 336.386 386.942C335.766 386.696 335.288 386.364 334.952 385.947C334.616 385.531 334.407 385.069 334.327 384.562L336.741 384.001C336.813 384.214 336.926 384.425 337.082 384.634C337.243 384.847 337.48 385.022 337.793 385.159C338.105 385.301 338.522 385.372 339.043 385.372C339.772 385.372 340.409 385.195 340.953 384.839C341.498 384.484 341.834 383.907 341.962 383.107L342.288 381.04H342.161C341.99 381.305 341.756 381.577 341.457 381.857C341.164 382.136 340.792 382.37 340.342 382.56C339.897 382.749 339.362 382.844 338.737 382.844C337.899 382.844 337.172 382.647 336.557 382.254C335.941 381.857 335.499 381.265 335.229 380.479C334.964 379.688 334.93 378.698 335.129 377.51C335.323 376.312 335.688 375.301 336.223 374.477C336.763 373.649 337.409 373.021 338.162 372.595C338.915 372.164 339.71 371.949 340.548 371.949C341.188 371.949 341.696 372.058 342.075 372.276C342.454 372.489 342.741 372.747 342.935 373.05C343.129 373.348 343.271 373.63 343.361 373.895H343.496L343.794 372.091H346.33L344.497 383.178C344.346 384.11 343.998 384.882 343.453 385.493C342.909 386.108 342.224 386.565 341.401 386.864C340.581 387.167 339.684 387.318 338.709 387.318ZM339.76 380.827C340.304 380.827 340.792 380.694 341.223 380.429C341.654 380.164 342.014 379.783 342.303 379.286C342.591 378.788 342.793 378.192 342.906 377.496C343.02 376.809 343.015 376.208 342.892 375.692C342.774 375.176 342.544 374.776 342.203 374.491C341.862 374.203 341.417 374.058 340.868 374.058C340.295 374.058 339.793 374.207 339.362 374.506C338.936 374.804 338.586 375.214 338.311 375.734C338.041 376.25 337.852 376.838 337.743 377.496C337.639 378.163 337.639 378.748 337.743 379.25C337.852 379.747 338.072 380.135 338.403 380.415C338.74 380.689 339.192 380.827 339.76 380.827ZM359.373 372.091L359.039 374.08H352.775L353.102 372.091H359.373ZM355.076 369.477H357.647L355.942 379.719C355.89 380.064 355.9 380.33 355.971 380.514C356.047 380.694 356.167 380.817 356.333 380.884C356.504 380.95 356.695 380.983 356.908 380.983C357.065 380.983 357.211 380.971 357.349 380.947C357.486 380.919 357.595 380.898 357.675 380.884L357.789 382.893C357.633 382.941 357.422 382.993 357.157 383.05C356.897 383.107 356.584 383.14 356.219 383.149C355.566 383.163 354.998 383.064 354.515 382.851C354.037 382.633 353.686 382.299 353.464 381.849C353.246 381.395 353.196 380.827 353.315 380.145L355.076 369.477ZM359.705 383L361.523 372.091H364.094L362.276 383H359.705ZM363.185 370.528C362.773 370.528 362.432 370.391 362.162 370.116C361.892 369.842 361.774 369.513 361.807 369.129C361.84 368.746 362.013 368.417 362.326 368.142C362.643 367.867 363.005 367.73 363.412 367.73C363.824 367.73 364.163 367.867 364.428 368.142C364.698 368.417 364.816 368.746 364.783 369.129C364.755 369.513 364.582 369.842 364.265 370.116C363.952 370.391 363.592 370.528 363.185 370.528ZM364.927 383L366.745 372.091H369.21L368.897 373.945H369.032C369.363 373.32 369.82 372.832 370.403 372.482C370.985 372.126 371.641 371.949 372.37 371.949C373.104 371.949 373.696 372.129 374.146 372.489C374.6 372.844 374.879 373.329 374.984 373.945H375.097C375.438 373.334 375.926 372.848 376.56 372.489C377.2 372.129 377.917 371.949 378.712 371.949C379.707 371.949 380.469 372.266 380.999 372.901C381.53 373.535 381.693 374.461 381.489 375.678L380.268 383H377.697L378.862 376.075C378.966 375.398 378.862 374.903 378.549 374.591C378.241 374.274 377.827 374.115 377.306 374.115C376.686 374.115 376.17 374.307 375.758 374.69C375.351 375.074 375.1 375.576 375.005 376.196L373.862 383H371.34L372.519 375.969C372.604 375.405 372.505 374.955 372.221 374.619C371.942 374.283 371.53 374.115 370.985 374.115C370.616 374.115 370.263 374.21 369.927 374.399C369.591 374.589 369.304 374.854 369.067 375.195C368.835 375.531 368.684 375.921 368.613 376.366L367.505 383H364.927ZM387.67 383.213C386.576 383.213 385.672 382.986 384.957 382.531C384.242 382.072 383.74 381.423 383.451 380.585C383.167 379.742 383.12 378.75 383.309 377.609C383.494 376.487 383.87 375.502 384.439 374.655C385.007 373.803 385.717 373.14 386.569 372.666C387.426 372.188 388.373 371.949 389.41 371.949C390.083 371.949 390.7 372.058 391.264 372.276C391.827 372.489 392.303 372.82 392.691 373.27C393.08 373.72 393.347 374.293 393.494 374.989C393.641 375.68 393.634 376.504 393.473 377.46L393.352 378.249H384.403L384.68 376.516H391.157C391.243 376.023 391.214 375.585 391.072 375.202C390.93 374.813 390.693 374.508 390.362 374.286C390.03 374.063 389.616 373.952 389.119 373.952C388.612 373.952 388.139 374.082 387.699 374.342C387.263 374.598 386.896 374.929 386.598 375.337C386.299 375.744 386.11 376.172 386.029 376.622L385.738 378.284C385.634 378.966 385.658 379.522 385.809 379.953C385.961 380.384 386.226 380.701 386.605 380.905C386.984 381.108 387.462 381.21 388.039 381.21C388.418 381.21 388.769 381.158 389.091 381.054C389.413 380.95 389.699 380.794 389.95 380.585C390.206 380.372 390.419 380.112 390.589 379.804L392.94 380.074C392.68 380.708 392.298 381.262 391.797 381.736C391.295 382.205 390.693 382.569 389.993 382.83C389.297 383.085 388.522 383.213 387.67 383.213ZM402.816 383.22C402.124 383.22 401.523 383.097 401.012 382.851C400.5 382.6 400.124 382.231 399.882 381.743C399.646 381.255 399.587 380.654 399.705 379.939C399.809 379.323 400.008 378.814 400.301 378.412C400.6 378.009 400.964 377.688 401.395 377.446C401.831 377.2 402.304 377.015 402.816 376.892C403.332 376.769 403.857 376.679 404.392 376.622C405.046 376.556 405.574 376.494 405.976 376.438C406.383 376.381 406.689 376.295 406.892 376.182C407.096 376.063 407.219 375.884 407.262 375.642V375.599C407.347 375.064 407.262 374.65 407.006 374.357C406.75 374.063 406.324 373.916 405.728 373.916C405.103 373.916 404.577 374.054 404.151 374.328C403.725 374.603 403.415 374.927 403.221 375.301L400.891 374.96C401.185 374.297 401.587 373.743 402.098 373.298C402.61 372.848 403.199 372.512 403.867 372.29C404.539 372.062 405.257 371.949 406.019 371.949C406.54 371.949 407.049 372.01 407.546 372.134C408.048 372.257 408.49 372.46 408.874 372.744C409.262 373.024 409.546 373.405 409.726 373.888C409.911 374.371 409.942 374.974 409.819 375.699L408.604 383H406.132L406.388 381.501H406.303C406.099 381.804 405.834 382.089 405.507 382.354C405.181 382.614 404.792 382.825 404.343 382.986C403.893 383.142 403.384 383.22 402.816 383.22ZM403.789 381.331C404.305 381.331 404.769 381.229 405.181 381.026C405.593 380.817 405.931 380.543 406.196 380.202C406.462 379.861 406.627 379.489 406.694 379.087L406.907 377.801C406.812 377.867 406.665 377.929 406.466 377.986C406.267 378.043 406.045 378.092 405.799 378.135C405.557 378.178 405.318 378.215 405.081 378.249C404.845 378.282 404.641 378.31 404.471 378.334C404.078 378.386 403.718 378.471 403.391 378.589C403.069 378.708 402.801 378.874 402.588 379.087C402.38 379.295 402.25 379.565 402.198 379.896C402.122 380.365 402.233 380.723 402.532 380.969C402.83 381.21 403.249 381.331 403.789 381.331ZM415.252 387.318C414.324 387.318 413.55 387.193 412.929 386.942C412.309 386.696 411.831 386.364 411.495 385.947C411.158 385.531 410.95 385.069 410.87 384.562L413.284 384.001C413.355 384.214 413.469 384.425 413.625 384.634C413.786 384.847 414.023 385.022 414.336 385.159C414.648 385.301 415.065 385.372 415.586 385.372C416.315 385.372 416.952 385.195 417.496 384.839C418.041 384.484 418.377 383.907 418.505 383.107L418.831 381.04H418.703C418.533 381.305 418.299 381.577 418 381.857C417.707 382.136 417.335 382.37 416.885 382.56C416.44 382.749 415.905 382.844 415.28 382.844C414.442 382.844 413.715 382.647 413.1 382.254C412.484 381.857 412.042 381.265 411.772 380.479C411.507 379.688 411.473 378.698 411.672 377.51C411.866 376.312 412.231 375.301 412.766 374.477C413.306 373.649 413.952 373.021 414.705 372.595C415.458 372.164 416.253 371.949 417.091 371.949C417.73 371.949 418.239 372.058 418.618 372.276C418.997 372.489 419.283 372.747 419.478 373.05C419.672 373.348 419.814 373.63 419.904 373.895H420.039L420.337 372.091H422.873L421.04 383.178C420.889 384.11 420.541 384.882 419.996 385.493C419.452 386.108 418.767 386.565 417.944 386.864C417.124 387.167 416.227 387.318 415.252 387.318ZM416.303 380.827C416.847 380.827 417.335 380.694 417.766 380.429C418.197 380.164 418.557 379.783 418.846 379.286C419.134 378.788 419.336 378.192 419.449 377.496C419.563 376.809 419.558 376.208 419.435 375.692C419.317 375.176 419.087 374.776 418.746 374.491C418.405 374.203 417.96 374.058 417.411 374.058C416.838 374.058 416.336 374.207 415.905 374.506C415.479 374.804 415.129 375.214 414.854 375.734C414.584 376.25 414.395 376.838 414.286 377.496C414.182 378.163 414.182 378.748 414.286 379.25C414.395 379.747 414.615 380.135 414.946 380.415C415.283 380.689 415.735 380.827 416.303 380.827ZM428.476 383.213C427.401 383.213 426.507 382.976 425.792 382.503C425.081 382.029 424.582 381.364 424.293 380.507C424.004 379.65 423.952 378.656 424.137 377.524C424.321 376.407 424.691 375.429 425.245 374.591C425.803 373.753 426.507 373.104 427.354 372.645C428.206 372.181 429.16 371.949 430.216 371.949C431.291 371.949 432.184 372.188 432.894 372.666C433.604 373.14 434.104 373.805 434.392 374.662C434.686 375.519 434.74 376.518 434.556 377.659C434.376 378.772 434.004 379.745 433.441 380.578C432.882 381.411 432.179 382.06 431.331 382.524C430.484 382.983 429.532 383.213 428.476 383.213ZM428.689 381.153C429.286 381.153 429.809 380.992 430.259 380.67C430.713 380.344 431.085 379.906 431.374 379.357C431.667 378.803 431.871 378.187 431.985 377.51C432.089 376.857 432.091 376.265 431.992 375.734C431.892 375.199 431.679 374.776 431.353 374.463C431.031 374.146 430.583 373.987 430.01 373.987C429.414 373.987 428.886 374.153 428.426 374.484C427.972 374.811 427.6 375.251 427.311 375.805C427.023 376.355 426.824 376.968 426.715 377.645C426.606 378.298 426.601 378.89 426.701 379.42C426.8 379.951 427.013 380.372 427.34 380.685C427.667 380.997 428.116 381.153 428.689 381.153ZM324.06 407L325.879 396.091H328.45L326.631 407H324.06ZM327.54 394.528C327.129 394.528 326.788 394.391 326.518 394.116C326.248 393.842 326.129 393.513 326.163 393.129C326.196 392.746 326.369 392.417 326.681 392.142C326.998 391.867 327.361 391.73 327.768 391.73C328.18 391.73 328.518 391.867 328.783 392.142C329.053 392.417 329.172 392.746 329.138 393.129C329.11 393.513 328.937 393.842 328.62 394.116C328.308 394.391 327.948 394.528 327.54 394.528ZM332.912 400.608L331.86 407H329.282L331.1 396.091H333.565L333.252 397.945H333.387C333.728 397.334 334.207 396.848 334.822 396.489C335.438 396.129 336.155 395.949 336.974 395.949C337.717 395.949 338.342 396.11 338.849 396.432C339.356 396.749 339.716 397.215 339.929 397.831C340.142 398.442 340.175 399.183 340.028 400.054L338.863 407H336.292L337.379 400.452C337.502 399.727 337.41 399.159 337.102 398.747C336.799 398.33 336.311 398.122 335.639 398.122C335.189 398.122 334.775 398.222 334.396 398.42C334.017 398.615 333.698 398.896 333.437 399.266C333.181 399.635 333.006 400.082 332.912 400.608ZM349.534 407.22C348.843 407.22 348.242 407.097 347.73 406.851C347.219 406.6 346.843 406.231 346.601 405.743C346.364 405.255 346.305 404.654 346.424 403.939C346.528 403.323 346.727 402.814 347.02 402.412C347.319 402.009 347.683 401.688 348.114 401.446C348.55 401.2 349.023 401.015 349.534 400.892C350.051 400.769 350.576 400.679 351.111 400.622C351.765 400.556 352.292 400.494 352.695 400.438C353.102 400.381 353.408 400.295 353.611 400.182C353.815 400.063 353.938 399.884 353.98 399.642V399.599C354.066 399.064 353.98 398.65 353.725 398.357C353.469 398.063 353.043 397.916 352.446 397.916C351.821 397.916 351.296 398.054 350.87 398.328C350.444 398.603 350.133 398.927 349.939 399.301L347.61 398.96C347.903 398.297 348.306 397.743 348.817 397.298C349.328 396.848 349.918 396.512 350.586 396.29C351.258 396.062 351.975 395.949 352.738 395.949C353.258 395.949 353.767 396.01 354.265 396.134C354.766 396.257 355.209 396.46 355.593 396.744C355.981 397.024 356.265 397.405 356.445 397.888C356.63 398.371 356.66 398.974 356.537 399.699L355.323 407H352.851L353.107 405.501H353.022C352.818 405.804 352.553 406.089 352.226 406.354C351.9 406.614 351.511 406.825 351.061 406.986C350.612 407.142 350.103 407.22 349.534 407.22ZM350.507 405.331C351.024 405.331 351.488 405.229 351.9 405.026C352.311 404.817 352.65 404.543 352.915 404.202C353.18 403.861 353.346 403.489 353.412 403.087L353.625 401.801C353.531 401.867 353.384 401.929 353.185 401.986C352.986 402.043 352.764 402.092 352.517 402.135C352.276 402.178 352.037 402.215 351.8 402.249C351.563 402.282 351.36 402.31 351.189 402.334C350.796 402.386 350.436 402.471 350.11 402.589C349.788 402.708 349.52 402.874 349.307 403.087C349.099 403.295 348.969 403.565 348.917 403.896C348.841 404.365 348.952 404.723 349.25 404.969C349.549 405.21 349.968 405.331 350.507 405.331ZM366.931 411.318C366.003 411.318 365.229 411.193 364.609 410.942C363.989 410.696 363.511 410.364 363.174 409.947C362.838 409.531 362.63 409.069 362.549 408.562L364.964 408.001C365.035 408.214 365.149 408.425 365.305 408.634C365.466 408.847 365.703 409.022 366.015 409.159C366.328 409.301 366.744 409.372 367.265 409.372C367.994 409.372 368.631 409.195 369.176 408.839C369.72 408.484 370.056 407.907 370.184 407.107L370.511 405.04H370.383C370.213 405.305 369.978 405.577 369.68 405.857C369.386 406.136 369.015 406.37 368.565 406.56C368.12 406.749 367.585 406.844 366.96 406.844C366.122 406.844 365.395 406.647 364.779 406.254C364.164 405.857 363.721 405.265 363.451 404.479C363.186 403.688 363.153 402.698 363.352 401.51C363.546 400.312 363.911 399.301 364.446 398.477C364.985 397.649 365.632 397.021 366.385 396.595C367.137 396.164 367.933 395.949 368.771 395.949C369.41 395.949 369.919 396.058 370.298 396.276C370.677 396.489 370.963 396.747 371.157 397.05C371.351 397.348 371.493 397.63 371.583 397.895H371.718L372.017 396.091H374.552L372.72 407.178C372.568 408.11 372.22 408.882 371.676 409.493C371.131 410.108 370.447 410.565 369.623 410.864C368.804 411.167 367.907 411.318 366.931 411.318ZM367.983 404.827C368.527 404.827 369.015 404.694 369.446 404.429C369.877 404.164 370.236 403.783 370.525 403.286C370.814 402.788 371.015 402.192 371.129 401.496C371.243 400.809 371.238 400.208 371.115 399.692C370.996 399.176 370.767 398.776 370.426 398.491C370.085 398.203 369.64 398.058 369.091 398.058C368.518 398.058 368.016 398.207 367.585 398.506C367.159 398.804 366.808 399.214 366.534 399.734C366.264 400.25 366.074 400.838 365.966 401.496C365.861 402.163 365.861 402.748 365.966 403.25C366.074 403.747 366.295 404.135 366.626 404.415C366.962 404.689 367.414 404.827 367.983 404.827ZM378.48 407.22C377.788 407.22 377.187 407.097 376.676 406.851C376.164 406.6 375.788 406.231 375.547 405.743C375.31 405.255 375.251 404.654 375.369 403.939C375.473 403.323 375.672 402.814 375.966 402.412C376.264 402.009 376.628 401.688 377.059 401.446C377.495 401.2 377.968 401.015 378.48 400.892C378.996 400.769 379.521 400.679 380.056 400.622C380.71 400.556 381.238 400.494 381.64 400.438C382.047 400.381 382.353 400.295 382.556 400.182C382.76 400.063 382.883 399.884 382.926 399.642V399.599C383.011 399.064 382.926 398.65 382.67 398.357C382.414 398.063 381.988 397.916 381.392 397.916C380.767 397.916 380.241 398.054 379.815 398.328C379.389 398.603 379.079 398.927 378.885 399.301L376.555 398.96C376.849 398.297 377.251 397.743 377.762 397.298C378.274 396.848 378.863 396.512 379.531 396.29C380.203 396.062 380.921 395.949 381.683 395.949C382.204 395.949 382.713 396.01 383.21 396.134C383.712 396.257 384.154 396.46 384.538 396.744C384.926 397.024 385.21 397.405 385.39 397.888C385.575 398.371 385.606 398.974 385.483 399.699L384.268 407H381.797L382.052 405.501H381.967C381.763 405.804 381.498 406.089 381.172 406.354C380.845 406.614 380.457 406.825 380.007 406.986C379.557 407.142 379.048 407.22 378.48 407.22ZM379.453 405.331C379.969 405.331 380.433 405.229 380.845 405.026C381.257 404.817 381.595 404.543 381.86 404.202C382.126 403.861 382.291 403.489 382.358 403.087L382.571 401.801C382.476 401.867 382.329 401.929 382.13 401.986C381.931 402.043 381.709 402.092 381.463 402.135C381.221 402.178 380.982 402.215 380.745 402.249C380.509 402.282 380.305 402.31 380.135 402.334C379.742 402.386 379.382 402.471 379.055 402.589C378.733 402.708 378.466 402.874 378.252 403.087C378.044 403.295 377.914 403.565 377.862 403.896C377.786 404.365 377.897 404.723 378.196 404.969C378.494 405.21 378.913 405.331 379.453 405.331ZM391.839 392.455L389.424 407H386.853L389.268 392.455H391.839ZM395.179 407.22C394.488 407.22 393.886 407.097 393.375 406.851C392.864 406.6 392.487 406.231 392.246 405.743C392.009 405.255 391.95 404.654 392.068 403.939C392.172 403.323 392.371 402.814 392.665 402.412C392.963 402.009 393.328 401.688 393.759 401.446C394.194 401.2 394.668 401.015 395.179 400.892C395.695 400.769 396.221 400.679 396.756 400.622C397.409 400.556 397.937 400.494 398.339 400.438C398.747 400.381 399.052 400.295 399.256 400.182C399.459 400.063 399.582 399.884 399.625 399.642V399.599C399.71 399.064 399.625 398.65 399.369 398.357C399.114 398.063 398.688 397.916 398.091 397.916C397.466 397.916 396.94 398.054 396.514 398.328C396.088 398.603 395.778 398.927 395.584 399.301L393.254 398.96C393.548 398.297 393.95 397.743 394.462 397.298C394.973 396.848 395.563 396.512 396.23 396.29C396.902 396.062 397.62 395.949 398.382 395.949C398.903 395.949 399.412 396.01 399.909 396.134C400.411 396.257 400.854 396.46 401.237 396.744C401.625 397.024 401.91 397.405 402.089 397.888C402.274 398.371 402.305 398.974 402.182 399.699L400.967 407H398.496L398.751 405.501H398.666C398.463 405.804 398.197 406.089 397.871 406.354C397.544 406.614 397.156 406.825 396.706 406.986C396.256 407.142 395.747 407.22 395.179 407.22ZM396.152 405.331C396.668 405.331 397.132 405.229 397.544 405.026C397.956 404.817 398.295 404.543 398.56 404.202C398.825 403.861 398.991 403.489 399.057 403.087L399.27 401.801C399.175 401.867 399.028 401.929 398.83 401.986C398.631 402.043 398.408 402.092 398.162 402.135C397.92 402.178 397.681 402.215 397.445 402.249C397.208 402.282 397.004 402.31 396.834 402.334C396.441 402.386 396.081 402.471 395.754 402.589C395.432 402.708 395.165 402.874 394.952 403.087C394.743 403.295 394.613 403.565 394.561 403.896C394.485 404.365 394.597 404.723 394.895 404.969C395.193 405.21 395.612 405.331 396.152 405.331ZM407.473 396.091L409.007 400.118L411.912 396.091H414.632L410.435 401.545L412.871 407H410.165L408.51 403.072L405.57 407H402.842L407.075 401.545L404.746 396.091H407.473ZM415.733 411.091C415.383 411.091 415.063 411.063 414.774 411.006C414.49 410.954 414.265 410.892 414.099 410.821L415.037 408.818C415.392 408.927 415.712 408.974 415.996 408.96C416.285 408.951 416.55 408.854 416.791 408.669C417.037 408.489 417.279 408.193 417.516 407.781L417.842 407.192L415.754 396.091H418.382L419.518 404.344H419.632L423.531 396.091H426.365L419.98 408.307C419.672 408.899 419.315 409.401 418.908 409.812C418.5 410.229 418.034 410.546 417.509 410.764C416.988 410.982 416.396 411.091 415.733 411.091ZM438.638 396.091L438.304 398.08H431.855L432.189 396.091H438.638ZM431.976 407L433.972 395.061C434.085 394.327 434.334 393.716 434.717 393.229C435.106 392.741 435.577 392.376 436.131 392.135C436.689 391.893 437.284 391.773 437.913 391.773C438.363 391.773 438.754 391.808 439.085 391.879C439.417 391.95 439.658 392.014 439.81 392.071L438.979 394.06C438.87 394.027 438.737 393.993 438.581 393.96C438.429 393.922 438.252 393.903 438.048 393.903C437.57 393.903 437.213 394.019 436.976 394.251C436.739 394.479 436.583 394.805 436.507 395.232L434.554 407H431.976ZM441.585 407.22C440.894 407.22 440.293 407.097 439.781 406.851C439.27 406.6 438.893 406.231 438.652 405.743C438.415 405.255 438.356 404.654 438.474 403.939C438.579 403.323 438.777 402.814 439.071 402.412C439.369 402.009 439.734 401.688 440.165 401.446C440.6 401.2 441.074 401.015 441.585 400.892C442.101 400.769 442.627 400.679 443.162 400.622C443.815 400.556 444.343 400.494 444.746 400.438C445.153 400.381 445.458 400.295 445.662 400.182C445.866 400.063 445.989 399.884 446.031 399.642V399.599C446.116 399.064 446.031 398.65 445.776 398.357C445.52 398.063 445.094 397.916 444.497 397.916C443.872 397.916 443.347 398.054 442.92 398.328C442.494 398.603 442.184 398.927 441.99 399.301L439.661 398.96C439.954 398.297 440.357 397.743 440.868 397.298C441.379 396.848 441.969 396.512 442.636 396.29C443.309 396.062 444.026 395.949 444.788 395.949C445.309 395.949 445.818 396.01 446.315 396.134C446.817 396.257 447.26 396.46 447.643 396.744C448.032 397.024 448.316 397.405 448.496 397.888C448.68 398.371 448.711 398.974 448.588 399.699L447.374 407H444.902L445.158 405.501H445.072C444.869 405.804 444.604 406.089 444.277 406.354C443.95 406.614 443.562 406.825 443.112 406.986C442.662 407.142 442.153 407.22 441.585 407.22ZM442.558 405.331C443.074 405.331 443.538 405.229 443.95 405.026C444.362 404.817 444.701 404.543 444.966 404.202C445.231 403.861 445.397 403.489 445.463 403.087L445.676 401.801C445.581 401.867 445.435 401.929 445.236 401.986C445.037 402.043 444.814 402.092 444.568 402.135C444.327 402.178 444.088 402.215 443.851 402.249C443.614 402.282 443.411 402.31 443.24 402.334C442.847 402.386 442.487 402.471 442.161 402.589C441.839 402.708 441.571 402.874 441.358 403.087C441.15 403.295 441.019 403.565 440.967 403.896C440.892 404.365 441.003 404.723 441.301 404.969C441.599 405.21 442.018 405.331 442.558 405.331ZM449.959 407L451.777 396.091H454.27L453.964 397.909H454.078C454.376 397.279 454.798 396.794 455.342 396.453C455.892 396.107 456.479 395.935 457.104 395.935C457.25 395.935 457.409 395.942 457.58 395.956C457.75 395.965 457.897 395.982 458.02 396.006L457.622 398.371C457.513 398.333 457.343 398.3 457.111 398.271C456.884 398.238 456.659 398.222 456.436 398.222C455.967 398.222 455.532 398.323 455.129 398.527C454.732 398.726 454.395 399.003 454.121 399.358C453.846 399.713 453.669 400.123 453.588 400.587L452.53 407H449.959ZM460.017 405.011L459.783 405.793C459.622 406.389 459.404 406.995 459.13 407.611C458.86 408.231 458.592 408.802 458.327 409.322C458.062 409.843 457.849 410.253 457.688 410.551H455.955C456.064 410.272 456.215 409.881 456.409 409.379C456.608 408.882 456.812 408.323 457.02 407.703C457.233 407.083 457.411 406.451 457.553 405.807L457.745 405.011H460.017ZM474.868 396.091L474.534 398.08H468.086L468.419 396.091H474.868ZM468.206 407L470.202 395.061C470.316 394.327 470.564 393.716 470.948 393.229C471.336 392.741 471.807 392.376 472.361 392.135C472.92 391.893 473.514 391.773 474.144 391.773C474.594 391.773 474.984 391.808 475.316 391.879C475.647 391.95 475.889 392.014 476.04 392.071L475.209 394.06C475.1 394.027 474.968 393.993 474.811 393.96C474.66 393.922 474.482 393.903 474.279 393.903C473.801 393.903 473.443 394.019 473.206 394.251C472.97 394.479 472.813 394.805 472.738 395.232L470.784 407H468.206ZM477.816 407.22C477.124 407.22 476.523 407.097 476.012 406.851C475.5 406.6 475.124 406.231 474.882 405.743C474.646 405.255 474.587 404.654 474.705 403.939C474.809 403.323 475.008 402.814 475.301 402.412C475.6 402.009 475.964 401.688 476.395 401.446C476.831 401.2 477.304 401.015 477.816 400.892C478.332 400.769 478.857 400.679 479.392 400.622C480.046 400.556 480.574 400.494 480.976 400.438C481.383 400.381 481.689 400.295 481.892 400.182C482.096 400.063 482.219 399.884 482.262 399.642V399.599C482.347 399.064 482.262 398.65 482.006 398.357C481.75 398.063 481.324 397.916 480.728 397.916C480.103 397.916 479.577 398.054 479.151 398.328C478.725 398.603 478.415 398.927 478.221 399.301L475.891 398.96C476.185 398.297 476.587 397.743 477.098 397.298C477.61 396.848 478.199 396.512 478.867 396.29C479.539 396.062 480.257 395.949 481.019 395.949C481.54 395.949 482.049 396.01 482.546 396.134C483.048 396.257 483.49 396.46 483.874 396.744C484.262 397.024 484.546 397.405 484.726 397.888C484.911 398.371 484.942 398.974 484.819 399.699L483.604 407H481.132L481.388 405.501H481.303C481.099 405.804 480.834 406.089 480.507 406.354C480.181 406.614 479.792 406.825 479.343 406.986C478.893 407.142 478.384 407.22 477.816 407.22ZM478.789 405.331C479.305 405.331 479.769 405.229 480.181 405.026C480.593 404.817 480.931 404.543 481.196 404.202C481.462 403.861 481.627 403.489 481.694 403.087L481.907 401.801C481.812 401.867 481.665 401.929 481.466 401.986C481.267 402.043 481.045 402.092 480.799 402.135C480.557 402.178 480.318 402.215 480.081 402.249C479.845 402.282 479.641 402.31 479.471 402.334C479.078 402.386 478.718 402.471 478.391 402.589C478.069 402.708 477.801 402.874 477.588 403.087C477.38 403.295 477.25 403.565 477.198 403.896C477.122 404.365 477.233 404.723 477.532 404.969C477.83 405.21 478.249 405.331 478.789 405.331ZM486.189 407L488.007 396.091H490.5L490.195 397.909H490.309C490.607 397.279 491.028 396.794 491.573 396.453C492.122 396.107 492.709 395.935 493.334 395.935C493.481 395.935 493.64 395.942 493.81 395.956C493.98 395.965 494.127 395.982 494.25 396.006L493.853 398.371C493.744 398.333 493.573 398.3 493.341 398.271C493.114 398.238 492.889 398.222 492.667 398.222C492.198 398.222 491.762 398.323 491.36 398.527C490.962 398.726 490.626 399.003 490.351 399.358C490.077 399.713 489.899 400.123 489.819 400.587L488.76 407H486.189ZM502.21 407.22C501.519 407.22 500.918 407.097 500.406 406.851C499.895 406.6 499.518 406.231 499.277 405.743C499.04 405.255 498.981 404.654 499.099 403.939C499.204 403.323 499.402 402.814 499.696 402.412C499.994 402.009 500.359 401.688 500.79 401.446C501.225 401.2 501.699 401.015 502.21 400.892C502.726 400.769 503.252 400.679 503.787 400.622C504.44 400.556 504.968 400.494 505.371 400.438C505.778 400.381 506.083 400.295 506.287 400.182C506.491 400.063 506.614 399.884 506.656 399.642V399.599C506.741 399.064 506.656 398.65 506.401 398.357C506.145 398.063 505.719 397.916 505.122 397.916C504.497 397.916 503.972 398.054 503.545 398.328C503.119 398.603 502.809 398.927 502.615 399.301L500.286 398.96C500.579 398.297 500.982 397.743 501.493 397.298C502.004 396.848 502.594 396.512 503.261 396.29C503.934 396.062 504.651 395.949 505.413 395.949C505.934 395.949 506.443 396.01 506.94 396.134C507.442 396.257 507.885 396.46 508.268 396.744C508.657 397.024 508.941 397.405 509.121 397.888C509.305 398.371 509.336 398.974 509.213 399.699L507.999 407H505.527L505.783 405.501H505.697C505.494 405.804 505.229 406.089 504.902 406.354C504.575 406.614 504.187 406.825 503.737 406.986C503.287 407.142 502.778 407.22 502.21 407.22ZM503.183 405.331C503.699 405.331 504.163 405.229 504.575 405.026C504.987 404.817 505.326 404.543 505.591 404.202C505.856 403.861 506.022 403.489 506.088 403.087L506.301 401.801C506.206 401.867 506.06 401.929 505.861 401.986C505.662 402.043 505.439 402.092 505.193 402.135C504.952 402.178 504.713 402.215 504.476 402.249C504.239 402.282 504.036 402.31 503.865 402.334C503.472 402.386 503.112 402.471 502.786 402.589C502.464 402.708 502.196 402.874 501.983 403.087C501.775 403.295 501.644 403.565 501.592 403.896C501.517 404.365 501.628 404.723 501.926 404.969C502.224 405.21 502.643 405.331 503.183 405.331ZM512.835 407L511.571 396.091H514.192L514.831 403.761H514.93L518.169 396.091H520.761L521.443 403.719H521.55L524.717 396.091H527.345L522.438 407H519.76L518.936 399.628H518.787L515.52 407H512.835ZM530.433 407.22C529.742 407.22 529.14 407.097 528.629 406.851C528.118 406.6 527.741 406.231 527.5 405.743C527.263 405.255 527.204 404.654 527.322 403.939C527.426 403.323 527.625 402.814 527.919 402.412C528.217 402.009 528.582 401.688 529.012 401.446C529.448 401.2 529.922 401.015 530.433 400.892C530.949 400.769 531.475 400.679 532.01 400.622C532.663 400.556 533.191 400.494 533.593 400.438C534.001 400.381 534.306 400.295 534.51 400.182C534.713 400.063 534.836 399.884 534.879 399.642V399.599C534.964 399.064 534.879 398.65 534.623 398.357C534.368 398.063 533.941 397.916 533.345 397.916C532.72 397.916 532.194 398.054 531.768 398.328C531.342 398.603 531.032 398.927 530.838 399.301L528.508 398.96C528.802 398.297 529.204 397.743 529.716 397.298C530.227 396.848 530.816 396.512 531.484 396.29C532.156 396.062 532.874 395.949 533.636 395.949C534.157 395.949 534.666 396.01 535.163 396.134C535.665 396.257 536.108 396.46 536.491 396.744C536.879 397.024 537.163 397.405 537.343 397.888C537.528 398.371 537.559 398.974 537.436 399.699L536.221 407H533.75L534.005 405.501H533.92C533.717 405.804 533.451 406.089 533.125 406.354C532.798 406.614 532.41 406.825 531.96 406.986C531.51 407.142 531.001 407.22 530.433 407.22ZM531.406 405.331C531.922 405.331 532.386 405.229 532.798 405.026C533.21 404.817 533.548 404.543 533.814 404.202C534.079 403.861 534.244 403.489 534.311 403.087L534.524 401.801C534.429 401.867 534.282 401.929 534.083 401.986C533.885 402.043 533.662 402.092 533.416 402.135C533.174 402.178 532.935 402.215 532.699 402.249C532.462 402.282 532.258 402.31 532.088 402.334C531.695 402.386 531.335 402.471 531.008 402.589C530.686 402.708 530.419 402.874 530.206 403.087C529.997 403.295 529.867 403.565 529.815 403.896C529.739 404.365 529.85 404.723 530.149 404.969C530.447 405.21 530.866 405.331 531.406 405.331ZM539.346 411.091C538.996 411.091 538.676 411.063 538.387 411.006C538.103 410.954 537.878 410.892 537.713 410.821L538.65 408.818C539.005 408.927 539.325 408.974 539.609 408.96C539.898 408.951 540.163 408.854 540.404 408.669C540.651 408.489 540.892 408.193 541.129 407.781L541.456 407.192L539.368 396.091H541.995L543.132 404.344H543.245L547.145 396.091H549.978L543.593 408.307C543.286 408.899 542.928 409.401 542.521 409.812C542.114 410.229 541.647 410.546 541.122 410.764C540.601 410.982 540.009 411.091 539.346 411.091ZM550.23 407.156C549.795 407.156 549.435 407.005 549.151 406.702C548.867 406.399 548.734 406.029 548.753 405.594C548.772 405.168 548.945 404.805 549.272 404.507C549.598 404.209 549.975 404.06 550.401 404.06C550.822 404.06 551.18 404.211 551.473 404.514C551.772 404.817 551.907 405.177 551.878 405.594C551.859 405.887 551.769 406.152 551.608 406.389C551.452 406.626 551.253 406.813 551.012 406.95C550.77 407.088 550.51 407.156 550.23 407.156ZM555.394 407.156C554.958 407.156 554.598 407.005 554.314 406.702C554.03 406.399 553.898 406.029 553.917 405.594C553.935 405.168 554.108 404.805 554.435 404.507C554.762 404.209 555.138 404.06 555.564 404.06C555.986 404.06 556.343 404.211 556.637 404.514C556.935 404.817 557.07 405.177 557.042 405.594C557.023 405.887 556.933 406.152 556.772 406.389C556.615 406.626 556.417 406.813 556.175 406.95C555.934 407.088 555.673 407.156 555.394 407.156ZM560.55 407.156C560.114 407.156 559.755 407.005 559.471 406.702C559.186 406.399 559.054 406.029 559.073 405.594C559.092 405.168 559.265 404.805 559.591 404.507C559.918 404.209 560.294 404.06 560.721 404.06C561.142 404.06 561.499 404.211 561.793 404.514C562.091 404.817 562.226 405.177 562.198 405.594C562.179 405.887 562.089 406.152 561.928 406.389C561.772 406.626 561.573 406.813 561.331 406.95C561.09 407.088 560.829 407.156 560.55 407.156ZM567.464 392.455L567.23 393.903C567.163 394.32 567.012 394.753 566.775 395.203C566.538 395.648 566.25 396.074 565.909 396.482C565.568 396.884 565.201 397.23 564.808 397.518L563.728 396.744C564.05 396.351 564.346 395.928 564.616 395.473C564.886 395.014 565.071 394.495 565.17 393.918L565.419 392.455H567.464ZM571.051 392.455L570.824 393.903C570.752 394.32 570.599 394.753 570.362 395.203C570.13 395.648 569.843 396.074 569.502 396.482C569.162 396.884 568.795 397.23 568.402 397.518L567.322 396.744C567.644 396.351 567.94 395.928 568.21 395.473C568.48 395.014 568.662 394.495 568.757 393.918L569.005 392.455H571.051Z" fill="#04071A"/>
</g>
<defs>
<clipPath id="clip0_1_2">
<rect width="800" height="800" fill="white"/>
</clipPath>
</defs>
</svg>
